<?xml version="1.0" encoding="utf-8"?>
<!-- Generator: Adobe Illustrator 16.0.3, SVG Export Plug-In . SVG Version: 6.00 Build 0)  -->
<!DOCTYPE svg PUBLIC "-//W3C//DTD SVG 1.1//EN" "http://www.w3.org/Graphics/SVG/1.1/DTD/svg11.dtd">
<svg version="1.1" id="Capa_1" xmlns="http://www.w3.org/2000/svg" xmlns:xlink="http://www.w3.org/1999/xlink" x="0px" y="0px"
	 width="320.798px" height="319.058px" viewBox="0 0 320.798 319.058" enable-background="new 0 0 320.798 319.058"
	 xml:space="preserve">
<g>
	<defs>
		<rect id="SVGID_1_" width="320.798" height="319.058"/>
	</defs>
	<clipPath id="SVGID_2_">
		<use xlink:href="#SVGID_1_"  overflow="visible"/>
	</clipPath>
	<g clip-path="url(#SVGID_2_)">
		<defs>
			<path id="SVGID_3_" d="M157.862,21.788c-80.255,0-145.314,65.059-145.314,145.314v0.002c0,80.255,65.059,145.314,145.314,145.314
				h0.201c80.255,0,145.315-65.06,145.315-145.314v-0.002c0-80.255-65.06-145.314-145.315-145.314H157.862z"/>
		</defs>
		<clipPath id="SVGID_4_">
			<use xlink:href="#SVGID_3_"  overflow="visible"/>
		</clipPath>
		<polygon clip-path="url(#SVGID_4_)" fill="#DDDDDD" points="450.01,-137.998 584.295,675.547 133.06,727.195 -127.021,727.485 
			-355.219,97.848 -195.684,-139.176 52.548,-130.206 		"/>
		<polygon clip-path="url(#SVGID_4_)" fill="#CCCCCC" points="287.635,23.65 357.075,44.786 358.821,78.92 296.969,86.025 		"/>
		<polygon clip-path="url(#SVGID_4_)" fill="#CCCCCC" points="91.904,-87.721 -151.61,-26.843 -239.236,42.582 -257.948,123.55 
			-228.547,121.343 -146.128,16.997 96.443,-54.908 		"/>
		<polygon clip-path="url(#SVGID_4_)" fill="#CCCCCC" points="183.052,-24.057 192.306,77.476 130.892,133.004 96.037,120.728 
			96.376,-26.259 		"/>
		<polygon clip-path="url(#SVGID_4_)" fill="#CCCCCC" points="125.941,204.833 59.821,213.976 -21.315,258.777 15.786,361.767 
			96.055,393.445 160.196,301.178 		"/>
		<polygon clip-path="url(#SVGID_4_)" fill="#FFFFFF" points="95.062,123.472 97.013,117.979 412.887,229.254 410.936,234.748 		"/>
		
			<rect x="160.061" y="294.388" transform="matrix(-0.9989 0.0472 -0.0472 -0.9989 584.1462 576.9214)" clip-path="url(#SVGID_4_)" fill="#FFFFFF" width="250.399" height="1.943"/>
		<path clip-path="url(#SVGID_4_)" fill="#FFFFFF" d="M-24.068,259.758l1.335-3.533l81.136-44.801l1.016-0.339l66.12-9.142
			l3.16,1.915l34.254,96.347l-0.352,2.631l-64.144,92.268l-3.484,1.049l-80.27-31.678l-1.677-1.725L-24.068,259.758z
			 M60.764,216.784l-78.483,43.342l35.812,99.422l76.881,30.34l61.966-89.137l-32.958-92.7L60.764,216.784z"/>
		<polygon clip-path="url(#SVGID_4_)" fill="#FFFFFF" points="-126.792,301.071 -126.836,300.277 -68.388,148.523 -67.68,147.922 
			-12.914,136.229 -12.476,136.229 33.598,147.645 101.755,136.286 102.073,138.202 33.716,149.595 33.319,149.579 -12.732,138.169 
			-66.76,149.703 -124.868,300.557 -96.798,354.406 -81.376,343.423 -80.097,343.55 -62.978,361.857 3.932,389.759 4.486,390.945 
			-18.779,464.929 -20.64,464.348 2.359,391.215 -63.925,363.571 -64.263,363.338 -80.933,345.514 -96.573,356.652 -98.002,356.31 
					"/>
		<path clip-path="url(#SVGID_4_)" fill="#FFFFFF" d="M43.819,294.953c-5.012-17.981,5.502-36.621,23.483-41.633
			c17.981-5.012,36.621,5.502,41.633,23.482c5.012,17.981-5.502,36.621-23.483,41.634c-0.017,0.004-0.033,0.009-0.05,0.014
			c-17.919,5.024-36.518-5.429-41.542-23.348C43.847,295.051,43.833,295.002,43.819,294.953 M103.355,278.588
			c-4.042-14.893-19.392-23.689-34.285-19.647c-14.894,4.041-23.691,19.391-19.649,34.285c4.042,14.893,19.392,23.689,34.286,19.647
			c0.045-0.012,0.09-0.023,0.134-0.037C98.641,308.707,107.348,293.424,103.355,278.588"/>
		<polygon clip-path="url(#SVGID_4_)" fill="#FFFFFF" points="310.726,197.805 261.011,-134.561 266.799,-135.419 316.515,196.947 
					"/>
		<polygon clip-path="url(#SVGID_4_)" fill="#FFFFFF" points="278.854,-31.404 279.697,-33.15 483.952,64.171 483.108,65.918 		"/>
		<polygon clip-path="url(#SVGID_4_)" fill="#FFFFFF" points="269.876,-93.396 270.092,-95.328 390.291,-81.99 391.085,-80.654 
			355.967,3.967 366.779,215.716 364.831,215.816 354.008,3.84 354.081,3.418 388.788,-80.204 		"/>
		
			<rect x="296.762" y="81.507" transform="matrix(-0.9934 0.1147 -0.1147 -0.9934 663.0815 126.7866)" clip-path="url(#SVGID_4_)" fill="#FFFFFF" width="62.259" height="1.943"/>
		<polygon clip-path="url(#SVGID_4_)" fill="#FFFFFF" points="169.396,145.959 292.904,61.77 294.004,63.371 170.496,147.56 		"/>
		<polygon clip-path="url(#SVGID_4_)" fill="#FFFFFF" points="264.065,180.433 247.506,93.05 249.422,92.691 265.981,180.074 		"/>
		<polygon clip-path="url(#SVGID_4_)" fill="#FFFFFF" points="130.235,132.286 191.287,77.083 172.354,-130.5 174.296,-130.676 
			193.275,77.388 192.959,78.194 131.545,133.724 		"/>
		<rect x="202.068" y="159.124" clip-path="url(#SVGID_4_)" fill="#FFFFFF" width="1.95" height="139.418"/>
		<polygon clip-path="url(#SVGID_4_)" fill="#FFFFFF" points="-77.153,173.621 -76.21,171.918 29.579,230.08 28.636,231.782 		"/>
		<polygon clip-path="url(#SVGID_4_)" fill="#FFFFFF" points="-185.263,280.973 -176.321,181.787 -175.128,180.928 -87.671,201.52 
			2.792,244.819 1.946,246.566 -88.422,203.319 -174.481,183.078 -183.253,280.382 -125.622,299.7 -126.243,301.542 
			-184.609,281.98 		"/>
		<path clip-path="url(#SVGID_4_)" fill="#FFFFFF" d="M249.505,427.328l6.806-42.901l1.135-1.878
			c57.17-42.68,73.799-88.733,77.683-119.854c4.19-33.594-5.081-57.3-5.185-57.531l5.438-2.158
			c0.404,1.021,9.927,25.345,5.556,60.408c-4.001,32.07-20.982,79.382-79.025,123.087l-6.622,41.738L249.505,427.328z"/>
		<polygon clip-path="url(#SVGID_4_)" fill="#FFFFFF" points="-176.064,181.213 -74.833,73.119 -74.356,72.838 94.206,31.631 
			94.669,33.519 -73.609,74.656 -174.646,182.537 		"/>
		<polygon clip-path="url(#SVGID_4_)" fill="#FFFFFF" points="-21.617,259.698 -21.014,257.851 46.303,279.658 45.7,281.503 		"/>
		<polygon clip-path="url(#SVGID_4_)" fill="#FFFFFF" points="15.063,361.116 59.859,311.751 61.308,313.053 16.511,362.42 		"/>
		<polygon clip-path="url(#SVGID_4_)" fill="#FFFFFF" points="96.888,309.054 98.284,307.698 131.964,342.116 130.57,343.472 		"/>
		<polygon clip-path="url(#SVGID_4_)" fill="#FFFFFF" points="106.434,278.75 105.915,276.877 146.101,265.833 146.62,267.706 		"/>
		<polygon clip-path="url(#SVGID_4_)" fill="#FFFFFF" points="58.899,214.292 60.742,213.656 75.133,254.994 73.289,255.628 		"/>
		<polygon clip-path="url(#SVGID_4_)" fill="#FFFFFF" points="-225.503,282.964 -231.463,121.446 -230.837,119.541 -148.43,15.191 
			-146.966,14.199 95.608,-57.699 99.369,-54.9 98.964,120.232 162.954,300.207 162.601,302.838 98.779,394.641 27.2,707.346 
			21.494,706.05 93.208,392.796 93.655,391.786 156.938,300.746 93.274,121.697 93.105,120.718 93.503,-50.999 -144.402,19.522 
			-225.581,122.296 -219.687,281.876 -173.098,347.831 -172.573,349.259 -163.951,452.047 -169.784,452.531 -178.341,350.545 
			-224.971,284.534 		"/>
		<polygon clip-path="url(#SVGID_4_)" fill="#FFFFFF" points="-31.244,197.267 6.791,170.436 6.691,142.229 8.642,142.229 
			8.744,170.941 8.332,171.735 -30.125,198.853 		"/>
		<polygon clip-path="url(#SVGID_4_)" fill="#FFFFFF" points="57.203,144.95 58.984,144.156 88.321,209.759 86.541,210.552 		"/>
		
			<rect x="94.479" y="158.965" transform="matrix(0.2078 0.9782 -0.9782 0.2078 251.0308 48.6927)" clip-path="url(#SVGID_4_)" fill="#FFFFFF" width="1.948" height="40.729"/>
		<polygon clip-path="url(#SVGID_4_)" fill="#FFFFFF" points="-5.215,57.791 -3.626,56.665 24.513,96.093 95.15,81.699 
			95.542,83.604 24.288,98.123 23.297,97.732 		"/>
		<polygon clip-path="url(#SVGID_4_)" fill="#FFFFFF" points="206.812,374.652 262.989,295.793 264.576,296.917 208.401,375.775 		
			"/>
		<polygon clip-path="url(#SVGID_4_)" fill="#CCCCCC" points="85.752,53.964 35.297,65.801 32.725,55.209 83.18,43.37 		"/>
		<polygon clip-path="url(#SVGID_4_)" fill="#CCCCCC" points="182.235,184.542 133.469,167.041 140.016,148.941 188.781,166.445 		
			"/>
		<polygon clip-path="url(#SVGID_4_)" fill="#FFFFFF" points="-260.798,122.893 -242.088,41.924 -241.057,40.298 -153.43,-29.126 
			-152.318,-29.672 91.193,-90.545 94.803,-88.117 99.342,-55.304 93.544,-54.51 89.457,-84.101 -150.275,-24.168 -236.615,44.229 
			-255.095,124.2 		"/>
		<polygon clip-path="url(#SVGID_4_)" fill="#CCCCCC" points="26.532,92.103 22.166,76.342 37.99,71.991 42.357,87.753 		"/>
		<polygon clip-path="url(#SVGID_4_)" fill="#CCCCCC" points="242.479,320.223 226.193,318.159 228.258,301.94 244.544,304.003 		
			"/>
		
			<rect x="180.424" y="194.651" transform="matrix(-0.0337 0.9994 -0.9994 -0.0337 397.7073 21.2143)" clip-path="url(#SVGID_4_)" fill="#CCCCCC" width="16.349" height="16.417"/>
		<polygon clip-path="url(#SVGID_4_)" fill="#CCCCCC" points="70.857,158.938 68.428,150.171 77.23,147.75 79.66,156.519 		"/>
		<polygon clip-path="url(#SVGID_4_)" fill="#CCCCCC" points="83.572,176.071 81.811,167.145 101.958,163.202 103.719,172.125 		"/>
		
			<rect x="311.369" y="275.729" transform="matrix(-0.0337 0.9994 -0.9994 -0.0337 607.2626 -25.9967)" clip-path="url(#SVGID_4_)" fill="#CCCCCC" width="9.661" height="9.7"/>
		
			<rect x="249.364" y="279.641" transform="matrix(-0.0337 0.9994 -0.9994 -0.0337 547.0804 40.0168)" clip-path="url(#SVGID_4_)" fill="#CCCCCC" width="9.661" height="9.7"/>
		
			<rect x="220.174" y="179.476" transform="matrix(-0.0338 0.9994 -0.9994 -0.0338 416.8214 -34.3265)" clip-path="url(#SVGID_4_)" fill="#CCCCCC" width="9.66" height="9.699"/>
		<g opacity="0.2" clip-path="url(#SVGID_4_)">
			<g>
				<defs>
					<rect id="SVGID_5_" x="256.117" y="94.623" width="11.931" height="11.882"/>
				</defs>
				<clipPath id="SVGID_6_">
					<use xlink:href="#SVGID_5_"  overflow="visible"/>
				</clipPath>
				<g clip-path="url(#SVGID_6_)">
					<defs>
						<rect id="SVGID_7_" x="256.117" y="94.623" width="11.931" height="11.882"/>
					</defs>
					<clipPath id="SVGID_8_">
						<use xlink:href="#SVGID_7_"  overflow="visible"/>
					</clipPath>
					<polygon clip-path="url(#SVGID_8_)" fill="#CCCCCC" points="258.697,106.505 256.117,97.192 265.467,94.624 268.047,103.937 
											"/>
				</g>
			</g>
		</g>
		<polygon clip-path="url(#SVGID_4_)" fill="#CCCCCC" points="264.172,152.023 262.475,142.512 272.023,140.821 273.722,150.332 		
			"/>
		
			<rect x="170.914" y="255.962" transform="matrix(-0.0338 0.9994 -0.9994 -0.0338 455.8517 94.2335)" clip-path="url(#SVGID_4_)" fill="#CCCCCC" width="22.921" height="23.012"/>
		<polygon clip-path="url(#SVGID_4_)" fill="#CCCCCC" points="319.262,160.491 313.632,119.254 329.901,117.052 335.529,158.289 		
			"/>
		<g opacity="0.2" clip-path="url(#SVGID_4_)">
			<g>
				<defs>
					<rect id="SVGID_9_" x="210.192" y="41.509" width="17.736" height="17.677"/>
				</defs>
				<clipPath id="SVGID_10_">
					<use xlink:href="#SVGID_9_"  overflow="visible"/>
				</clipPath>
				<g clip-path="url(#SVGID_10_)">
					<defs>
						<rect id="SVGID_11_" x="210.192" y="41.516" width="17.736" height="17.666"/>
					</defs>
					<clipPath id="SVGID_12_">
						<use xlink:href="#SVGID_11_"  overflow="visible"/>
					</clipPath>
					
						<rect x="210.852" y="42.172" transform="matrix(-0.9964 0.0844 -0.0844 -0.9964 441.5872 82.0321)" clip-path="url(#SVGID_12_)" fill="#CCCCCC" width="16.417" height="16.351"/>
				</g>
			</g>
		</g>
		
			<rect x="212.204" y="221.342" transform="matrix(-0.9999 0.0163 -0.0163 -0.9999 453.1496 508.0884)" clip-path="url(#SVGID_4_)" fill="#CCCCCC" width="24.607" height="69.092"/>
		<polygon clip-path="url(#SVGID_4_)" fill="#FFFFFF" points="192.563,78.412 192.044,76.541 235.928,64.474 218.926,-133.408 
			220.867,-133.567 237.944,65.117 237.23,66.136 		"/>
		
			<rect x="254.598" y="-26.541" transform="matrix(-0.0694 0.9976 -0.9976 -0.0694 271.2622 -257.1355)" clip-path="url(#SVGID_4_)" fill="#FFFFFF" width="1.943" height="49"/>
		<polygon clip-path="url(#SVGID_4_)" fill="#FFFFFF" points="257.627,139.758 257.108,137.886 302.728,125.344 303.246,127.216 		
			"/>
		
			<rect x="321.382" y="-2.067" transform="matrix(-0.2921 0.9564 -0.9564 -0.2921 449.2378 -264.0749)" clip-path="url(#SVGID_4_)" fill="#FFFFFF" width="1.943" height="72.586"/>
	</g>
	<g clip-path="url(#SVGID_2_)">
		<defs>
			<rect id="SVGID_13_" width="320.798" height="319.058"/>
		</defs>
		<clipPath id="SVGID_14_">
			<use xlink:href="#SVGID_13_"  overflow="visible"/>
		</clipPath>
		<circle clip-path="url(#SVGID_14_)" fill="none" stroke="#1E3451" cx="157.798" cy="167.153" r="144.787"/>
		<path clip-path="url(#SVGID_14_)" fill="#FFFFFF" d="M123.126,33.604c1.308,10.824-6.407,20.658-17.23,21.966
			c-10.824,1.307-20.659-6.407-21.966-17.231c-1.308-10.823,6.406-20.658,17.23-21.965c0.001,0,0.001-0.001,0.001-0.001
			C111.985,15.066,121.818,22.782,123.126,33.604"/>
		<path clip-path="url(#SVGID_14_)" fill="#33CCCC" d="M132.574,32.834c-1.978-16.056-16.598-27.47-32.654-25.493
			c-3.599,0.444-7.084,1.551-10.279,3.267c-7.389,3.75-12.693,10.633-14.436,18.734c-2.468,10.432,0.917,21.382,8.841,28.601
			l21.711,20.639c1.533,1.458,3.958,1.398,5.416-0.135c0.168-0.177,0.319-0.369,0.451-0.575l16.171-25.214h-0.009
			c3.94-5.809,5.643-12.849,4.793-19.817 M105.943,55.482c-10.776,1.302-20.567-6.379-21.868-17.154
			c-1.302-10.776,6.378-20.567,17.154-21.869c10.775-1.302,20.566,6.378,21.868,17.153
			C124.399,44.388,116.719,54.179,105.943,55.482"/>
		<polygon clip-path="url(#SVGID_14_)" fill="#33CCCC" points="114.448,33.063 96.779,41.208 91.661,30.094 109.329,21.951 
			109.514,28.302 		"/>
		<polygon clip-path="url(#SVGID_14_)" fill="#1D2545" points="100.728,49.786 103.406,39.454 97.273,42.281 		"/>
		<path clip-path="url(#SVGID_14_)" fill="#FFFFFF" d="M246.514,63.124c-2.746,10.552-13.526,16.88-24.078,14.134
			c-10.551-2.745-16.88-13.525-14.134-24.077c2.746-10.552,13.526-16.88,24.078-14.135c0.001,0.001,0.003,0.001,0.004,0.002
			C242.934,41.794,249.259,52.573,246.514,63.124"/>
		<path clip-path="url(#SVGID_14_)" fill="#33CCCC" d="M255.589,65.865c4.037-15.667-5.39-31.641-21.057-35.679
			c-3.511-0.905-7.159-1.15-10.76-0.723c-8.251,0.786-15.707,5.252-20.295,12.155c-6.114,8.802-6.972,20.23-2.241,29.847
			l12.65,27.149c0.895,1.918,3.175,2.747,5.094,1.852c0.218-0.102,0.426-0.224,0.621-0.365l24.28-17.545h-0.012
			c5.794-3.963,9.956-9.892,11.715-16.687 M222.511,77.19c-10.504-2.735-16.803-13.468-14.066-23.972
			c2.735-10.504,13.467-16.801,23.971-14.066c10.502,2.735,16.8,13.463,14.068,23.965c-2.733,10.506-13.464,16.807-23.97,14.074
			C222.513,77.191,222.512,77.19,222.511,77.19"/>
		<polygon clip-path="url(#SVGID_14_)" fill="#33CCCC" points="238.633,59.441 219.21,60.553 218.511,48.344 237.934,47.232 
			235.776,53.217 		"/>
		<polygon clip-path="url(#SVGID_14_)" fill="#1D2545" points="219.745,69.982 226.019,61.347 219.277,61.733 		"/>
		<path clip-path="url(#SVGID_14_)" fill="#FFFFFF" d="M300.152,146.336c-2.154,10.689-12.564,17.607-23.254,15.454
			c-10.688-2.154-17.606-12.563-15.453-23.252c2.153-10.688,12.564-17.607,23.253-15.454c0.001,0,0.001,0,0.002,0.001
			C295.387,125.238,302.305,135.648,300.152,146.336"/>
		<path clip-path="url(#SVGID_14_)" fill="#33CCCC" d="M309.366,148.568c3.161-15.866-7.14-31.291-23.006-34.451
			c-3.556-0.709-7.213-0.751-10.785-0.124c-8.194,1.244-15.39,6.118-19.587,13.265c-5.613,9.128-5.834,20.582-0.578,29.92
			l14.144,26.409c0.997,1.865,3.319,2.568,5.185,1.57c0.215-0.115,0.418-0.25,0.607-0.403l23.265-18.869H298.6
			c5.564-4.279,9.391-10.431,10.769-17.314 M276.98,161.713c-10.641-2.145-17.527-12.509-15.382-23.148
			c2.144-10.64,12.509-17.527,23.148-15.383c10.641,2.145,17.527,12.509,15.382,23.149
			C297.985,156.972,287.62,163.859,276.98,161.713L276.98,161.713"/>
		<polygon clip-path="url(#SVGID_14_)" fill="#33CCCC" points="292.08,143.105 272.749,145.294 271.373,133.143 290.705,130.953 
			288.887,137.048 		"/>
		<polygon clip-path="url(#SVGID_14_)" fill="#1D2545" points="273.809,154.674 279.592,145.704 272.882,146.463 		"/>
		<path clip-path="url(#SVGID_14_)" fill="#FFFFFF" d="M58.386,131.954c-0.364,10.897-9.493,19.436-20.39,19.072
			c-10.897-0.363-19.436-9.492-19.072-20.39c0.363-10.897,9.492-19.436,20.39-19.072h0.001
			C50.212,111.929,58.75,121.057,58.386,131.954"/>
		<path clip-path="url(#SVGID_14_)" fill="#33CCCC" d="M67.844,132.639c0.503-16.171-12.198-29.689-28.37-30.192
			c-3.622-0.113-7.234,0.447-10.653,1.653c-7.878,2.576-14.174,8.567-17.137,16.308c-4.033,9.928-2.366,21.262,4.357,29.608
			l18.294,23.719c1.294,1.676,3.702,1.985,5.378,0.691c0.191-0.147,0.368-0.313,0.528-0.494l19.846-22.443h-0.015
			C64.855,146.354,67.617,139.656,67.844,132.639 M38.055,150.938c-10.848-0.363-19.348-9.451-18.985-20.299
			c0.363-10.849,9.451-19.349,20.299-18.986c10.849,0.363,19.348,9.452,18.985,20.3C57.991,142.801,48.903,151.301,38.055,150.938"
			/>
		<polygon clip-path="url(#SVGID_14_)" fill="#33CCCC" points="49.894,130.091 31.187,135.438 27.828,123.68 46.535,118.338 
			45.741,124.649 		"/>
		<polygon clip-path="url(#SVGID_14_)" fill="#1D2545" points="33.776,144.521 38.004,134.721 31.512,136.575 		"/>
		<path clip-path="url(#SVGID_14_)" fill="#FFFFFF" d="M172.389,140.678c0.913,10.865-7.153,20.413-18.019,21.326
			s-20.414-7.154-21.327-18.019c-0.913-10.865,7.155-20.413,18.02-21.326c0.001,0,0.002-0.001,0.003-0.001
			C161.93,121.746,171.477,129.813,172.389,140.678L172.389,140.678"/>
		<path clip-path="url(#SVGID_14_)" fill="#33CCCC" d="M181.855,140.25c-1.389-16.118-15.582-28.058-31.699-26.668
			c-3.614,0.311-7.138,1.291-10.394,2.89c-7.522,3.479-13.074,10.166-15.111,18.2c-2.844,10.332,0.138,21.394,7.791,28.896
			l20.944,21.408c1.48,1.514,3.906,1.54,5.419,0.061c0.174-0.17,0.331-0.356,0.469-0.556l17.08-24.607h-0.009
			c4.149-5.662,6.107-12.636,5.512-19.63 M154.414,161.908c-10.816,0.907-20.32-7.125-21.228-17.94
			c-0.908-10.816,7.124-20.321,17.94-21.229c10.815-0.908,20.32,7.124,21.228,17.939
			C173.263,151.494,165.23,160.999,154.414,161.908L154.414,161.908"/>
		<polygon clip-path="url(#SVGID_14_)" fill="#33CCCC" points="163.733,139.819 145.78,147.319 141.068,136.034 159.021,128.539 
			158.973,134.901 		"/>
		<polygon clip-path="url(#SVGID_14_)" fill="#1D2545" points="149.414,156.03 152.465,145.801 146.234,148.403 		"/>
		<path clip-path="url(#SVGID_14_)" fill="#FFFFFF" d="M239.364,226.111c-0.364,10.897-9.494,19.437-20.392,19.071
			s-19.436-9.495-19.07-20.392c0.364-10.897,9.494-19.436,20.392-19.071C231.191,206.084,239.729,215.214,239.364,226.111"/>
		<path clip-path="url(#SVGID_14_)" fill="#33CCCC" d="M248.822,226.797c0.503-16.171-12.198-29.689-28.37-30.192
			c-3.622-0.113-7.233,0.447-10.652,1.653c-7.878,2.576-14.175,8.566-17.138,16.308c-4.033,9.928-2.365,21.262,4.357,29.608
			l18.294,23.719c1.294,1.676,3.702,1.986,5.378,0.692c0.191-0.148,0.368-0.313,0.528-0.494l19.846-22.443h-0.015
			C245.834,240.511,248.596,233.814,248.822,226.797 M219.033,245.096c-10.848-0.363-19.348-9.451-18.984-20.299
			c0.362-10.85,9.45-19.35,20.299-18.986s19.348,9.452,18.984,20.3C238.97,236.959,229.882,245.459,219.033,245.096"/>
		<polygon clip-path="url(#SVGID_14_)" fill="#33CCCC" points="230.872,224.249 212.165,229.596 208.807,217.838 227.514,212.496 
			226.72,218.807 		"/>
		<polygon clip-path="url(#SVGID_14_)" fill="#1D2545" points="214.755,238.68 218.982,228.88 212.491,230.735 		"/>
		<path clip-path="url(#SVGID_14_)" fill="#FFFFFF" d="M116.416,230.424c-1.371,10.817-11.251,18.475-22.067,17.104
			c-10.817-1.371-18.475-11.251-17.104-22.068c1.37-10.814,11.247-18.472,22.063-17.104c10.817,1.368,18.477,11.246,17.109,22.063
			C116.416,230.421,116.416,230.422,116.416,230.424"/>
		<path clip-path="url(#SVGID_14_)" fill="#33CCCC" d="M125.762,231.979c1.992-16.056-9.408-30.687-25.464-32.68
			c-3.598-0.447-7.247-0.223-10.763,0.664c-8.081,1.838-14.902,7.224-18.566,14.658c-4.932,9.514-4.316,20.954,1.609,29.884
			l16.033,25.304c1.132,1.788,3.498,2.319,5.286,1.188c0.206-0.131,0.398-0.28,0.576-0.447l21.826-20.518h-0.011
			c5.238-4.674,8.604-11.088,9.477-18.054 M94.417,247.452c-10.768-1.361-18.393-11.195-17.031-21.965
			c1.362-10.768,11.196-18.393,21.965-17.03c10.768,1.362,18.393,11.195,17.031,21.964
			C115.019,241.188,105.186,248.814,94.417,247.452"/>
		<polygon clip-path="url(#SVGID_14_)" fill="#33CCCC" points="108.128,227.785 89.008,231.378 86.749,219.361 105.869,215.766 
			104.499,221.976 		"/>
		<polygon clip-path="url(#SVGID_14_)" fill="#1D2545" points="90.748,240.656 95.862,231.289 89.225,232.537 		"/>
	</g>
</g>
</svg>
