<svg width="98" height="110" viewBox="0 0 98 110" fill="none" xmlns="http://www.w3.org/2000/svg">
<path d="M74.1171 31.2571C70.7268 23.275 64.3611 16.9351 56.4042 13.6162C48.4473 10.2972 39.5427 10.2676 31.6269 13.5338C23.7111 16.7999 17.4243 23.0978 14.1336 31.0576C10.8429 39.0175 10.8145 47.9955 14.0545 56.0396C16.4 62.0991 20.4732 67.3357 25.7562 71.0832L56.207 95.8267C57.4178 96.8101 58.861 97.4574 60.3915 97.7035C61.922 97.9495 63.4859 97.7858 64.9261 97.2286C66.3662 96.6714 67.632 95.7403 68.5961 94.5291C69.5602 93.3178 70.1888 91.8691 70.4186 90.3282L76.1881 51.5662C77.6618 44.7682 76.9376 37.6524 74.1211 31.2572" fill="#33CCCC"/>
<path d="M50.651 61.953C47.1499 63.3172 43.3365 63.6384 39.6932 62.8761C36.05 62.1138 32.7404 60.3021 30.1831 57.6702C27.6258 55.0383 25.9357 51.7045 25.3262 48.0901C24.7168 44.4758 25.2156 40.7433 26.7595 37.3648C28.3034 33.9863 30.8231 31.1134 34 29.1095C37.1768 27.1055 40.8681 26.0605 44.607 26.1067C48.346 26.1529 51.9646 27.2881 55.0054 29.3688C58.0461 31.4494 60.3725 34.3822 61.6902 37.796C62.5653 40.0626 62.9739 42.4855 62.8927 44.9262C62.8115 47.367 62.2421 49.7777 61.217 52.0209C60.1919 54.2642 58.7311 56.2959 56.9182 58C55.1053 59.7041 52.9757 61.0474 50.651 61.953Z" fill="white"/>
</svg>
