<svg width="49" height="65" viewBox="0 0 49 65" fill="none" xmlns="http://www.w3.org/2000/svg">
<path d="M46.1988 23.2471C45.9716 17.2769 43.4262 11.635 39.1161 7.54834C34.806 3.46172 29.0797 1.26086 23.1826 1.42436C17.2855 1.58787 11.6944 4.10257 7.62527 8.42151C3.55614 12.7404 1.33801 18.5143 1.45326 24.4876C1.47875 28.9639 2.8184 33.3337 5.30184 37.0411L18.846 60.4341C19.3847 61.364 20.1553 62.1343 21.0805 62.6678C22.0056 63.2012 23.0527 63.479 24.1165 63.473C25.1804 63.4671 26.2235 63.1778 27.141 62.6341C28.0586 62.0904 28.8183 61.3116 29.3438 60.3758L42.5561 36.8312C45.1706 32.8152 46.4479 28.0559 46.2013 23.2481" fill="#33CCCC"/>
<path d="M23.5682 37.262C20.9796 37.2826 18.4455 36.555 16.2865 35.1715C14.1275 33.788 12.4404 31.8106 11.4386 29.4893C10.4369 27.1681 10.1655 24.6074 10.6587 22.1309C11.1519 19.6543 12.3875 17.3733 14.2094 15.5762C16.0313 13.7791 18.3577 12.5466 20.8942 12.0347C23.4307 11.5228 26.0635 11.7544 28.4596 12.7003C30.8558 13.6461 32.9076 15.2637 34.3557 17.3484C35.8038 19.4332 36.5831 21.8915 36.5951 24.4125C36.6032 26.0864 36.2726 27.7465 35.6223 29.2982C34.972 30.8499 34.0147 32.2626 32.805 33.4558C31.5953 34.649 30.157 35.5992 28.5721 36.2523C26.9872 36.9054 25.2869 37.2485 23.5682 37.262Z" fill="white"/>
</svg>
