<svg width="66" height="75" viewBox="0 0 66 75" fill="none" xmlns="http://www.w3.org/2000/svg">
<path d="M56.2464 38.7788C58.7036 33.333 58.9393 27.148 56.902 21.5688C54.8647 15.9897 50.7193 11.4675 45.3673 8.98584C40.0153 6.50416 33.8895 6.2637 28.3221 8.31664C22.7546 10.3696 18.1958 14.5499 15.637 19.9486C13.6649 23.9672 12.9168 28.4761 13.4878 32.9017L15.1876 59.8792C15.2554 60.9517 15.602 61.9848 16.1925 62.8746C16.7829 63.7644 17.5965 64.4797 18.5515 64.9485C19.5065 65.4173 20.5693 65.6231 21.6329 65.5454C22.6966 65.4676 23.7238 65.1089 24.6113 64.5054L46.9317 49.3161C51.062 46.8861 54.3263 43.1948 56.2482 38.7809" fill="#33CCCC"/>
<path d="M29.7416 41.2399C27.4151 40.1047 25.4708 38.3241 24.1546 36.1234C22.8383 33.9227 22.2093 31.4007 22.347 28.8762C22.4846 26.3518 23.3829 23.9385 24.928 21.9413C26.4732 19.9441 28.5959 18.4527 31.0278 17.6559C33.4597 16.859 36.0914 16.7925 38.5903 17.4646C41.0891 18.1367 43.3428 19.5173 45.0663 21.4319C46.7899 23.3465 47.9058 25.7089 48.273 28.2206C48.6403 30.7322 48.2425 33.2802 47.1297 35.5424C46.391 37.0444 45.3552 38.3833 44.0816 39.4826C42.8079 40.5818 41.3213 41.4199 39.7067 41.9489C38.092 42.478 36.3809 42.6877 34.6711 42.566C32.9613 42.4444 31.2862 41.9938 29.7416 41.2399Z" fill="white"/>
</svg>
