<svg width="57" height="73" viewBox="0 0 57 73" fill="none" xmlns="http://www.w3.org/2000/svg">
<path d="M53.4357 31.3575C54.472 24.9979 52.9876 18.4897 49.3051 13.2482C45.6227 8.00672 40.0401 4.45588 33.7713 3.36787C27.5026 2.27985 21.0546 3.74271 15.8298 7.43822C10.6049 11.1337 7.02563 16.7629 5.87032 23.1019C4.94019 27.8393 5.42203 32.745 7.25459 37.195L16.5704 64.8194C16.941 65.9175 17.5909 66.8966 18.4549 67.6583C19.3188 68.42 20.3663 68.9375 21.4921 69.1587C22.6179 69.3799 23.7825 69.2971 24.8686 68.9185C25.9548 68.54 26.9244 67.8792 27.68 67.0023L46.6807 44.9384C50.3031 41.2521 52.6708 36.4942 53.4382 31.3592" fill="#33CCCC"/>
<path d="M26.5166 41.3341C23.7758 40.8023 21.2526 39.4915 19.2661 37.5673C17.2796 35.6432 15.919 33.1922 15.3564 30.5242C14.7937 27.8563 15.0543 25.0914 16.1052 22.5789C17.156 20.0664 18.95 17.9193 21.2601 16.4092C23.5703 14.899 26.2929 14.0936 29.0837 14.0948C31.8745 14.096 34.6081 14.9037 36.9388 16.4158C39.2695 17.928 41.0926 20.0766 42.1776 22.59C43.2627 25.1034 43.5609 27.8688 43.0345 30.5362C42.6852 32.3074 41.9808 33.9916 40.9617 35.4929C39.9425 36.9941 38.6284 38.2827 37.0946 39.2854C35.5607 40.2881 33.8371 40.9851 32.0221 41.3366C30.2071 41.6881 28.3363 41.6873 26.5166 41.3341Z" fill="white"/>
</svg>
