<svg width="65" height="90" viewBox="0 0 65 90" fill="none" xmlns="http://www.w3.org/2000/svg">
<path d="M64.9875 33.8154C65.2249 25.1464 62.0735 16.733 56.2183 10.4048C50.3632 4.07669 42.2779 0.345554 33.7209 0.0228158C25.1638 -0.299922 16.827 2.81192 10.5233 8.68149C4.21967 14.551 0.45901 22.7036 0.0591527 31.3664C-0.328668 37.8525 1.19709 44.3089 4.44238 49.9144L21.8404 85.0826C22.5324 86.4806 23.5755 87.6695 24.8649 88.53C26.1543 89.3904 27.6446 89.8921 29.1861 89.9844C30.7275 90.0768 32.2658 89.7567 33.6464 89.0563C35.027 88.3559 36.2013 87.2999 37.0513 85.9943L58.4224 53.1453C62.5904 47.5765 64.892 40.8043 64.9911 33.8171" fill="#33CCCC"/>
<path d="M30.8791 51.9677C27.1278 51.7518 23.5264 50.4576 20.5304 48.2488C17.5345 46.04 15.2785 43.0158 14.0478 39.5586C12.8171 36.1014 12.667 32.3667 13.6163 28.8264C14.5657 25.2861 16.5719 22.0994 19.3813 19.6693C22.1907 17.2392 25.6772 15.6749 29.3997 15.1741C33.1222 14.6733 36.9137 15.2586 40.2945 16.8559C43.6754 18.4532 46.4938 20.9909 48.3935 24.1479C50.2931 27.305 51.1887 30.9396 50.9668 34.5922C50.8198 37.0174 50.1834 39.3907 49.0943 41.5765C48.0051 43.7622 46.4845 45.7176 44.6191 47.3311C42.7537 48.9446 40.5802 50.1845 38.2227 50.98C35.8652 51.7755 33.3698 52.1112 30.8791 51.9677Z" fill="white"/>
</svg>
