<?xml version="1.0" encoding="utf-8"?>
<!-- Generator: Adobe Illustrator 16.0.3, SVG Export Plug-In . SVG Version: 6.00 Build 0)  -->
<!DOCTYPE svg PUBLIC "-//W3C//DTD SVG 1.1//EN" "http://www.w3.org/Graphics/SVG/1.1/DTD/svg11.dtd">
<svg version="1.1" id="Capa_1" xmlns="http://www.w3.org/2000/svg" xmlns:xlink="http://www.w3.org/1999/xlink" x="0px" y="0px"
	 width="236.077px" height="212.868px" viewBox="0 0 236.077 212.868" enable-background="new 0 0 236.077 212.868"
	 xml:space="preserve">
<g>
	<defs>
		<rect id="SVGID_1_" x="1.163" y="1.048" width="233.752" height="210.771"/>
	</defs>
	<clipPath id="SVGID_2_">
		<use xlink:href="#SVGID_1_"  overflow="visible"/>
	</clipPath>
	<path clip-path="url(#SVGID_2_)" fill="#33CCCC" d="M145.463,16.632c0.104-3.339-0.878-6.621-2.801-9.353
		c-3.8-5.082-10.014-5.484-10.699-5.517c-5.729-0.14-11.072,2.867-13.928,7.834c-3.5-5.809-9.81-8.915-15.668-7.834
		c-6.043,1.114-9.257,6.249-9.588,6.8c-1.431,2.449-2.178,5.238-2.163,8.074c-0.029,1.149,0.095,2.297,0.37,3.413
		c2.857,10.978,21.383,28.349,26.038,32.637c4.631-3.916,25.17-21.554,28.068-32.638c0.272-1.116,0.396-2.264,0.367-3.413"/>
	<path clip-path="url(#SVGID_2_)" fill="none" stroke="#0F3150" stroke-linecap="round" stroke-linejoin="round" d="M145.463,16.632
		c0.104-3.339-0.878-6.621-2.801-9.353c-3.8-5.082-10.014-5.484-10.699-5.517c-5.729-0.14-11.072,2.867-13.928,7.834
		c-3.5-5.809-9.81-8.915-15.668-7.834c-6.043,1.114-9.257,6.249-9.588,6.8c-1.431,2.449-2.178,5.238-2.163,8.074
		c-0.029,1.149,0.095,2.297,0.37,3.413c2.857,10.978,21.383,28.349,26.038,32.637c4.631-3.916,25.17-21.554,28.068-32.638
		C145.365,18.931,145.49,17.782,145.463,16.632z"/>
	<path clip-path="url(#SVGID_2_)" fill="#DDDDDD" d="M1.663,124.329L1.663,124.329c0,16.654,13.502,30.157,30.157,30.157
		c7.785,0.003,14.095,6.314,14.095,14.1v36.442c0.002,3.479,2.824,6.298,6.303,6.297c3.477-0.002,6.295-2.82,6.297-6.297v-35.174
		c0.001-15.147-12.279-27.428-27.427-27.429h-0.001c-9.481,0-17.166-7.685-17.166-17.166c0-8.712,7.062-15.773,15.774-15.773h18.839
		V97.078h-19.62C13.864,97.078,1.663,109.279,1.663,124.329z"/>
	<path clip-path="url(#SVGID_2_)" fill="none" stroke="#052F4C" stroke-linecap="round" stroke-linejoin="round" d="M1.663,124.329
		L1.663,124.329c0,16.654,13.502,30.157,30.157,30.157c7.785,0.003,14.095,6.314,14.095,14.1v36.442
		c0.002,3.479,2.824,6.298,6.303,6.297c3.477-0.002,6.295-2.82,6.297-6.297v-35.174c0.001-15.147-12.279-27.428-27.427-27.429
		h-0.001c-9.481,0-17.166-7.685-17.166-17.166c0-8.712,7.062-15.773,15.774-15.773h18.839V97.078h-19.62
		C13.864,97.078,1.663,109.279,1.663,124.329z"/>
	<path clip-path="url(#SVGID_2_)" fill="#DDDDDD" d="M234.415,124.329L234.415,124.329c0,16.652-13.499,30.153-30.152,30.157
		c-7.787,0-14.101,6.313-14.101,14.1v36.442c0,3.479-2.82,6.3-6.3,6.3c-3.479,0-6.3-2.821-6.3-6.3v-35.174
		c-0.001-15.147,12.279-27.428,27.427-27.429h0.001c9.481,0.003,17.169-7.679,17.172-17.16v-0.006
		c0-8.712-7.062-15.773-15.773-15.773h-18.845V97.078h19.618C222.213,97.078,234.414,109.279,234.415,124.329"/>
	<path clip-path="url(#SVGID_2_)" fill="none" stroke="#052F4C" stroke-linecap="round" stroke-linejoin="round" d="
		M234.415,124.329L234.415,124.329c0,16.652-13.499,30.153-30.152,30.157c-7.787,0-14.101,6.313-14.101,14.1v36.442
		c0,3.479-2.82,6.3-6.3,6.3c-3.479,0-6.3-2.821-6.3-6.3v-35.174c-0.001-15.147,12.279-27.428,27.427-27.429h0.001
		c9.481,0.003,17.169-7.679,17.172-17.16v-0.006c0-8.712-7.062-15.773-15.773-15.773h-18.845V97.078h19.618
		C222.213,97.077,234.414,109.278,234.415,124.329L234.415,124.329z"/>
	<path clip-path="url(#SVGID_2_)" fill="#DDDDDD" d="M115.415,94.986h-24.5v-12h24.5c3.314,0,6,2.686,6,6
		S118.729,94.986,115.415,94.986"/>
	<path clip-path="url(#SVGID_2_)" fill="none" stroke="#052F4C" stroke-linecap="round" stroke-linejoin="round" d="M115.415,94.986
		h-24.5v-12h24.5c3.314,0,6,2.686,6,6S118.729,94.986,115.415,94.986z"/>
	<path clip-path="url(#SVGID_2_)" fill="#DDDDDD" d="M115.415,122.986h-24.5v-12h24.5c3.314,0,6,2.686,6,6
		C121.415,120.3,118.729,122.986,115.415,122.986"/>
	<path clip-path="url(#SVGID_2_)" fill="none" stroke="#052F4C" stroke-linecap="round" stroke-linejoin="round" d="
		M115.415,122.986h-24.5v-12h24.5c3.314,0,6,2.686,6,6C121.415,120.3,118.729,122.986,115.415,122.986z"/>
	<path clip-path="url(#SVGID_2_)" fill="#DDDDDD" d="M89.3,134.986H75.663c-17.811,0-32.25-14.439-32.25-32.25
		s14.439-32.25,32.25-32.25H89.3c3.377,0,6.115,2.738,6.115,6.115v52.27C95.415,132.248,92.677,134.986,89.3,134.986"/>
	<path clip-path="url(#SVGID_2_)" fill="none" stroke="#052F4C" stroke-linecap="round" stroke-linejoin="round" d="M89.3,134.986
		H75.663c-17.811,0-32.25-14.439-32.25-32.25s14.439-32.25,32.25-32.25H89.3c3.377,0,6.115,2.738,6.115,6.115v52.27
		C95.415,132.248,92.677,134.986,89.3,134.986z"/>
	<path clip-path="url(#SVGID_2_)" fill="#DDDDDD" d="M146.777,134.986h13.635c17.812,0,32.25-14.439,32.25-32.25
		s-14.438-32.25-32.25-32.25h-13.635c-3.377,0-6.115,2.738-6.115,6.115v52.27C140.662,132.248,143.4,134.986,146.777,134.986z"/>
	<path clip-path="url(#SVGID_2_)" fill="none" stroke="#052F4C" stroke-linecap="round" stroke-linejoin="round" d="
		M146.777,134.986h13.635c17.812,0,32.25-14.439,32.25-32.25s-14.438-32.25-32.25-32.25h-13.635c-3.377,0-6.115,2.738-6.115,6.115
		v52.27C140.662,132.248,143.4,134.986,146.777,134.986z"/>
</g>
</svg>
