<svg width="192" height="30" viewBox="0 0 192 30" fill="none" xmlns="http://www.w3.org/2000/svg">
<path d="M19.6092 10.3147L19.6091 10.3146L16.3686 0.79853L16.3685 0.798202C16.3407 0.716588 16.2859 0.641973 16.208 0.587154C16.1299 0.532164 16.0336 0.500803 15.9327 0.500015C15.8318 0.499228 15.7348 0.529085 15.6557 0.582957C15.5767 0.636664 15.5205 0.710569 15.4914 0.791875L15.4912 0.792313L12.0598 10.3358L12.0597 10.3362C11.9578 10.6187 11.7684 10.8603 11.5212 11.0298C11.2742 11.199 10.9808 11.2888 10.6817 11.289H10.6813H0.960178C0.859457 11.2891 0.763044 11.3197 0.684537 11.374C0.606273 11.4281 0.550807 11.5022 0.522305 11.5835C0.493897 11.6645 0.492621 11.7513 0.518498 11.8329L0.0419143 11.9841L0.518499 11.8329C0.544429 11.9146 0.597361 11.9899 0.673539 12.046L19.6092 10.3147ZM19.6092 10.3147C19.7074 10.6031 19.8966 10.8506 20.1459 11.0244C20.395 11.198 20.6923 11.2901 20.9956 11.29C20.9957 11.29 20.9958 11.29 20.9959 11.29H31.0472C31.1462 11.2916 31.2406 11.3225 31.3174 11.3763C31.3947 11.4304 31.4494 11.5039 31.4777 11.5845C31.5059 11.6648 31.5074 11.7508 31.4822 11.8317L31.9596 11.9803L31.4822 11.8318C31.4572 11.9119 31.4063 11.986 31.3329 12.0421L23.3378 17.8359C23.0966 18.0104 22.9143 18.2548 22.8194 18.5377C22.7245 18.8205 22.7227 19.1253 22.8142 19.4092C22.8143 19.4095 22.8144 19.4098 22.8145 19.41L25.8626 28.952L25.863 28.9532C25.8893 29.0348 25.8884 29.1218 25.8602 29.203C25.832 29.2845 25.7767 29.3588 25.6984 29.4132C25.6199 29.4678 25.5234 29.4986 25.4225 29.4988C25.3216 29.499 25.2249 29.4687 25.1461 29.4144L25.1444 29.4132L16.7948 23.7166C16.548 23.5482 16.2551 23.459 15.9566 23.459C15.6581 23.459 15.3652 23.5482 15.1184 23.7166L15.118 23.7169L6.7873 29.4156L6.7867 29.416C6.70799 29.47 6.61151 29.5002 6.51087 29.5C6.41023 29.4998 6.31394 29.4691 6.23555 29.4148C6.1574 29.3606 6.10204 29.2865 6.07359 29.2053C6.04525 29.1244 6.04399 29.0376 6.06985 28.9561L6.06999 28.9557L9.09015 19.4061L9.09022 19.4058C9.17906 19.1244 9.17644 18.8232 9.08279 18.5434C8.98922 18.2638 8.81024 18.0217 8.57324 17.8474L8.57298 17.8472L0.673778 12.0461L19.6092 10.3147Z" fill="#33CCCC" stroke="#0F3150" stroke-miterlimit="10"/>
<path d="M59.6092 10.3147L59.6091 10.3146L56.3686 0.79853L56.3685 0.798202C56.3407 0.716588 56.2859 0.641973 56.208 0.587154C56.1299 0.532164 56.0336 0.500803 55.9327 0.500015C55.8318 0.499228 55.7348 0.529085 55.6557 0.582957C55.5767 0.636664 55.5205 0.710569 55.4914 0.791875L55.4912 0.792313L52.0598 10.3358L52.0597 10.3362C51.9578 10.6187 51.7684 10.8603 51.5212 11.0298C51.2742 11.199 50.9808 11.2888 50.6817 11.289H50.6813H40.9602C40.8595 11.2891 40.763 11.3197 40.6845 11.374C40.6063 11.4281 40.5508 11.5022 40.5223 11.5835C40.4939 11.6645 40.4926 11.7513 40.5185 11.8329L40.0419 11.9841L40.5185 11.8329C40.5444 11.9146 40.5974 11.9899 40.6735 12.046L59.6092 10.3147ZM59.6092 10.3147C59.7074 10.6031 59.8966 10.8506 60.1459 11.0244C60.395 11.198 60.6923 11.2901 60.9956 11.29C60.9957 11.29 60.9958 11.29 60.9959 11.29H71.0472C71.1462 11.2916 71.2406 11.3225 71.3174 11.3763C71.3947 11.4304 71.4494 11.5039 71.4777 11.5845C71.5059 11.6648 71.5074 11.7508 71.4822 11.8317L71.9596 11.9803L71.4822 11.8318C71.4572 11.9119 71.4063 11.986 71.3329 12.0421L63.3378 17.8359C63.0966 18.0104 62.9143 18.2548 62.8194 18.5377C62.7245 18.8205 62.7227 19.1253 62.8142 19.4092C62.8143 19.4095 62.8144 19.4098 62.8145 19.41L65.8626 28.952L65.863 28.9532C65.8893 29.0348 65.8884 29.1218 65.8602 29.203C65.832 29.2845 65.7767 29.3588 65.6984 29.4132C65.6199 29.4678 65.5234 29.4986 65.4225 29.4988C65.3216 29.499 65.2249 29.4687 65.1461 29.4144L65.1444 29.4132L56.7948 23.7166C56.548 23.5482 56.2551 23.459 55.9566 23.459C55.6581 23.459 55.3652 23.5482 55.1184 23.7166L55.118 23.7169L46.7873 29.4156L46.7867 29.416C46.708 29.47 46.6115 29.5002 46.5109 29.5C46.4102 29.4998 46.3139 29.4691 46.2355 29.4148C46.1574 29.3606 46.102 29.2865 46.0736 29.2053C46.0452 29.1244 46.044 29.0376 46.0698 28.9561L46.07 28.9557L49.0901 19.4061L49.0902 19.4058C49.1791 19.1244 49.1764 18.8232 49.0828 18.5434C48.9892 18.2638 48.8102 18.0217 48.5732 17.8474L48.573 17.8472L40.6738 12.0461L59.6092 10.3147Z" fill="#33CCCC" stroke="#0F3150" stroke-miterlimit="10"/>
<path d="M99.6092 10.3147L99.6091 10.3146L96.3686 0.79853L96.3685 0.798202C96.3407 0.716588 96.2859 0.641973 96.208 0.587154C96.1299 0.532164 96.0336 0.500803 95.9327 0.500015C95.8318 0.499228 95.7348 0.529085 95.6557 0.582957C95.5767 0.636664 95.5205 0.710569 95.4914 0.791875L95.4912 0.792313L92.0598 10.3358L92.0597 10.3362C91.9578 10.6187 91.7684 10.8603 91.5212 11.0298C91.2742 11.199 90.9808 11.2888 90.6817 11.289H90.6813H80.9602C80.8595 11.2891 80.763 11.3197 80.6845 11.374C80.6063 11.4281 80.5508 11.5022 80.5223 11.5835C80.4939 11.6645 80.4926 11.7513 80.5185 11.8329L80.0419 11.9841L80.5185 11.8329C80.5444 11.9146 80.5974 11.9899 80.6735 12.046L99.6092 10.3147ZM99.6092 10.3147C99.7074 10.6031 99.8966 10.8506 100.146 11.0244C100.395 11.198 100.692 11.2901 100.996 11.29C100.996 11.29 100.996 11.29 100.996 11.29H111.047C111.146 11.2916 111.241 11.3225 111.317 11.3763C111.395 11.4304 111.449 11.5039 111.478 11.5845C111.506 11.6648 111.507 11.7508 111.482 11.8317L111.96 11.9803L111.482 11.8318C111.457 11.9119 111.406 11.986 111.333 12.0421L103.338 17.8359C103.097 18.0104 102.914 18.2548 102.819 18.5377C102.725 18.8205 102.723 19.1253 102.814 19.4092C102.814 19.4095 102.814 19.4098 102.815 19.41L105.863 28.952L105.863 28.9532C105.889 29.0348 105.888 29.1218 105.86 29.203C105.832 29.2845 105.777 29.3588 105.698 29.4132C105.62 29.4678 105.523 29.4986 105.423 29.4988C105.322 29.499 105.225 29.4687 105.146 29.4144L105.144 29.4132L96.7948 23.7166C96.548 23.5482 96.2551 23.459 95.9566 23.459C95.6581 23.459 95.3652 23.5482 95.1184 23.7166L95.118 23.7169L86.7873 29.4156L86.7867 29.416C86.708 29.47 86.6115 29.5002 86.5109 29.5C86.4102 29.4998 86.3139 29.4691 86.2355 29.4148C86.1574 29.3606 86.102 29.2865 86.0736 29.2053C86.0452 29.1244 86.044 29.0376 86.0698 28.9561L86.07 28.9557L89.0901 19.4061L89.0902 19.4058C89.1791 19.1244 89.1764 18.8232 89.0828 18.5434C88.9892 18.2638 88.8102 18.0217 88.5732 17.8474L88.573 17.8472L80.6738 12.0461L99.6092 10.3147Z" fill="#33CCCC" stroke="#0F3150" stroke-miterlimit="10"/>
<path d="M139.609 10.3147L139.609 10.3146L136.369 0.79853L136.368 0.798202C136.341 0.716588 136.286 0.641973 136.208 0.587154C136.13 0.532164 136.034 0.500803 135.933 0.500015C135.832 0.499228 135.735 0.529085 135.656 0.582957C135.577 0.636664 135.521 0.710569 135.491 0.791875L135.491 0.792313L132.06 10.3358L132.06 10.3362C131.958 10.6187 131.768 10.8603 131.521 11.0298C131.274 11.199 130.981 11.2888 130.682 11.289H130.681H120.96C120.859 11.2891 120.763 11.3197 120.685 11.374C120.606 11.4281 120.551 11.5022 120.522 11.5835C120.494 11.6645 120.493 11.7513 120.518 11.8329L120.042 11.9841L120.518 11.8329C120.544 11.9146 120.597 11.9899 120.674 12.046L139.609 10.3147ZM139.609 10.3147C139.707 10.6031 139.897 10.8506 140.146 11.0244C140.395 11.198 140.692 11.2901 140.996 11.29C140.996 11.29 140.996 11.29 140.996 11.29H151.047C151.146 11.2916 151.241 11.3225 151.317 11.3763C151.395 11.4304 151.449 11.5039 151.478 11.5845C151.506 11.6648 151.507 11.7508 151.482 11.8317L151.96 11.9803L151.482 11.8318C151.457 11.9119 151.406 11.986 151.333 12.0421L143.338 17.8359C143.097 18.0104 142.914 18.2548 142.819 18.5377C142.725 18.8205 142.723 19.1253 142.814 19.4092C142.814 19.4095 142.814 19.4098 142.815 19.41L145.863 28.952L145.863 28.9532C145.889 29.0348 145.888 29.1218 145.86 29.203C145.832 29.2845 145.777 29.3588 145.698 29.4132C145.62 29.4678 145.523 29.4986 145.423 29.4988C145.322 29.499 145.225 29.4687 145.146 29.4144L145.144 29.4132L136.795 23.7166C136.548 23.5482 136.255 23.459 135.957 23.459C135.658 23.459 135.365 23.5482 135.118 23.7166L135.118 23.7169L126.787 29.4156L126.787 29.416C126.708 29.47 126.612 29.5002 126.511 29.5C126.41 29.4998 126.314 29.4691 126.236 29.4148C126.157 29.3606 126.102 29.2865 126.074 29.2053C126.045 29.1244 126.044 29.0376 126.07 28.9561L126.07 28.9557L129.09 19.4061L129.09 19.4058C129.179 19.1244 129.176 18.8232 129.083 18.5434C128.989 18.2638 128.81 18.0217 128.573 17.8474L128.573 17.8472L120.674 12.0461L139.609 10.3147Z" fill="#33CCCC" stroke="#0F3150" stroke-miterlimit="10"/>
<path d="M179.609 10.3147L179.609 10.3146L176.369 0.79853L176.368 0.798202C176.341 0.716588 176.286 0.641973 176.208 0.587154C176.13 0.532164 176.034 0.500803 175.933 0.500015C175.832 0.499228 175.735 0.529085 175.656 0.582957C175.577 0.636664 175.521 0.710569 175.491 0.791875L175.491 0.792313L172.06 10.3358L172.06 10.3362C171.958 10.6187 171.768 10.8603 171.521 11.0298C171.274 11.199 170.981 11.2888 170.682 11.289H170.681H160.96C160.859 11.2891 160.763 11.3197 160.685 11.374C160.606 11.4281 160.551 11.5022 160.522 11.5835C160.494 11.6645 160.493 11.7513 160.518 11.8329L160.042 11.9841L160.518 11.8329C160.544 11.9146 160.597 11.9899 160.674 12.046L179.609 10.3147ZM179.609 10.3147C179.707 10.6031 179.897 10.8506 180.146 11.0244C180.395 11.198 180.692 11.2901 180.996 11.29C180.996 11.29 180.996 11.29 180.996 11.29H191.047C191.146 11.2916 191.241 11.3225 191.317 11.3763C191.395 11.4304 191.449 11.5039 191.478 11.5845C191.506 11.6648 191.507 11.7508 191.482 11.8317L191.96 11.9803L191.482 11.8318C191.457 11.9119 191.406 11.986 191.333 12.0421L183.338 17.8359C183.097 18.0104 182.914 18.2548 182.819 18.5377C182.725 18.8205 182.723 19.1253 182.814 19.4092C182.814 19.4095 182.814 19.4098 182.815 19.41L185.863 28.952L185.863 28.9532C185.889 29.0348 185.888 29.1218 185.86 29.203C185.832 29.2845 185.777 29.3588 185.698 29.4132C185.62 29.4678 185.523 29.4986 185.423 29.4988C185.322 29.499 185.225 29.4687 185.146 29.4144L185.144 29.4132L176.795 23.7166C176.548 23.5482 176.255 23.459 175.957 23.459C175.658 23.459 175.365 23.5482 175.118 23.7166L175.118 23.7169L166.787 29.4156L166.787 29.416C166.708 29.47 166.612 29.5002 166.511 29.5C166.41 29.4998 166.314 29.4691 166.236 29.4148C166.157 29.3606 166.102 29.2865 166.074 29.2053C166.045 29.1244 166.044 29.0376 166.07 28.9561L166.07 28.9557L169.09 19.4061L169.09 19.4058C169.179 19.1244 169.176 18.8232 169.083 18.5434C168.989 18.2638 168.81 18.0217 168.573 17.8474L168.573 17.8472L160.674 12.0461L179.609 10.3147Z" fill="#33CCCC" stroke="#0F3150" stroke-miterlimit="10"/>
</svg>
