<svg width="62" height="47" viewBox="0 0 62 47" fill="none" xmlns="http://www.w3.org/2000/svg">
<path d="M3.59456 45.997C2.16679 46.0034 1.00614 44.8169 1 43.3489C1 43.0768 1.03685 42.8078 1.11668 42.5484C3.42261 35.186 12.9534 29.665 24.3633 29.665C35.7733 29.665 45.301 35.1829 47.61 42.5484C48.0337 43.9532 47.2722 45.4434 45.9089 45.88C45.6572 45.9591 45.3931 46.0002 45.1321 46.0002H3.59456V45.997Z" fill="#DDDDDD" stroke="#707070"/>
<path d="M3.59456 45.997C2.16679 46.0034 1.00614 44.8169 1 43.3489C1 43.0768 1.03685 42.8078 1.11668 42.5484C3.42261 35.186 12.9534 29.665 24.3633 29.665C35.7733 29.665 45.301 35.1829 47.61 42.5484C48.0337 43.9532 47.2722 45.4434 45.9089 45.88C45.6572 45.9591 45.3931 46.0002 45.1321 46.0002H3.59456V45.997Z" stroke="#052F4C" stroke-miterlimit="10"/>
<path d="M24.3603 1C17.5284 1 11.9893 6.70766 11.9893 13.7473C11.9893 20.787 17.5284 26.4946 24.3603 26.4946C31.1921 26.4946 36.7312 20.787 36.7312 13.7473C36.7312 6.70766 31.1921 1 24.3603 1Z" fill="#DDDDDD"/>
<path d="M24.3603 1C17.5284 1 11.9893 6.70766 11.9893 13.7473C11.9893 20.787 17.5284 26.4946 24.3603 26.4946C31.1921 26.4946 36.7312 20.787 36.7312 13.7473C36.7312 6.70766 31.1921 1 24.3603 1" stroke="#707070"/>
<path d="M24.3603 26.4946C31.1926 26.4946 36.7312 20.7875 36.7312 13.7473C36.7312 6.70717 31.1926 1 24.3603 1C17.5279 1 11.9893 6.70717 11.9893 13.7473C11.9893 20.7875 17.5279 26.4946 24.3603 26.4946Z" stroke="#052F4C" stroke-miterlimit="10"/>
<path d="M60.9973 20.1829C61.0341 18.9711 60.6902 17.7752 60.0117 16.7817C59.0844 15.5952 57.7119 14.8676 56.238 14.7758C54.2176 14.7252 52.3324 15.8199 51.3252 17.6233C50.2291 15.5889 48.0337 14.4594 45.7984 14.7758C44.3952 15.0985 43.1762 15.9907 42.4147 17.2468C41.9081 18.1359 41.6471 19.1515 41.6501 20.1829C41.6409 20.6005 41.6839 21.0182 41.7791 21.4231C42.7862 25.416 49.3233 31.7311 50.966 33.2877C52.5995 31.8671 59.8459 25.4539 60.8683 21.4231C60.9635 21.0182 61.0096 20.6005 60.9973 20.1829Z" fill="#33CCCC"/>
<path d="M60.9973 20.1829C61.0341 18.9711 60.6902 17.7752 60.0117 16.7817C59.0844 15.5952 57.7119 14.8676 56.238 14.7758C54.2176 14.7252 52.3324 15.8199 51.3252 17.6233C50.2291 15.5889 48.0337 14.4594 45.7984 14.7758C44.3952 15.0985 43.1762 15.9907 42.4147 17.2468C41.9081 18.1359 41.6471 19.1515 41.6501 20.1829C41.6409 20.6005 41.6839 21.0182 41.7791 21.4231C42.7862 25.416 49.3233 31.7311 50.966 33.2877C52.5995 31.8671 59.8459 25.4539 60.8683 21.4231C60.9635 21.0182 61.0096 20.6005 60.9973 20.1829" stroke="#707070"/>
<path d="M60.9973 20.1829C61.0341 18.9711 60.6902 17.7752 60.0117 16.7817C59.0844 15.5952 57.7119 14.8676 56.238 14.7758C54.2176 14.7252 52.3324 15.8199 51.3252 17.6233C50.2291 15.5889 48.0337 14.4594 45.7984 14.7758C44.3952 15.0985 43.1762 15.9907 42.4147 17.2468C41.9081 18.1359 41.6471 19.1515 41.6501 20.1829C41.6409 20.6005 41.6839 21.0182 41.7791 21.4231C42.7862 25.416 49.3233 31.7311 50.966 33.2877C52.5995 31.8671 59.8459 25.4539 60.8683 21.4231C60.9635 21.0182 61.0065 20.6005 60.9973 20.1797V20.1829Z" stroke="#0F3150" stroke-linecap="round" stroke-linejoin="round"/>
</svg>
