<svg width="54" height="54" viewBox="0 0 54 54" fill="none" xmlns="http://www.w3.org/2000/svg">
<g clip-path="url(#clip0_950_8351)">
<path d="M37.8116 0H16.19C14.7607 0 13.3899 0.567789 12.3792 1.57846C11.3686 2.58913 10.8008 3.9599 10.8008 5.3892V48.6081C10.8008 51.5862 13.2146 54 16.19 54H37.8089C39.2384 54 40.6095 53.4323 41.6206 52.4217C42.6317 51.4111 43.2001 50.0404 43.2008 48.6108V5.3892C43.2008 3.9599 42.633 2.58913 41.6223 1.57846C40.6117 0.567789 39.2409 0 37.8116 0V0ZM27.0008 51.3C25.1378 51.3 23.6258 50.0931 23.6258 48.6C23.6258 47.1069 25.1378 45.9 27.0008 45.9C28.8638 45.9 30.3758 47.1069 30.3758 48.6C30.3758 50.0931 28.8638 51.3 27.0008 51.3ZM37.8008 43.2H16.2008V5.4H37.8008V43.2Z" fill="white"/>
</g>
<defs>
<clipPath id="clip0_950_8351">
<rect width="54" height="54" fill="white"/>
</clipPath>
</defs>
</svg>
