<svg width="54" height="54" viewBox="0 0 54 54" fill="none" xmlns="http://www.w3.org/2000/svg">
<path d="M48.3567 11.1323L37.852 12.3979C37.504 12.4401 37.3563 12.8673 37.6042 13.1151L40.7313 16.2423L28.8134 28.1602L23.445 22.7971C23.1128 22.4649 22.5802 22.4702 22.2532 22.7971L5.28857 39.7671C5.21006 39.8463 5.16602 39.9534 5.16602 40.065C5.16602 40.1766 5.21006 40.2837 5.28857 40.363L7.66162 42.7466C7.82509 42.91 8.09404 42.91 8.25752 42.7466L22.8491 28.1602L28.2122 33.5233C28.5444 33.8503 29.077 33.8503 29.404 33.5233L43.7161 19.2217L46.8433 22.3489C46.8993 22.4047 46.9699 22.4436 47.0469 22.4612C47.124 22.4789 47.2045 22.4745 47.2792 22.4487C47.3539 22.4229 47.4199 22.3766 47.4696 22.3152C47.5193 22.2537 47.5508 22.1795 47.5604 22.101L48.8261 11.5964C48.863 11.3274 48.631 11.0954 48.3567 11.1323Z" fill="white"/>
</svg>
