<svg width="54" height="54" viewBox="0 0 54 54" fill="none" xmlns="http://www.w3.org/2000/svg">
<g clip-path="url(#clip0_950_8345)">
<path d="M26.9714 0C12.0712 0.0162 0 12.0992 0 27C0.00760393 31.2293 1.00865 35.3977 2.92246 39.1692C4.83628 42.9408 7.60933 46.21 11.0182 48.7134C10.8751 47.6167 10.9031 46.4843 11.0813 45.3643C9.29976 43.8178 7.75169 42.0213 6.4854 40.0307H13.2057C13.844 39.0344 14.5017 38.0489 15.6492 37.3307C14.9769 34.5767 14.566 31.5441 14.4904 28.35H15.2172C15.4328 27.4045 15.7838 26.4951 16.2594 25.65H14.5082C14.6227 22.4451 15.0714 19.4108 15.7842 16.6698H25.65V21.4693C26.6048 21.6153 27.5219 21.9462 28.35 22.4435V16.6698H38.7153C38.8557 17.2082 38.9826 17.7606 39.1014 18.3206C40.01 18.1814 40.9327 18.1602 41.8468 18.2574C41.7422 17.726 41.6271 17.1967 41.5017 16.6698H49.0023C50.1253 19.0608 50.8486 21.6198 51.1434 24.2449C51.4566 26.9714 51.4625 30.1714 50.4706 33.3013C50.1488 34.497 49.7361 35.6665 49.2361 36.7994C49.8452 37.4404 50.5829 38.0462 51.3243 38.6645C53.0775 35.0255 53.9919 31.0394 54 27C54 12.0884 41.9116 0 27 0H26.9714ZM28.35 3.06828C31.1947 3.55212 33.9131 5.89572 36.0547 9.78426C36.7448 11.0376 37.3615 12.4448 37.895 13.9693H28.35V3.06828ZM25.65 3.17466V13.9693H16.605C17.1385 12.4448 17.7552 11.0376 18.4453 9.78426C20.4606 6.12414 22.9883 3.83508 25.65 3.1752V3.17466ZM19.4292 3.90528C18.1742 5.17536 17.0478 6.72408 16.0796 8.48178C15.1724 10.1288 14.3921 11.974 13.7511 13.9693H6.4854C9.4743 9.26802 14.0319 5.66946 19.4292 3.90528ZM35.3106 4.1553C40.3855 5.99832 44.6634 9.48402 47.5146 13.9693H40.7457C40.1063 11.974 39.3271 10.1288 38.4199 8.48178C37.5149 6.83748 36.4689 5.37732 35.3111 4.1553H35.3106ZM4.99878 16.6698H12.9951C12.3228 19.4573 11.9108 22.4802 11.8055 25.6505H2.73888C2.9066 22.5396 3.67378 19.4903 4.99824 16.6703L4.99878 16.6698ZM2.73888 28.35H11.7904C11.86 31.5122 12.2332 34.5352 12.8671 37.3302H4.99824C3.67378 34.5103 2.9066 31.461 2.73888 28.35Z" fill="white"/>
<path d="M41.0392 20.395C36.5653 20.395 32.9392 24.0217 32.9392 28.495C32.9392 32.9684 36.5653 36.595 41.0392 36.595C45.512 36.595 49.1392 32.9684 49.1392 28.495C49.1392 24.0217 45.512 20.395 41.0392 20.395ZM41.0392 37.7954C32.0914 37.7954 28.0792 41.8082 28.0792 50.7554V51.8354C28.1197 53.963 29.0604 54.0257 31.0492 53.9954H51.0292C53.5645 53.9933 54.0165 53.9981 53.9992 51.8354V50.7554C53.9992 41.8082 49.9859 37.7954 41.0392 37.7954ZM23.7592 23.4304C20.0942 23.4304 17.122 26.4025 17.122 30.068C17.122 33.733 20.0942 36.7041 23.7592 36.7041C27.4242 36.7041 30.3958 33.733 30.3958 30.0675C30.3958 26.4025 27.4242 23.4309 23.7592 23.4309V23.4304ZM23.7592 37.6869C16.4287 37.6869 13.1406 40.9755 13.1406 48.3055V49.1905C13.1741 50.9336 13.9447 50.9849 15.5739 50.9601H25.9003C25.6368 46.5926 26.9268 41.954 30.1398 39.005C28.5133 38.1162 26.4003 37.6869 23.7592 37.6869Z" fill="white"/>
</g>
<defs>
<clipPath id="clip0_950_8345">
<rect width="54" height="54" fill="white"/>
</clipPath>
</defs>
</svg>
