<svg width="54" height="54" viewBox="0 0 54 54" fill="none" xmlns="http://www.w3.org/2000/svg">
<path d="M11.25 47.25L6.75 20.25H47.25L42.75 47.25H11.25ZM15.0188 42.75H38.9813L41.85 24.75H12.15L15.0188 42.75ZM22.5 33.75H31.5C32.1375 33.75 32.6723 33.534 33.1042 33.102C33.5347 32.6715 33.75 32.1375 33.75 31.5C33.75 30.8625 33.5347 30.3277 33.1042 29.8958C32.6723 29.4653 32.1375 29.25 31.5 29.25H22.5C21.8625 29.25 21.3285 29.4653 20.898 29.8958C20.466 30.3277 20.25 30.8625 20.25 31.5C20.25 32.1375 20.466 32.6715 20.898 33.102C21.3285 33.534 21.8625 33.75 22.5 33.75ZM13.5 18C12.8625 18 12.3278 17.7847 11.8958 17.3542C11.4653 16.9222 11.25 16.3875 11.25 15.75C11.25 15.1125 11.4653 14.5778 11.8958 14.1458C12.3278 13.7153 12.8625 13.5 13.5 13.5H40.5C41.1375 13.5 41.6715 13.7153 42.102 14.1458C42.534 14.5778 42.75 15.1125 42.75 15.75C42.75 16.3875 42.534 16.9222 42.102 17.3542C41.6715 17.7847 41.1375 18 40.5 18H13.5ZM18 11.25C17.3625 11.25 16.8278 11.034 16.3958 10.602C15.9653 10.1715 15.75 9.6375 15.75 9C15.75 8.3625 15.9653 7.82775 16.3958 7.39575C16.8278 6.96525 17.3625 6.75 18 6.75H36C36.6375 6.75 37.1715 6.96525 37.602 7.39575C38.034 7.82775 38.25 8.3625 38.25 9C38.25 9.6375 38.034 10.1715 37.602 10.602C37.1715 11.034 36.6375 11.25 36 11.25H18ZM15.0188 42.75H38.9813H15.0188Z" fill="white"/>
</svg>
