<svg width="55" height="69" viewBox="0 0 55 69" fill="none" xmlns="http://www.w3.org/2000/svg">
<path d="M34.25 2V16.3333C34.25 17.2837 34.6275 18.1951 35.2995 18.8671C35.9715 19.5391 36.883 19.9167 37.8333 19.9167H52.1667" stroke="white" stroke-width="4" stroke-linecap="round" stroke-linejoin="round"/>
<path d="M30.6667 52.1667H37.8333M45 66.5H9.16667C7.26595 66.5 5.44308 65.7449 4.09907 64.4009C2.75506 63.0569 2 61.2341 2 59.3333V9.16667C2 7.26595 2.75506 5.44308 4.09907 4.09907C5.44308 2.75506 7.26595 2 9.16667 2H34.25L52.1667 19.9167V59.3333C52.1667 61.2341 51.4116 63.0569 50.0676 64.4009C48.7236 65.7449 46.9007 66.5 45 66.5ZM16.3333 16.3333H19.9167H16.3333ZM16.3333 37.8333H37.8333H16.3333Z" stroke="white" stroke-width="4" stroke-linecap="round" stroke-linejoin="round"/>
</svg>
