<svg width="54" height="54" viewBox="0 0 54 54" fill="none" xmlns="http://www.w3.org/2000/svg">
<path d="M24.3008 27C24.3008 26.2839 24.5852 25.5971 25.0916 25.0908C25.5979 24.5845 26.2847 24.3 27.0008 24.3C27.7169 24.3 28.4036 24.5845 28.91 25.0908C29.4163 25.5971 29.7008 26.2839 29.7008 27V37.8C29.7008 38.5161 29.4163 39.2028 28.91 39.7092C28.4036 40.2155 27.7169 40.5 27.0008 40.5C26.2847 40.5 25.5979 40.2155 25.0916 39.7092C24.5852 39.2028 24.3008 38.5161 24.3008 37.8V27Z" fill="white"/>
<path d="M27.0008 21.6C28.492 21.6 29.7008 20.3912 29.7008 18.9C29.7008 17.4088 28.492 16.2 27.0008 16.2C25.5096 16.2 24.3008 17.4088 24.3008 18.9C24.3008 20.3912 25.5096 21.6 27.0008 21.6Z" fill="white"/>
<path fill-rule="evenodd" clip-rule="evenodd" d="M5.40039 27C5.40039 32.7287 7.6761 38.2227 11.7269 42.2735C15.7777 46.3243 21.2717 48.6 27.0004 48.6C32.7291 48.6 38.2231 46.3243 42.2739 42.2735C46.3247 38.2227 48.6004 32.7287 48.6004 27C48.6004 21.2713 46.3247 15.7773 42.2739 11.7265C38.2231 7.6757 32.7291 5.39999 27.0004 5.39999C21.2717 5.39999 15.7777 7.6757 11.7269 11.7265C7.6761 15.7773 5.40039 21.2713 5.40039 27ZM43.2004 27C43.2004 31.2965 41.4936 35.417 38.4555 38.4551C35.4174 41.4932 31.2969 43.2 27.0004 43.2C22.7039 43.2 18.5834 41.4932 15.5453 38.4551C12.5072 35.417 10.8004 31.2965 10.8004 27C10.8004 22.7035 12.5072 18.583 15.5453 15.5449C18.5834 12.5068 22.7039 10.8 27.0004 10.8C31.2969 10.8 35.4174 12.5068 38.4555 15.5449C41.4936 18.583 43.2004 22.7035 43.2004 27Z" fill="white"/>
</svg>
