<svg width="54" height="54" viewBox="0 0 54 54" fill="none" xmlns="http://www.w3.org/2000/svg">
<path d="M49.9133 26.6308L28.192 4.92537C28.0356 4.76867 27.8498 4.64434 27.6453 4.55952C27.4408 4.47469 27.2216 4.43103 27.0002 4.43103C26.7788 4.43103 26.5596 4.47469 26.3551 4.55952C26.1506 4.64434 25.9648 4.76867 25.8084 4.92537L4.08711 26.6308C3.4543 27.2637 3.0957 28.1232 3.0957 29.0197C3.0957 30.8812 4.60918 32.3947 6.4707 32.3947H8.75938V47.8828C8.75938 48.8162 9.51348 49.5703 10.4469 49.5703H23.6252V37.7578H29.5314V49.5703H43.5535C44.4869 49.5703 45.241 48.8162 45.241 47.8828V32.3947H47.5297C48.4262 32.3947 49.2857 32.0414 49.9186 31.4033C51.2316 30.0849 51.2316 27.9492 49.9133 26.6308Z" fill="white"/>
</svg>
