<svg width="54" height="54" viewBox="0 0 54 54" fill="none" xmlns="http://www.w3.org/2000/svg">
<path d="M49.0842 10.4428C48.8819 10.2118 48.6342 10.0251 48.3566 9.89434C48.0789 9.76354 47.7772 9.69146 47.4704 9.68261C42.7038 9.55799 36.6725 4.46122 32.6848 2.46114C30.2215 1.22953 28.5953 0.417452 27.3741 0.203529C27.1261 0.167395 26.8742 0.168095 26.6264 0.205605C25.4052 0.419528 23.7789 1.23161 21.3178 2.46322C17.3301 4.46122 11.2987 9.55799 6.53216 9.68261C6.22512 9.69192 5.92328 9.7642 5.64533 9.89495C5.36738 10.0257 5.11924 10.2122 4.91631 10.4428C4.49568 10.9187 4.27865 11.5406 4.31193 12.1749C5.33585 32.9919 12.8024 45.8751 25.9036 53.3624C26.2442 53.5555 26.6222 53.6552 26.9982 53.6552C27.3741 53.6552 27.7521 53.5555 28.0948 53.3624C41.196 45.8751 48.6605 32.9919 49.6865 12.1749C49.7217 11.5407 49.5052 10.9183 49.0842 10.4428ZM38.6663 18.63L27.6108 34.9442C27.2142 35.5299 26.5911 35.9183 25.9742 35.9183C25.3553 35.9183 24.6678 35.5798 24.2338 35.1457L16.4412 27.351C16.1867 27.0956 16.0439 26.7498 16.0439 26.3894C16.0439 26.0289 16.1867 25.6831 16.4412 25.4278L18.3665 23.4983C18.6224 23.2449 18.9679 23.1027 19.3281 23.1027C19.6882 23.1027 20.0338 23.2449 20.2897 23.4983L25.3574 28.566L34.1615 15.5707C34.3652 15.2733 34.6783 15.0686 35.0324 15.0013C35.3865 14.934 35.7528 15.0095 36.0515 15.2114L38.3049 16.74C38.6026 16.9434 38.8078 17.2563 38.8755 17.6104C38.9432 17.9646 38.868 18.3311 38.6663 18.63Z" fill="white"/>
</svg>
