<svg width="137" height="90" viewBox="0 0 137 90" fill="none" xmlns="http://www.w3.org/2000/svg">
<path fill-rule="evenodd" clip-rule="evenodd" d="M83.8878 0.604882C83.7332 0.628351 83.6064 0.690152 83.6064 0.742566C83.6064 0.794979 83.491 0.838004 83.3501 0.838004C83.2096 0.838004 83.0942 0.878683 83.0942 0.928358C83.0942 0.978425 82.8877 1.04961 82.6357 1.08755C82.3834 1.1251 82.1502 1.19942 82.1176 1.25223C82.0847 1.30503 81.9453 1.34845 81.8079 1.34845C81.6706 1.34845 81.5579 1.38991 81.5579 1.44076C81.5579 1.49161 81.3275 1.56475 81.0461 1.60347C80.7643 1.6422 80.5084 1.71534 80.4766 1.76619C80.4452 1.81704 80.307 1.8585 80.1693 1.8585C80.0319 1.8585 79.9192 1.90465 79.9192 1.96059C79.9192 2.01691 79.8042 2.06268 79.6633 2.06268C79.5224 2.06268 79.4074 2.09866 79.4074 2.14286C79.4074 2.18706 79.1425 2.27976 78.8183 2.34939C78.4945 2.41901 78.1027 2.5031 77.9477 2.53635C77.7931 2.56921 77.6663 2.63531 77.6663 2.68303C77.6663 2.73114 77.4359 2.80077 77.1541 2.83792C76.8726 2.87508 76.6422 2.94549 76.6422 2.99438C76.6422 3.04328 76.5269 3.08317 76.3859 3.08317C76.2454 3.08317 76.13 3.12424 76.13 3.17392C76.13 3.22359 75.9236 3.29517 75.6716 3.33272C75.4192 3.37066 75.1861 3.44459 75.1535 3.49739C75.1205 3.5502 74.9812 3.59361 74.8438 3.59361C74.7064 3.59361 74.5938 3.63429 74.5938 3.68397C74.5938 3.73404 74.3979 3.80405 74.1585 3.84004C73.6867 3.91083 73.0014 4.12596 72.8888 4.23822C72.8503 4.27655 72.711 4.30823 72.5799 4.30823C72.4484 4.30823 72.3408 4.3497 72.3408 4.40054C72.3408 4.45139 72.1104 4.52454 71.8286 4.56326C71.5472 4.60198 71.3164 4.67513 71.3164 4.72598C71.3164 4.77683 71.2014 4.81829 71.0605 4.81829C70.9196 4.81829 70.8046 4.85818 70.8046 4.90708C70.8046 4.95636 70.5762 5.02638 70.2967 5.06314C70.0172 5.1003 69.7613 5.17501 69.7272 5.22938C69.6934 5.28414 69.5533 5.32873 69.4159 5.32873C69.2786 5.32873 69.1659 5.37449 69.1659 5.43082C69.1659 5.48675 69.0623 5.53252 68.9355 5.53212C68.7236 5.53173 67.97 5.74804 67.4762 5.95104C67.3635 5.9972 67.0178 6.10906 66.7081 6.19942C66.398 6.29016 66.0648 6.40672 65.967 6.45874C65.8689 6.51077 65.6962 6.5534 65.5828 6.5534C65.4693 6.5534 65.3767 6.59486 65.3767 6.64571C65.3767 6.69656 65.1463 6.77009 64.8645 6.80843C64.5831 6.84715 64.3523 6.92029 64.3523 6.97114C64.3523 7.02199 64.2373 7.06384 64.0964 7.06384C63.9555 7.06384 63.8405 7.10335 63.8405 7.15146C63.8405 7.19996 63.6018 7.26763 63.3106 7.30205C63.0194 7.33647 62.7336 7.41157 62.6755 7.46907C62.6178 7.52696 62.4644 7.5739 62.3348 7.5739C62.2053 7.5739 62.0993 7.61457 62.0993 7.66425C62.0993 7.71432 61.8929 7.7859 61.6409 7.82345C61.3889 7.861 61.1558 7.93531 61.1228 7.98812C61.0898 8.04092 60.9505 8.08434 60.8131 8.08434C60.6757 8.08434 60.5631 8.1301 60.5631 8.18643C60.5631 8.24236 60.4481 8.28852 60.3072 8.28852C60.1663 8.28852 60.0513 8.3292 60.0513 8.37887C60.0513 8.42855 59.7977 8.50052 59.4876 8.53924C59.178 8.57757 58.9244 8.65189 58.9244 8.70391C58.9244 8.75593 58.8094 8.79857 58.6685 8.79857C58.5276 8.79857 58.4126 8.83925 58.4126 8.88892C58.4126 8.9386 58.1598 9.01057 57.8509 9.04929C57.542 9.08762 57.2626 9.16194 57.2304 9.21396C57.1978 9.26638 57.0589 9.30901 56.9215 9.30901C56.7841 9.30901 56.6715 9.34891 56.6715 9.39819C56.6715 9.47877 55.9076 9.66613 55.724 9.63014C55.682 9.62193 55.6474 9.66104 55.6474 9.71737C55.6474 9.7733 55.5776 9.81946 55.4924 9.81946C55.4072 9.81946 55.2573 9.86248 55.1595 9.91529C55.0069 9.99743 54.5162 10.1418 54.2988 10.1684C54.2615 10.1727 54.196 10.211 54.154 10.2532C54.1116 10.2951 53.9695 10.3295 53.838 10.3295C53.7065 10.3295 53.599 10.3757 53.599 10.4316C53.599 10.4879 53.4636 10.5337 53.2979 10.5337C53.1323 10.5337 52.971 10.5751 52.9392 10.6264C52.9078 10.6772 52.6515 10.7504 52.37 10.7887C52.0882 10.8274 51.8578 10.9006 51.8578 10.9514C51.8578 11.0023 51.7428 11.0441 51.6019 11.0441C51.461 11.0441 51.346 11.0856 51.346 11.1364C51.346 11.1873 51.1156 11.2604 50.8338 11.2992C50.5524 11.3379 50.322 11.411 50.322 11.4619C50.322 11.5127 50.2066 11.5542 50.0657 11.5542C49.9248 11.5542 49.8098 11.5949 49.8098 11.6449C49.8098 11.6946 49.5955 11.7674 49.3337 11.8065C49.0723 11.8456 48.761 11.9269 48.6425 11.9872C48.1464 12.2391 48.0596 12.2688 47.8139 12.2688C47.6726 12.2688 47.5568 12.3095 47.5568 12.3592C47.5568 12.4088 47.3378 12.4824 47.0701 12.5223C46.448 12.615 46.2545 12.9486 46.5206 13.4692C46.7663 13.9507 47.147 15.1367 47.147 15.4206C47.147 15.5395 47.193 15.6366 47.2495 15.6366C47.3056 15.6366 47.3519 15.7488 47.3519 15.8857C47.3519 16.023 47.3935 16.1607 47.4446 16.192C47.4956 16.2237 47.569 16.4787 47.6078 16.7595C47.6467 17.04 47.7201 17.2696 47.7711 17.2696C47.8221 17.2696 47.8638 17.3846 47.8638 17.525C47.8638 17.665 47.9058 17.78 47.9568 17.78C48.0078 17.78 48.0812 18.0096 48.1201 18.2901C48.1585 18.5709 48.2319 18.8005 48.2833 18.8005C48.3344 18.8005 48.376 18.9155 48.376 19.0555C48.376 19.196 48.4176 19.311 48.4686 19.311C48.5196 19.311 48.5934 19.5406 48.6319 19.821C48.6707 20.1019 48.7441 20.3315 48.7952 20.3315C48.8462 20.3315 48.8882 20.4664 48.8882 20.6315C48.8882 20.7965 48.9286 20.9569 48.9785 20.9874C49.0283 21.0183 49.1001 21.2495 49.1382 21.5014C49.1763 21.7537 49.2505 21.9864 49.3034 22.0192C49.3568 22.0517 49.4 22.1683 49.4 22.2782C49.4 22.3877 49.4463 22.5688 49.5024 22.6803C49.559 22.7917 49.6453 22.965 49.6948 23.0655C49.7442 23.1657 49.8172 23.441 49.8573 23.6773C49.8973 23.9136 49.9719 24.1326 50.0237 24.1643C50.0751 24.196 50.1171 24.334 50.1171 24.4709C50.1171 24.6078 50.1599 24.7201 50.2121 24.7201C50.2643 24.7201 50.3389 24.9728 50.3773 25.2814C50.4162 25.59 50.4888 25.8427 50.5386 25.8427C50.5881 25.8427 50.6289 25.9804 50.6289 26.1489C50.6289 26.3171 50.6725 26.4552 50.7251 26.4552C50.7781 26.4552 50.8526 26.6621 50.8907 26.9156C50.9288 27.1687 51.0006 27.4014 51.0505 27.4319C51.1003 27.4624 51.1411 27.5997 51.1411 27.737C51.1411 27.8739 51.187 27.9858 51.2436 27.9858C51.2997 27.9858 51.346 28.098 51.346 28.2349C51.346 28.3722 51.3892 28.5111 51.4426 28.5435C51.4956 28.5764 51.5697 28.8087 51.6078 29.0598C51.6455 29.3113 51.7173 29.5167 51.7672 29.5167C51.817 29.5167 51.8578 29.6317 51.8578 29.7721C51.8578 29.9121 51.9006 30.0271 51.9532 30.0271C52.0054 30.0271 52.08 30.2802 52.1188 30.59C52.1573 30.8994 52.2299 31.1775 52.2798 31.208C52.3292 31.2389 52.37 31.3762 52.37 31.5131C52.37 31.65 52.4164 31.7622 52.4725 31.7622C52.529 31.7622 52.5749 31.8522 52.5749 31.9625C52.5749 32.1784 52.8332 33.0393 52.9753 33.2971C53.0228 33.3832 53.0946 33.6472 53.1346 33.8834C53.1743 34.1193 53.2492 34.3383 53.3007 34.37C53.3521 34.4017 53.3941 34.5398 53.3941 34.6771C53.3941 34.814 53.4404 34.9258 53.4965 34.9258C53.553 34.9258 53.599 35.0408 53.599 35.1812C53.599 35.3217 53.6417 35.4363 53.6939 35.4363C53.7465 35.4363 53.8207 35.6874 53.8592 35.9944C53.8977 36.3015 53.9938 36.6066 54.0731 36.6719C54.2407 36.8104 55.3707 36.7133 55.4253 36.5553C55.4441 36.5014 55.594 36.4568 55.7581 36.4568C55.9226 36.4568 56.0568 36.4153 56.0568 36.3644C56.0568 36.3136 56.2876 36.2405 56.569 36.2017C56.8508 36.163 57.0812 36.0899 57.0812 36.039C57.0812 35.9882 57.2194 35.9467 57.3882 35.9467C57.5573 35.9467 57.6955 35.9049 57.6955 35.854C57.6955 35.8032 57.9259 35.73 58.2077 35.6913C58.4891 35.653 58.7454 35.5798 58.7768 35.529C58.8082 35.4777 58.9468 35.4363 59.0841 35.4363C59.2215 35.4363 59.3342 35.3956 59.3342 35.3459C59.3342 35.2962 59.5406 35.2247 59.7926 35.1867C60.045 35.1492 60.2781 35.0752 60.3107 35.022C60.3437 34.9692 60.483 34.9258 60.6204 34.9258C60.7578 34.9258 60.8704 34.8801 60.8704 34.8241C60.8704 34.7678 60.9858 34.722 61.1263 34.722C61.2672 34.722 61.3826 34.6802 61.3826 34.6293C61.3826 34.5785 61.6225 34.5042 61.916 34.4639C62.2096 34.4236 62.5323 34.3504 62.6331 34.3012C62.7336 34.2519 62.9016 34.1693 63.006 34.1181C63.1104 34.0665 63.4099 33.9925 63.6717 33.9534C63.9335 33.9143 64.1478 33.8416 64.1478 33.7919C64.1478 33.7418 64.2628 33.7011 64.4037 33.7011C64.5446 33.7011 64.6596 33.6597 64.6596 33.6088C64.6596 33.558 64.89 33.4848 65.1718 33.4461C65.4533 33.4074 65.684 33.3343 65.684 33.2834C65.684 33.2326 65.799 33.1911 65.94 33.1911C66.0809 33.1911 66.1959 33.1492 66.1959 33.0984C66.1959 33.0475 66.4263 32.9744 66.7077 32.9357C66.9895 32.8974 67.2458 32.8242 67.2772 32.7734C67.3086 32.7221 67.4444 32.6807 67.5786 32.6807C67.7125 32.6807 67.851 32.6349 67.8856 32.5786C67.9205 32.5226 68.0614 32.4765 68.1992 32.4765C68.3366 32.4765 68.4492 32.4358 68.4492 32.3861C68.4492 32.3364 68.6631 32.2637 68.9249 32.2246C69.1867 32.1855 69.4862 32.1111 69.5906 32.0599C69.695 32.0083 69.8657 31.9242 69.9701 31.8725C70.0745 31.8213 70.374 31.747 70.6358 31.7079C70.8976 31.6688 71.1119 31.596 71.1119 31.5463C71.1119 31.4967 71.2269 31.456 71.3678 31.456C71.5087 31.456 71.6237 31.4153 71.6237 31.3656C71.6237 31.3156 71.8302 31.2444 72.0822 31.2064C72.3346 31.1689 72.5677 31.0946 72.6003 31.0418C72.6333 30.989 72.8185 30.9455 73.0124 30.9455C73.2063 30.9455 73.3649 30.8998 73.3649 30.8435C73.3649 30.7875 73.4544 30.7414 73.5635 30.7414C73.673 30.7414 73.7884 30.6999 73.8198 30.6491C73.8512 30.5982 74.1075 30.5251 74.3893 30.4863C74.6707 30.4476 74.9011 30.3745 74.9011 30.3236C74.9011 30.2728 75.0161 30.2313 75.157 30.2313C75.2979 30.2313 75.4133 30.1895 75.4133 30.1386C75.4133 30.0878 75.6437 30.0146 75.9252 29.9763C76.207 29.9376 76.4374 29.8644 76.4374 29.8136C76.4374 29.7627 76.5755 29.7209 76.7447 29.7209C76.9135 29.7209 77.0516 29.6841 77.0516 29.6391C77.0516 29.5664 77.5481 29.4224 78.4089 29.2456C78.5635 29.2136 78.6903 29.1521 78.6903 29.1087C78.6903 29.0653 78.9046 28.9976 79.1664 28.9585C79.6311 28.8889 79.7297 28.8564 80.1995 28.6143C80.3255 28.5494 80.5213 28.4962 80.6348 28.4962C80.7482 28.4962 80.8412 28.4547 80.8412 28.4039C80.8412 28.353 81.0716 28.2795 81.353 28.2412C81.6348 28.2024 81.8652 28.1293 81.8652 28.0785C81.8652 28.0276 81.9803 27.9858 82.1212 27.9858C82.2621 27.9858 82.3775 27.9431 82.3775 27.8911C82.3775 27.8391 82.6314 27.7648 82.9419 27.726C83.2523 27.6877 83.5318 27.6153 83.5624 27.5657C83.593 27.5164 83.7308 27.4757 83.8682 27.4757C84.0059 27.4757 84.1182 27.4401 84.1182 27.3967C84.1182 27.3235 84.7085 27.137 85.373 27.0001C85.5277 26.9684 85.6544 26.9015 85.6544 26.8518C85.6544 26.8018 85.7698 26.7611 85.9104 26.7611C86.0513 26.7611 86.1667 26.7196 86.1667 26.6688C86.1667 26.6179 86.397 26.5448 86.6785 26.5061C86.9603 26.4673 87.1907 26.3942 87.1907 26.3433C87.1907 26.2925 87.3288 26.251 87.498 26.251C87.6668 26.251 87.8053 26.2084 87.8053 26.1564C87.8053 26.104 88.0585 26.03 88.3686 25.9913C88.6783 25.9526 88.9318 25.8806 88.9318 25.8309C88.9318 25.7813 89.0468 25.7406 89.1877 25.7406C89.3286 25.7406 89.4436 25.6991 89.4436 25.6483C89.4436 25.5974 89.674 25.5239 89.9558 25.4856C90.2373 25.4468 90.4936 25.3737 90.525 25.3228C90.5568 25.272 90.6949 25.2301 90.8323 25.2301C90.9701 25.2301 91.0823 25.1844 91.0823 25.1284C91.0823 25.0721 91.1632 25.0264 91.2617 25.0267C91.6691 25.0279 92.4137 24.6802 92.4137 24.4889C92.4137 24.2887 92.0169 23.7035 91.622 23.3217C91.4941 23.1978 91.3896 23.0229 91.3896 22.933C91.3896 22.8426 91.3437 22.7972 91.2872 22.832C91.2311 22.8665 91.1848 22.8485 91.1848 22.7914C91.1848 22.7346 91.0776 22.5809 90.9461 22.4503C90.815 22.3196 90.6639 22.135 90.6109 22.04C90.5069 21.8553 89.9421 21.1904 89.3157 20.5161C89.1045 20.2888 88.9318 20.0643 88.9318 20.0178C88.9318 19.9708 88.8243 19.8253 88.6932 19.6947C88.5621 19.564 88.4121 19.3821 88.3603 19.2906C88.3085 19.1991 88.0703 18.9163 87.8309 18.662C87.5914 18.4082 87.3956 18.1676 87.3956 18.1281C87.3956 18.0882 87.2343 17.8997 87.0372 17.7088C86.8398 17.518 86.6785 17.32 86.6785 17.2688C86.6785 17.2176 86.4944 16.9883 86.2691 16.7595C86.0438 16.5303 85.8593 16.2929 85.8593 16.2315C85.8593 16.1701 85.698 15.9686 85.501 15.7832C85.3035 15.5978 85.1426 15.4132 85.1426 15.3733C85.1426 15.333 84.9813 15.1441 84.7839 14.9532C84.5868 14.7623 84.4247 14.5742 84.424 14.5347C84.4232 14.4952 84.2395 14.2562 84.0158 14.0039C83.6178 13.5541 83.4623 12.9819 83.6982 12.8364C83.7489 12.8051 83.8242 11.9528 83.865 10.9424C83.9062 9.93171 83.9796 9.10484 84.0291 9.10484C84.0782 9.10484 84.1182 8.69413 84.1182 8.1923C84.1182 7.69046 84.1594 7.25472 84.2096 7.22343C84.2599 7.19253 84.3345 6.31754 84.3757 5.27827C84.4169 4.23939 84.4911 3.38944 84.5405 3.38944C84.59 3.38944 84.6304 2.99908 84.6304 2.52188C84.6304 2.01183 84.6724 1.65432 84.7328 1.65432C84.789 1.65432 84.8353 1.40203 84.8353 1.09303V0.531738L84.5025 0.546993C84.3192 0.555599 84.0428 0.581414 83.8878 0.604882ZM80.0217 57.8871C79.8643 57.9865 79.7171 81.1113 79.8686 81.9499C79.9122 82.1909 79.9836 82.2816 80.1288 82.2816C80.2387 82.2816 80.329 82.3278 80.329 82.3837C80.329 82.4487 81.1654 82.4858 82.6334 82.4858C84.1013 82.4858 84.9377 82.4487 84.9377 82.3837C84.9377 82.3278 85.0225 82.2816 85.1265 82.2816C85.6823 82.2816 85.6544 82.9251 85.6544 70.1276V58.3467L85.3942 58.0671L85.134 57.7874L82.6546 57.789C81.2718 57.7898 80.1076 57.8332 80.0217 57.8871ZM58.9452 60.2571C58.7391 60.4624 58.7698 82.2816 58.9758 82.2816C59.0602 82.2816 59.1293 82.3278 59.1293 82.3837C59.1293 82.4494 60.1023 82.4858 61.8434 82.4858C63.5846 82.4858 64.5572 82.4494 64.5572 82.3837C64.5572 82.3278 64.6262 82.2816 64.711 82.2816C64.8445 82.2816 64.8645 81.8111 64.8645 78.6585V75.0353H68.3538C72.0818 75.0353 72.136 75.0283 72.136 74.5323C72.136 74.4161 72.1819 74.3211 72.2384 74.3211C72.3032 74.3211 72.3408 73.5896 72.3408 72.3309C72.3408 71.0722 72.3032 70.3408 72.2384 70.3408C72.1819 70.3408 72.136 70.2915 72.136 70.2313C72.136 69.8515 71.9389 69.8303 68.3538 69.8303H64.8645V67.6873V65.5438H69.4779H74.091L74.3426 65.2935L74.5938 65.0427V62.7346C74.5938 60.87 74.5655 60.3983 74.4474 60.2806C74.2484 60.0823 59.1434 60.0596 58.9452 60.2571ZM99.5827 62.9924C99.5827 63.0487 99.3319 63.0945 99.0253 63.0945C98.7192 63.0945 98.4397 63.1406 98.4048 63.1965C98.3703 63.2529 98.209 63.2986 98.0465 63.2986C97.8844 63.2986 97.7266 63.3385 97.6964 63.3874C97.6661 63.4359 97.4561 63.5055 97.2297 63.5415C97.0028 63.5775 96.8175 63.6526 96.8175 63.7082C96.8175 63.7637 96.7025 63.8091 96.5616 63.8091C96.4207 63.8091 96.3049 63.8435 96.3045 63.8853C96.3041 63.9276 96.0965 64.0528 95.8437 64.1635C95.5906 64.2741 95.3837 64.3954 95.3837 64.4322C95.3837 64.4693 95.3033 64.5264 95.2047 64.5597C95.1058 64.5925 94.9335 64.6782 94.8209 64.7502C94.4272 65.0013 92.8235 66.5788 92.8235 66.7145C92.8235 66.7493 92.7081 66.8929 92.5675 67.0329C92.4266 67.1733 92.3112 67.3552 92.3112 67.4365C92.3112 67.5183 92.2653 67.5852 92.2088 67.5852C92.1527 67.5852 92.1068 67.6732 92.1068 67.7808C92.1068 67.8883 92.0718 67.9916 92.0298 68.0104C91.9089 68.0639 91.5945 68.671 91.5945 68.8509C91.5945 68.9405 91.5482 69.014 91.4921 69.014C91.4356 69.014 91.3896 69.1196 91.3896 69.2487C91.3896 69.3778 91.3422 69.5307 91.2845 69.5882C91.2268 69.6457 91.151 69.9305 91.1165 70.2211C91.0823 70.5113 91.014 70.7491 90.9658 70.7491C90.9171 70.7491 90.8774 71.0703 90.8774 71.4634C90.8774 71.8717 90.8339 72.178 90.775 72.178C90.7165 72.178 90.6729 72.4839 90.6729 72.8922C90.6729 73.3006 90.7165 73.6068 90.775 73.6068C90.8339 73.6068 90.8774 73.9127 90.8774 74.3211C90.8774 74.7142 90.9179 75.0353 90.9669 75.0353C91.016 75.0353 91.0874 75.3111 91.1255 75.6478C91.1636 75.9846 91.2389 76.2604 91.2923 76.2604C91.3457 76.2604 91.3896 76.375 91.3896 76.5154C91.3896 76.6558 91.4356 76.7704 91.4921 76.7704C91.5482 76.7704 91.5945 76.8393 91.5945 76.9237C91.5945 77.0078 91.6432 77.0767 91.7029 77.0767C91.7625 77.0767 91.7841 77.1209 91.7508 77.1745C91.6966 77.2621 91.863 77.6587 92.0094 77.7909C92.0404 77.8191 92.1472 78.0158 92.2461 78.2278C92.3454 78.4402 92.5157 78.6694 92.6248 78.7371C92.734 78.8051 92.8235 78.9264 92.8235 79.0066C92.8235 79.1896 94.5928 80.9177 94.8707 81.0057C94.9838 81.0413 95.0764 81.1137 95.0764 81.1661C95.0764 81.2181 95.1455 81.2611 95.2303 81.2611C95.3146 81.2611 95.3837 81.3061 95.3837 81.3613C95.3837 81.4164 95.4991 81.4903 95.6396 81.5256C95.7805 81.5608 95.8959 81.6304 95.8959 81.6805C95.8959 81.7305 95.9882 81.7716 96.1008 81.7716C96.2135 81.7716 96.3053 81.8083 96.3053 81.8533C96.3053 81.9503 97.1994 82.2828 97.4577 82.2824C97.5562 82.282 97.6371 82.3278 97.6371 82.3837C97.6371 82.44 97.7945 82.4858 97.9868 82.4858C98.1791 82.4858 98.3557 82.5433 98.3793 82.6133C98.4115 82.7095 98.9092 82.7408 100.402 82.7408C101.895 82.7408 102.393 82.7095 102.425 82.6133C102.448 82.5433 102.598 82.4858 102.758 82.4858C102.917 82.4858 103.063 82.4514 103.082 82.4091C103.131 82.2985 103.773 81.9754 103.944 81.9754C104.023 81.9754 104.089 81.9296 104.089 81.8737C104.089 81.8174 104.158 81.7716 104.242 81.7716C104.327 81.7716 104.396 81.7286 104.396 81.6761C104.396 81.6237 104.496 81.5494 104.618 81.5111C104.74 81.4724 104.959 81.3218 105.104 81.1763C105.369 80.9118 105.369 80.9118 105.402 81.1375C105.42 81.2615 105.477 81.3632 105.53 81.3632C105.582 81.3632 105.625 81.4551 105.625 81.5674C105.625 81.6797 105.671 81.7716 105.728 81.7716C105.784 81.7716 105.83 81.8529 105.83 81.9527C105.83 82.4271 106.106 82.4858 108.34 82.4858C109.671 82.4858 110.438 82.4487 110.438 82.3837C110.438 82.3278 110.52 82.2816 110.619 82.2816C110.732 82.2816 110.867 82.1287 110.978 81.8729C111.199 81.3644 111.257 64.2964 111.039 63.8787C110.743 63.3104 110.695 63.2986 108.649 63.2986H106.749L106.52 63.7833C106.394 64.05 106.256 64.2835 106.214 64.3023C106.172 64.3211 106.137 64.4189 106.137 64.5202C106.137 64.6211 106.077 64.846 106.004 65.0193L105.871 65.3345L105.62 65.0811C104.81 64.2624 104.512 64.0129 104.346 64.0129C104.261 64.0129 104.191 63.9671 104.191 63.9112C104.191 63.8548 104.122 63.8091 104.038 63.8091C103.953 63.8091 103.884 63.7649 103.884 63.7113C103.884 63.6577 103.723 63.5838 103.526 63.547C103.329 63.5102 103.167 63.439 103.167 63.3894C103.167 63.3393 103.032 63.2986 102.866 63.2986C102.7 63.2986 102.536 63.2529 102.502 63.1965C102.467 63.1406 102.257 63.0945 102.035 63.0945C101.812 63.0945 101.631 63.0487 101.631 62.9924C101.631 62.9313 101.221 62.8903 100.607 62.8903C99.9925 62.8903 99.5827 62.9313 99.5827 62.9924ZM124.725 62.9924C124.691 63.0487 124.46 63.0945 124.213 63.0945C123.966 63.0945 123.736 63.1406 123.701 63.1965C123.667 63.2529 123.525 63.2986 123.388 63.2986C123.25 63.2986 123.138 63.3401 123.138 63.3909C123.138 63.4418 122.907 63.5153 122.626 63.5537C122.344 63.5924 122.114 63.6655 122.114 63.7164C122.114 63.7672 122.045 63.8091 121.96 63.8091C121.876 63.8091 121.806 63.8548 121.806 63.9112C121.806 63.9671 121.717 64.0129 121.608 64.0129C121.498 64.0129 121.38 64.0598 121.344 64.1169C121.309 64.1736 121.246 64.199 121.204 64.1732C121.162 64.1474 121.062 64.2155 120.983 64.3246C120.904 64.4341 120.792 64.5233 120.733 64.5233C120.674 64.5233 120.503 64.6383 120.351 64.7783C120.199 64.9187 120.05 65.0337 120.021 65.0337C119.951 65.0337 118.836 66.1446 118.836 66.2138C118.836 66.2432 118.721 66.391 118.58 66.5424C118.44 66.6938 118.325 66.8655 118.325 66.9238C118.325 66.982 118.234 67.0947 118.123 67.1741C118.013 67.2535 117.892 67.4588 117.854 67.6306C117.817 67.8019 117.758 67.9654 117.723 67.9935C117.576 68.1101 117.3 68.7038 117.3 68.9022C117.3 69.0199 117.254 69.1161 117.198 69.1161C117.142 69.1161 117.096 69.2538 117.096 69.4224C117.096 69.5906 117.049 69.7283 116.993 69.7283C116.937 69.7283 116.891 69.8569 116.891 70.0142C116.891 70.1714 116.833 70.3572 116.763 70.4276C116.668 70.5219 116.634 71.1379 116.634 72.7901C116.634 74.4419 116.668 75.0584 116.763 75.1526C116.833 75.2231 116.891 75.4088 116.891 75.5661C116.891 75.7233 116.937 75.852 116.993 75.852C117.049 75.852 117.096 75.9639 117.096 76.1012C117.096 76.2381 117.136 76.375 117.184 76.4051C117.233 76.4352 117.303 76.6445 117.339 76.8702C117.376 77.0962 117.45 77.2809 117.506 77.2809C117.562 77.2809 117.607 77.3497 117.607 77.4338C117.607 77.5183 117.654 77.5871 117.71 77.5871C117.766 77.5871 117.812 77.6755 117.812 77.7839C117.812 77.8922 117.881 78.0495 117.966 78.1336C118.051 78.218 118.12 78.315 118.12 78.3495C118.12 78.4285 118.289 78.642 118.698 79.0793C118.876 79.269 119.002 79.4239 118.98 79.4239C118.957 79.4239 119.129 79.6078 119.361 79.8323C119.593 80.0568 119.826 80.2406 119.878 80.2406C119.93 80.2406 120.079 80.3552 120.21 80.4957C120.34 80.6361 120.494 80.7507 120.551 80.7507C120.608 80.7507 120.712 80.8195 120.782 80.904C120.853 80.9881 120.996 81.057 121.102 81.057C121.208 81.057 121.295 81.0918 121.295 81.134C121.295 81.2232 121.73 81.4231 122.139 81.5216C122.294 81.5588 122.421 81.6304 122.421 81.6805C122.421 81.7305 122.559 81.7716 122.728 81.7716C122.897 81.7716 123.035 81.8174 123.035 81.8737C123.035 81.9296 123.171 81.9754 123.337 81.9754C123.502 81.9754 123.661 82.0121 123.688 82.0571C123.82 82.2695 127.754 82.3094 127.825 82.0994C127.847 82.0313 127.977 81.9754 128.114 81.9754C128.25 81.9754 128.361 81.9296 128.361 81.8737C128.361 81.8174 128.43 81.7716 128.515 81.7716C128.599 81.7716 128.668 81.7254 128.668 81.6695C128.668 81.6132 128.762 81.5674 128.876 81.5674C128.991 81.5674 129.111 81.4986 129.143 81.4141C129.176 81.33 129.258 81.2611 129.326 81.2611C129.394 81.2611 129.693 81.0315 129.99 80.7507C130.286 80.4702 130.548 80.2406 130.572 80.2406C130.659 80.2406 130.61 81.2514 130.521 81.3065C130.469 81.3382 130.397 81.5396 130.361 81.7536C130.325 81.9679 130.206 82.2073 130.096 82.2859C129.987 82.3646 129.897 82.4647 129.897 82.5085C129.897 82.5957 129.566 82.9474 129.424 83.0103C129.129 83.1418 128.566 83.5407 128.566 83.6186C128.566 83.669 128.451 83.7105 128.31 83.7105C128.169 83.7105 128.054 83.7543 128.054 83.8075C128.054 83.8611 127.777 83.9358 127.439 83.9737C127.101 84.0121 126.825 84.0832 126.825 84.1321C126.825 84.2526 125.228 84.2456 125.006 84.1239C124.908 84.0703 124.563 83.9984 124.239 83.9636C123.915 83.9284 123.65 83.8666 123.65 83.8259C123.65 83.7848 123.489 83.6933 123.292 83.6225C123.094 83.5513 122.933 83.4504 122.933 83.398C122.933 83.3452 122.866 83.3025 122.783 83.3025C122.701 83.3025 122.522 83.1813 122.384 83.033C121.822 82.4299 120.065 83.0491 120.065 83.8505C120.065 83.917 119.973 84.0379 119.861 84.1188C119.748 84.1998 119.656 84.3175 119.656 84.3809C119.656 84.4443 119.575 84.591 119.477 84.7071C119.378 84.8229 119.217 85.0138 119.119 85.1303C118.525 85.8399 119.15 87.4201 120.15 87.7361C120.273 87.7749 120.373 87.841 120.373 87.8828C120.373 87.9247 120.534 88.0221 120.731 88.0991C120.928 88.1762 121.09 88.2747 121.09 88.3178C121.09 88.3608 121.251 88.4261 121.448 88.4629C121.645 88.5 121.806 88.5708 121.806 88.6209C121.806 88.6706 121.922 88.7117 122.062 88.7117C122.203 88.7117 122.319 88.7543 122.319 88.8063C122.319 88.8583 122.573 88.9326 122.883 88.9714C123.194 89.0097 123.473 89.0821 123.504 89.1317C123.535 89.1814 123.738 89.2217 123.955 89.2217C124.172 89.2217 124.368 89.2745 124.389 89.3387C124.443 89.501 128.593 89.4971 128.647 89.3351C128.668 89.2726 128.863 89.2217 129.08 89.2217C129.298 89.2217 129.501 89.1802 129.533 89.1294C129.564 89.0785 129.821 89.0054 130.102 88.9667C130.384 88.928 130.614 88.8548 130.614 88.804C130.614 88.7531 130.683 88.7117 130.768 88.7117C130.852 88.7117 130.921 88.6655 130.921 88.6096C130.921 88.5532 131.033 88.5075 131.17 88.5075C131.307 88.5075 131.488 88.4386 131.572 88.3541C131.657 88.2701 131.776 88.2012 131.836 88.2012C131.896 88.2012 131.946 88.1554 131.946 88.0991C131.946 88.0432 132.038 87.997 132.15 87.997C132.263 87.997 132.355 87.9544 132.355 87.902C132.355 87.8496 132.448 87.7776 132.561 87.7416C132.821 87.6595 134.608 85.8786 134.608 85.7018C134.608 85.6291 134.677 85.543 134.762 85.5109C134.846 85.4785 134.916 85.3697 134.916 85.2692C134.916 85.1687 135.007 85.0294 135.119 84.9598C135.241 84.8835 135.349 84.67 135.388 84.4247C135.424 84.2006 135.494 84.0167 135.543 84.0167C135.592 84.0167 135.632 83.9479 135.632 83.8638C135.632 83.7793 135.674 83.7105 135.725 83.7105C135.776 83.7105 135.85 83.4809 135.888 83.2004C135.927 82.9196 136 82.69 136.051 82.69C136.102 82.69 136.144 82.4835 136.144 82.2308C136.144 81.9781 136.19 81.7716 136.247 81.7716C136.314 81.7716 136.349 78.7097 136.349 72.7901C136.349 66.8706 136.314 63.8091 136.247 63.8091C136.19 63.8091 136.144 63.7398 136.144 63.6557C136.144 63.5716 136.075 63.5028 135.991 63.5028C135.906 63.5028 135.837 63.4566 135.837 63.4007C135.837 63.3366 135.152 63.2986 133.987 63.2986C132.117 63.2986 131.843 63.3499 131.843 63.6996C131.843 63.7598 131.802 63.8091 131.752 63.8091C131.671 63.8091 131.61 63.9421 131.47 64.4212C131.445 64.5053 131.398 64.7466 131.365 64.9571C131.288 65.4421 131.331 65.457 130.551 64.6762C130.187 64.3117 129.839 64.0129 129.777 64.0129C129.716 64.0129 129.59 63.9272 129.499 63.8228C129.408 63.7179 129.174 63.5971 128.979 63.5544C128.784 63.5118 128.53 63.4297 128.415 63.3718C127.922 63.1226 127.839 63.0945 127.6 63.0945C127.462 63.0945 127.32 63.0487 127.286 62.9924C127.249 62.9337 126.706 62.8903 126.005 62.8903C125.305 62.8903 124.762 62.9337 124.725 62.9924ZM101.162 68.3886C101.192 68.4375 101.458 68.5005 101.752 68.5286C102.047 68.5568 102.305 68.6315 102.327 68.6949C102.348 68.7582 102.43 68.8099 102.51 68.8099C102.59 68.8099 102.655 68.8556 102.655 68.9119C102.655 68.9679 102.729 69.014 102.82 69.014C103.132 69.014 104.396 70.2892 104.396 70.6044C104.396 70.6838 104.442 70.7491 104.499 70.7491C104.555 70.7491 104.601 70.818 104.601 70.9021C104.601 70.9862 104.645 71.055 104.699 71.055C104.753 71.055 104.824 71.2275 104.858 71.4379C104.892 71.6484 104.963 71.9003 105.016 71.9977C105.138 72.2202 105.144 73.7793 105.024 73.8537C104.975 73.8838 104.905 74.093 104.869 74.3187C104.833 74.5444 104.758 74.7294 104.702 74.7294C104.647 74.7294 104.601 74.7983 104.601 74.8824C104.601 74.9665 104.552 75.0353 104.492 75.0353C104.433 75.0353 104.409 75.0752 104.439 75.1241C104.469 75.1726 104.403 75.2946 104.292 75.3948C104.18 75.4953 104.089 75.651 104.089 75.7409C104.089 75.8309 103.778 76.1109 103.398 76.3632C103.017 76.6151 102.691 76.8545 102.673 76.8948C102.655 76.9351 102.482 76.9977 102.288 77.034C102.094 77.07 101.911 77.1404 101.88 77.1905C101.805 77.3102 99.6114 77.3074 99.5372 77.1878C99.5054 77.1365 99.3032 77.0649 99.0885 77.0286C98.8735 76.9926 98.6332 76.8737 98.5544 76.7645C98.4755 76.6554 98.3573 76.5662 98.2922 76.5662C98.1246 76.5662 97.3297 75.7554 97.3297 75.5849C97.3297 75.507 97.2834 75.4436 97.2273 75.4436C97.1708 75.4436 97.1249 75.3517 97.1249 75.2395C97.1249 75.1272 97.0809 75.0353 97.0271 75.0353C96.9734 75.0353 96.8988 74.8741 96.8619 74.677C96.8246 74.4799 96.7536 74.2937 96.7037 74.2628C96.6535 74.2323 96.6126 74.0285 96.6126 73.8106C96.6126 73.5928 96.5667 73.3862 96.5102 73.3514C96.4541 73.3166 96.4078 73.1074 96.4078 72.8864C96.4078 72.665 96.4541 72.4839 96.5102 72.4839C96.5667 72.4839 96.6126 72.2773 96.6126 72.0247C96.6126 71.772 96.6535 71.5655 96.7037 71.5655C96.7536 71.5655 96.8254 71.3589 96.8635 71.1063C96.9015 70.8536 96.9647 70.647 97.0036 70.647C97.0428 70.647 97.1374 70.5062 97.214 70.3341C97.3831 69.9528 98.3067 69.014 98.5123 69.014C98.594 69.014 98.6611 68.9788 98.6611 68.9358C98.6611 68.82 99.4438 68.5036 99.7311 68.5036C99.868 68.5036 100.009 68.4578 100.043 68.4015C100.121 68.2763 101.086 68.265 101.162 68.3886ZM127.183 68.4015C127.218 68.4578 127.359 68.5036 127.496 68.5036C127.783 68.5036 128.566 68.82 128.566 68.9358C128.566 68.9788 128.632 69.014 128.712 69.014C128.96 69.014 130.273 70.4476 130.372 70.8254C130.405 70.9518 130.472 71.055 130.523 71.055C130.573 71.055 130.614 71.1661 130.614 71.3018C130.614 71.4376 130.671 71.5674 130.741 71.5905C130.833 71.6214 130.868 71.9805 130.868 72.8922C130.868 73.804 130.833 74.1634 130.741 74.1939C130.671 74.217 130.614 74.3469 130.614 74.4826C130.614 74.6183 130.573 74.7294 130.523 74.7294C130.472 74.7294 130.403 74.844 130.367 74.9845C130.332 75.1249 130.258 75.2395 130.202 75.2395C130.147 75.2395 130.102 75.2856 130.102 75.342C130.102 75.5086 129.149 76.434 128.899 76.5099C128.772 76.5486 128.668 76.623 128.668 76.6754C128.668 76.7278 128.599 76.7704 128.515 76.7704C128.43 76.7704 128.361 76.8123 128.361 76.8631C128.361 76.914 128.13 76.9871 127.849 77.0258C127.567 77.0642 127.337 77.1373 127.337 77.1882C127.337 77.3114 125.625 77.3078 125.548 77.1846C125.516 77.1318 125.282 77.0575 125.03 77.02C124.778 76.9824 124.572 76.9206 124.572 76.8831C124.572 76.8455 124.422 76.7266 124.24 76.6194C123.896 76.4168 123.138 75.7139 123.138 75.5974C123.138 75.561 123.069 75.4624 122.984 75.3779C122.9 75.2938 122.83 75.1366 122.83 75.0283C122.83 74.9199 122.785 74.8315 122.728 74.8315C122.672 74.8315 122.626 74.7204 122.626 74.5847C122.626 74.449 122.568 74.3191 122.498 74.2956C122.403 74.2644 122.37 73.8799 122.37 72.841C122.37 71.8025 122.403 71.418 122.498 71.3867C122.568 71.3636 122.626 71.2334 122.626 71.0976C122.626 70.9619 122.668 70.8508 122.72 70.8508C122.772 70.8508 122.845 70.7132 122.882 70.545C122.919 70.3764 122.982 70.2387 123.022 70.2387C123.061 70.2387 123.182 70.0893 123.29 69.907C123.548 69.4728 123.87 69.1576 124.145 69.0704C124.267 69.0316 124.367 68.9573 124.367 68.9049C124.367 68.8525 124.436 68.8099 124.521 68.8099C124.605 68.8099 124.674 68.7657 124.674 68.7113C124.674 68.6569 124.904 68.5822 125.186 68.545C125.468 68.5079 125.698 68.4375 125.698 68.3886C125.698 68.2642 127.106 68.2767 127.183 68.4015Z" fill="white"/>
<path fill-rule="evenodd" clip-rule="evenodd" d="M67.9912 34.6146C67.9547 34.6736 67.8118 34.7221 67.6745 34.7221C67.5371 34.7221 67.4244 34.7679 67.4244 34.8242C67.4244 34.8801 67.2863 34.9259 67.1171 34.9259C66.9483 34.9259 66.8102 34.9678 66.8102 35.0186C66.8102 35.0695 66.5798 35.1426 66.298 35.1813C66.0165 35.2197 65.7602 35.2932 65.7288 35.344C65.697 35.3949 65.5589 35.4363 65.4215 35.4363C65.2841 35.4363 65.1715 35.4778 65.1715 35.529C65.1715 35.5799 64.9411 35.653 64.6593 35.6914C64.3778 35.7301 64.1474 35.8032 64.1474 35.8541C64.1474 35.9049 64.0321 35.9468 63.8911 35.9468C63.7506 35.9468 63.6352 35.9882 63.6352 36.0391C63.6352 36.0899 63.4048 36.1631 63.123 36.2018C62.8416 36.2405 62.6112 36.3137 62.6112 36.3645C62.6112 36.4154 62.4958 36.4568 62.3549 36.4568C62.2144 36.4568 62.099 36.503 62.099 36.5589C62.099 36.6153 61.9404 36.661 61.7465 36.661C61.5526 36.661 61.3674 36.7044 61.3344 36.7572C61.3018 36.81 61.0687 36.8844 60.8163 36.9219C60.5643 36.9595 60.3579 37.031 60.3579 37.0811C60.3579 37.1308 60.2429 37.1715 60.102 37.1715C59.961 37.1715 59.846 37.2129 59.846 37.2638C59.846 37.3146 59.6156 37.3878 59.3338 37.4265C59.0524 37.4652 58.8216 37.5384 58.8216 37.5892C58.8216 37.6401 58.7066 37.6815 58.5657 37.6815C58.4248 37.6815 58.3098 37.7234 58.3098 37.7742C58.3098 37.8251 58.0794 37.8982 57.7976 37.9369C57.5162 37.9753 57.2599 38.0488 57.2285 38.0996C57.1971 38.1505 57.0585 38.192 56.9211 38.192C56.7838 38.192 56.6711 38.2319 56.6711 38.2807C56.6711 38.3296 56.4427 38.4 56.1632 38.4368C55.8838 38.474 55.6278 38.5487 55.5941 38.603C55.5599 38.6578 55.4257 38.7024 55.295 38.7024C55.1643 38.7024 55.0073 38.7626 54.9461 38.8362C54.8213 38.986 54.9045 39.7229 55.0458 39.7229C55.0948 39.7229 55.1349 39.8379 55.1349 39.9779C55.1349 40.1183 55.1733 40.2333 55.22 40.2333C55.295 40.2333 55.357 40.4633 55.6118 41.6876C55.6439 41.8417 55.7111 41.9681 55.7609 41.9681C55.8111 41.9681 55.852 42.0831 55.852 42.2235C55.852 42.3635 55.892 42.4785 55.9411 42.4785C55.9901 42.4785 56.0604 42.7062 56.0977 42.9846C56.1346 43.2631 56.2099 43.5182 56.2645 43.5518C56.319 43.5858 56.3638 43.7255 56.3638 43.8624C56.3638 43.9993 56.4058 44.1115 56.4568 44.1115C56.5078 44.1115 56.5812 44.3411 56.6201 44.6216C56.6586 44.9024 56.7319 45.132 56.783 45.132C56.834 45.132 56.876 45.247 56.876 45.3871C56.876 45.5275 56.9156 45.6425 56.9639 45.6425C57.0126 45.6425 57.0805 45.8799 57.115 46.1705C57.1496 46.4607 57.2249 46.7455 57.283 46.803C57.3407 46.8609 57.3878 47.0134 57.3878 47.1425C57.3878 47.2716 57.4235 47.3772 57.4671 47.3772C57.5405 47.3772 57.7277 47.9655 57.8651 48.6277C57.8973 48.7818 57.964 48.9081 58.0142 48.9081C58.0641 48.9081 58.1049 49.0231 58.1049 49.1636C58.1049 49.3036 58.1465 49.4186 58.1975 49.4186C58.2486 49.4186 58.3224 49.6482 58.3608 49.929C58.3997 50.2095 58.4731 50.4391 58.5241 50.4391C58.5751 50.4391 58.6171 50.5998 58.6171 50.7962C58.6171 50.9929 58.6587 51.1537 58.7098 51.1537C58.7608 51.1537 58.8342 51.3833 58.873 51.6637C58.9119 51.9446 58.9853 52.1742 59.0363 52.1742C59.0873 52.1742 59.1289 52.2892 59.1289 52.4292C59.1289 52.5696 59.1709 52.6846 59.222 52.6846C59.273 52.6846 59.3464 52.9142 59.3852 53.1947C59.4237 53.4751 59.4971 53.7305 59.5481 53.7618C59.5992 53.7935 59.6412 53.9312 59.6412 54.0685C59.6412 54.2054 59.6871 54.3173 59.7436 54.3173C59.7997 54.3173 59.846 54.4323 59.846 54.5727C59.846 54.7131 59.892 54.8277 59.9485 54.8277C60.0046 54.8277 60.0509 54.9427 60.0509 55.0827C60.0509 55.5994 60.5388 55.2587 60.6338 54.6756C60.666 54.4788 60.7319 54.3173 60.781 54.3173C60.83 54.3173 60.8701 54.2257 60.8701 54.1135C60.8701 54.0012 60.9101 53.9093 60.9596 53.9093C61.0086 53.9093 61.0781 53.7255 61.1142 53.5009C61.1503 53.2764 61.2253 53.0926 61.281 53.0926C61.3368 53.0926 61.3823 52.978 61.3823 52.8376C61.3823 52.6971 61.4255 52.5825 61.4784 52.5825C61.531 52.5825 61.6056 52.3756 61.6437 52.1233C61.6814 51.8707 61.7536 51.6637 61.8034 51.6637C61.8533 51.6637 61.8941 51.5949 61.8941 51.5108C61.8941 51.4267 61.9404 51.3579 61.9965 51.3579C62.0531 51.3579 62.099 51.2456 62.099 51.1087C62.099 50.9714 62.141 50.8333 62.1924 50.8021C62.2438 50.7704 62.3172 50.5607 62.3553 50.3366C62.3934 50.1125 62.4664 49.929 62.5178 49.929C62.5692 49.929 62.6112 49.814 62.6112 49.6736C62.6112 49.5336 62.6567 49.4186 62.7125 49.4186C62.7678 49.4186 62.8432 49.2347 62.8789 49.0102C62.915 48.7857 62.9849 48.6023 63.0339 48.6023C63.083 48.6023 63.123 48.5103 63.123 48.3981C63.123 48.2858 63.1635 48.1939 63.2125 48.1939C63.2616 48.1939 63.3314 48.0101 63.3672 47.7855C63.4033 47.561 63.4782 47.3772 63.534 47.3772C63.5897 47.3772 63.6352 47.2626 63.6352 47.1222C63.6352 46.9817 63.6761 46.8671 63.7259 46.8671C63.7761 46.8671 63.848 46.6602 63.886 46.4079C63.9241 46.1553 63.9983 45.9483 64.0513 45.9483C64.1039 45.9483 64.1474 45.8337 64.1474 45.6933C64.1474 45.5529 64.182 45.4383 64.2248 45.4383C64.3256 45.4383 64.5344 44.9646 64.6184 44.5445C64.6549 44.3623 64.7252 44.2136 64.7747 44.2136C64.8237 44.2136 64.8642 44.0986 64.8642 43.9582C64.8642 43.8182 64.9097 43.7032 64.9654 43.7032C65.0211 43.7032 65.0961 43.5193 65.1322 43.2948C65.1679 43.0703 65.2378 42.8869 65.2869 42.8869C65.3359 42.8869 65.3764 42.7949 65.3764 42.6827C65.3764 42.5704 65.418 42.4785 65.469 42.4785C65.52 42.4785 65.5934 42.2489 65.6323 41.9681C65.6711 41.6876 65.7445 41.458 65.7956 41.458C65.8466 41.458 65.8882 41.3892 65.8882 41.3047C65.8882 41.2206 65.929 41.1517 65.9792 41.1517C66.0291 41.1517 66.1009 40.9452 66.139 40.6925C66.1771 40.4399 66.2513 40.2333 66.3042 40.2333C66.3572 40.2333 66.4004 40.1183 66.4004 39.9779C66.4004 39.8379 66.4412 39.7229 66.4907 39.7229C66.5405 39.7229 66.6673 39.4475 66.7725 39.1115C66.8777 38.7752 66.9982 38.4994 67.0406 38.499C67.0826 38.4986 67.1171 38.3832 67.1171 38.2432C67.1171 38.1028 67.1575 37.9878 67.2066 37.9878C67.2557 37.9878 67.3255 37.8043 67.3616 37.5798C67.3974 37.3549 67.4723 37.1715 67.5281 37.1715C67.5838 37.1715 67.6293 37.0565 67.6293 36.9164C67.6293 36.776 67.6725 36.661 67.7255 36.661C67.7785 36.661 67.8526 36.4545 67.8907 36.2018C67.9288 35.9491 68.0006 35.7426 68.0505 35.7426C68.1007 35.7426 68.1415 35.6738 68.1415 35.5893C68.1415 35.5052 68.1902 35.4363 68.2499 35.4363C68.3974 35.4363 68.328 34.5954 68.1765 34.5457C68.1113 34.5246 68.0277 34.5555 67.9912 34.6146ZM22.7466 56.0414C22.5868 56.203 22.5676 56.465 22.5687 58.4595C22.5703 60.9116 22.599 61.1552 22.8867 61.1552C22.9926 61.1552 23.0794 61.2014 23.0794 61.2573C23.0794 61.3227 23.9158 61.3594 25.3838 61.3594C26.8517 61.3594 27.6881 61.3227 27.6881 61.2573C27.6881 61.2014 27.7745 61.1552 27.8805 61.1552C28.1156 61.1552 28.2635 60.9886 28.3566 60.619C28.3954 60.4649 28.4684 60.3389 28.5187 60.3389C28.5689 60.3389 28.6097 59.4894 28.6097 58.4509C28.6097 57.2602 28.572 56.5628 28.5073 56.5628C28.4511 56.5628 28.4048 56.4811 28.4048 56.3813C28.4048 55.8908 28.1654 55.8478 25.4595 55.8545C23.1736 55.8599 22.9083 55.8783 22.7466 56.0414ZM0.57305 60.3378C0.37994 60.646 0.394856 82.0529 0.588751 82.3071C0.823073 82.615 5.97385 82.5755 6.33417 82.2633L6.59086 82.0408V78.3851V74.7295H9.50949C11.3872 74.7295 12.4285 74.6931 12.4285 74.6274C12.4285 74.5711 12.5898 74.5253 12.7869 74.5253C12.9839 74.5253 13.1452 74.4843 13.1452 74.4346C13.1452 74.3845 13.3065 74.3137 13.504 74.277C13.701 74.2402 13.8623 74.1659 13.8623 74.1123C13.8623 74.0587 13.9314 74.0149 14.0158 74.0149C14.1002 74.0149 14.1696 73.9691 14.1696 73.9128C14.1696 73.8569 14.2631 73.8107 14.3777 73.8107C14.4919 73.8107 14.612 73.7419 14.6446 73.6578C14.6768 73.5737 14.7874 73.5048 14.8903 73.5048C14.9931 73.5048 15.1065 73.4129 15.1423 73.3007C15.1784 73.1884 15.2482 73.0965 15.2981 73.0965C15.437 73.0965 16.4226 72.083 16.4226 71.9403C16.4226 71.8714 16.5144 71.7486 16.6271 71.668C16.7393 71.5871 16.8598 71.3704 16.8944 71.1861C16.9289 71.0019 16.9984 70.8509 17.0486 70.8509C17.0985 70.8509 17.1393 70.7821 17.1393 70.698C17.1393 70.6139 17.1813 70.5451 17.2323 70.5451C17.2833 70.5451 17.3567 70.3154 17.3956 70.0346C17.4341 69.7542 17.5079 69.5242 17.5589 69.5242C17.6099 69.5242 17.6515 69.3176 17.6515 69.065C17.6515 68.8123 17.6978 68.6058 17.754 68.6058C17.8164 68.6058 17.8564 68.1465 17.8564 67.4319C17.8564 66.7177 17.8164 66.2585 17.754 66.2585C17.6978 66.2585 17.6515 66.0516 17.6515 65.7993C17.6515 65.5466 17.6099 65.3397 17.5589 65.3397C17.5079 65.3397 17.4341 65.1101 17.3956 64.8296C17.3567 64.5488 17.2833 64.3192 17.2323 64.3192C17.1813 64.3192 17.1393 64.2504 17.1393 64.1663C17.1393 64.0822 17.0934 64.0129 17.0372 64.0129C16.9807 64.0129 16.9348 63.9198 16.9348 63.8056C16.9348 63.6918 16.8653 63.5721 16.7809 63.5397C16.6966 63.5076 16.6275 63.3942 16.6275 63.2878C16.6275 63.1814 16.5843 63.0945 16.5317 63.0945C16.4795 63.0945 16.4089 63.0077 16.3751 62.9021C16.3217 62.7351 16.003 62.3889 15.1387 61.5597C15.0241 61.4494 14.8793 61.3594 14.8169 61.3594C14.7545 61.3594 14.6768 61.2906 14.6446 61.2065C14.612 61.1224 14.4919 61.0535 14.3777 61.0535C14.2631 61.0535 14.1696 61.0074 14.1696 60.9515C14.1696 60.8951 14.1002 60.8494 14.0158 60.8494C13.9314 60.8494 13.8623 60.8056 13.8623 60.752C13.8623 60.6984 13.701 60.6241 13.504 60.5873C13.3065 60.5505 13.1452 60.4797 13.1452 60.4297C13.1452 60.3796 12.9839 60.3389 12.7869 60.3389C12.5898 60.3389 12.4285 60.2932 12.4285 60.2368C12.4285 60.008 0.71749 60.1074 0.57305 60.3378ZM44.1256 62.9924C44.0907 63.0488 43.8344 63.0945 43.5561 63.0945C43.2778 63.0945 43.0502 63.1407 43.0502 63.1966C43.0502 63.253 42.8889 63.2987 42.6918 63.2987C42.4944 63.2987 42.3331 63.3394 42.3331 63.3891C42.3331 63.4387 42.1258 63.5107 41.8723 63.5487C41.6187 63.5862 41.4115 63.6605 41.4115 63.7133C41.4115 63.7657 41.3424 63.8092 41.258 63.8092C41.1732 63.8092 41.1042 63.8498 41.1042 63.8999C41.1042 63.95 40.9892 64.02 40.8483 64.0552C40.7074 64.0904 40.5923 64.1639 40.5923 64.2191C40.5923 64.2742 40.5209 64.3192 40.4338 64.3192C40.3466 64.3192 40.0743 64.5312 39.8285 64.7905C39.3018 65.346 39.2021 65.3198 39.1334 64.6063C39.1052 64.3129 39.0302 64.0556 38.9666 64.0345C38.903 64.0133 38.8512 63.9089 38.8512 63.8025C38.8512 63.6809 38.7558 63.585 38.5953 63.5447C38.4544 63.5095 38.339 63.4399 38.339 63.3898C38.339 63.3398 37.5556 63.2987 36.5979 63.2987C35.5056 63.2987 34.8571 63.3367 34.8571 63.4008C34.8571 63.4567 34.7955 63.5029 34.7206 63.5029C34.6456 63.5029 34.5227 63.6175 34.4474 63.7579C34.372 63.8983 34.2719 64.0129 34.2252 64.0129C34.1785 64.0129 34.14 68.0089 34.14 72.8923C34.14 78.7438 34.175 81.7717 34.2425 81.7717C34.299 81.7717 34.3449 81.8624 34.3449 81.9735C34.3449 82.1041 34.4356 82.1984 34.6008 82.2399C34.7417 82.2751 34.8571 82.3451 34.8571 82.3948C34.8571 82.4456 35.9016 82.4859 37.2125 82.4859C38.7146 82.4859 39.5679 82.4491 39.5679 82.3838C39.5679 82.3279 39.6174 82.2817 39.6778 82.2817C40.1261 82.2817 40.1296 82.2375 40.1594 76.5272C40.1751 73.5506 40.2238 71.0899 40.2674 71.0598C40.3474 71.0039 40.6948 70.3072 40.6948 70.2028C40.6948 70.1359 41.7078 69.1162 41.7742 69.1162C41.9072 69.1162 42.6404 68.7501 42.6404 68.6836C42.6404 68.641 42.963 68.6058 43.3575 68.6058C43.7669 68.6058 44.0742 68.6496 44.0742 68.7078C44.0742 68.7642 44.1896 68.8099 44.3301 68.8099C44.471 68.8099 44.5864 68.8557 44.5864 68.912C44.5864 68.968 44.6532 69.0141 44.7352 69.0141C44.9381 69.0141 46.1227 70.2227 46.1227 70.43C46.1227 70.484 46.18 70.547 46.2506 70.5705C46.3499 70.6033 46.3908 71.8632 46.4324 76.2178C46.4893 82.1343 46.4912 82.1585 46.9163 82.3584C47.2578 82.5191 51.8575 82.5426 51.8575 82.3838C51.8575 82.3279 51.9069 82.2817 51.9674 82.2817C52.367 82.2817 52.3697 82.2363 52.3697 75.6553C52.3697 72.1264 52.3301 69.3204 52.2806 69.3204C52.2315 69.3204 52.1601 69.0462 52.122 68.711C52.0844 68.3758 52.009 68.0746 51.9552 68.0417C51.9015 68.0085 51.8575 67.8692 51.8575 67.7323C51.8575 67.5954 51.8116 67.4832 51.7554 67.4832C51.6989 67.4832 51.653 67.3913 51.653 67.279C51.653 67.1667 51.609 67.0748 51.5553 67.0748C51.5015 67.0748 51.4273 66.9156 51.3908 66.7212C51.3496 66.5018 51.2503 66.3442 51.1302 66.3062C51.0234 66.2722 50.9359 66.1545 50.9359 66.0442C50.9359 65.9339 50.8668 65.8173 50.7824 65.7852C50.6977 65.7528 50.6286 65.662 50.6286 65.5834C50.6286 65.4101 49.7447 64.5234 49.5716 64.5234C49.5037 64.5234 49.362 64.4088 49.256 64.2684C49.1504 64.1279 48.9781 64.0129 48.8733 64.0129C48.7685 64.0129 48.683 63.9672 48.683 63.9112C48.683 63.8549 48.6139 63.8092 48.5291 63.8092C48.4447 63.8092 48.3756 63.765 48.3756 63.7114C48.3756 63.6578 48.2143 63.5839 48.0173 63.5471C47.8198 63.5103 47.6589 63.4391 47.6589 63.3895C47.6589 63.3394 47.4976 63.2987 47.3002 63.2987C47.1031 63.2987 46.9418 63.253 46.9418 63.1966C46.9418 63.1407 46.7114 63.0945 46.4296 63.0945C46.1482 63.0945 45.9178 63.0488 45.9178 62.9924C45.9178 62.9326 45.5614 62.8904 45.0531 62.8904C44.5778 62.8904 44.1602 62.9365 44.1256 62.9924ZM23.0076 63.4301C22.9397 63.4982 22.8133 63.6132 22.7257 63.6856C22.5636 63.8201 22.4734 81.4623 22.6319 82.0521C22.6684 82.1871 22.7732 82.2817 22.8867 82.2817C22.9926 82.2817 23.0794 82.3279 23.0794 82.3838C23.0794 82.4491 23.95 82.4859 25.4862 82.4859C26.8097 82.4859 27.893 82.4511 27.893 82.4081C27.893 82.3654 27.9966 82.2848 28.1234 82.2293C28.2659 82.1671 28.366 82.0216 28.386 81.8479C28.404 81.6938 28.4617 81.5675 28.5143 81.5675C28.6717 81.5675 28.6399 64.3704 28.4818 64.0884C28.2529 63.6801 28.0696 63.5029 27.8769 63.5029C27.7733 63.5029 27.6881 63.4567 27.6881 63.4008C27.6881 63.2436 23.165 63.2717 23.0076 63.4301ZM10.1752 65.238C10.1752 65.2939 10.2388 65.3397 10.3165 65.3397C10.5535 65.3397 11.3044 66.1427 11.3692 66.4654C11.4025 66.6324 11.4704 66.7685 11.5195 66.7685C11.5689 66.7685 11.609 67.0674 11.609 67.4319C11.609 67.7969 11.5689 68.0953 11.5195 68.0953C11.4704 68.0953 11.4025 68.2318 11.3692 68.3988C11.3044 68.7215 10.5535 69.5242 10.3165 69.5242C10.2388 69.5242 10.1752 69.5703 10.1752 69.6262C10.1752 69.6904 9.50949 69.7283 8.38301 69.7283H6.59086V67.4319V65.1359H8.38301C9.50949 65.1359 10.1752 65.1739 10.1752 65.238Z" fill="white"/>
</svg>
