<svg width="157" height="102" viewBox="0 0 157 102" fill="none" xmlns="http://www.w3.org/2000/svg">
<path fill-rule="evenodd" clip-rule="evenodd" d="M93.8878 6.60488C93.7332 6.62835 93.6064 6.69015 93.6064 6.74257C93.6064 6.79498 93.491 6.838 93.3501 6.838C93.2096 6.838 93.0942 6.87868 93.0942 6.92836C93.0942 6.97842 92.8877 7.04961 92.6357 7.08755C92.3834 7.1251 92.1502 7.19942 92.1176 7.25223C92.0847 7.30503 91.9453 7.34845 91.8079 7.34845C91.6706 7.34845 91.5579 7.38991 91.5579 7.44076C91.5579 7.49161 91.3275 7.56475 91.0461 7.60347C90.7643 7.6422 90.5084 7.71534 90.4766 7.76619C90.4452 7.81704 90.307 7.8585 90.1693 7.8585C90.0319 7.8585 89.9192 7.90465 89.9192 7.96059C89.9192 8.01691 89.8042 8.06268 89.6633 8.06268C89.5224 8.06268 89.4074 8.09866 89.4074 8.14286C89.4074 8.18706 89.1425 8.27976 88.8183 8.34939C88.4945 8.41901 88.1027 8.5031 87.9477 8.53635C87.7931 8.56921 87.6663 8.63531 87.6663 8.68303C87.6663 8.73114 87.4359 8.80077 87.1541 8.83792C86.8726 8.87508 86.6422 8.94549 86.6422 8.99438C86.6422 9.04328 86.5269 9.08317 86.3859 9.08317C86.2454 9.08317 86.13 9.12424 86.13 9.17392C86.13 9.22359 85.9236 9.29517 85.6716 9.33272C85.4192 9.37066 85.1861 9.44459 85.1535 9.49739C85.1205 9.5502 84.9812 9.59361 84.8438 9.59361C84.7064 9.59361 84.5938 9.63429 84.5938 9.68397C84.5938 9.73404 84.3979 9.80405 84.1585 9.84004C83.6867 9.91083 83.0014 10.126 82.8888 10.2382C82.8503 10.2766 82.711 10.3082 82.5799 10.3082C82.4484 10.3082 82.3408 10.3497 82.3408 10.4005C82.3408 10.4514 82.1104 10.5245 81.8286 10.5633C81.5472 10.602 81.3164 10.6751 81.3164 10.726C81.3164 10.7768 81.2014 10.8183 81.0605 10.8183C80.9196 10.8183 80.8046 10.8582 80.8046 10.9071C80.8046 10.9564 80.5762 11.0264 80.2967 11.0631C80.0172 11.1003 79.7613 11.175 79.7272 11.2294C79.6934 11.2841 79.5533 11.3287 79.4159 11.3287C79.2786 11.3287 79.1659 11.3745 79.1659 11.4308C79.1659 11.4868 79.0623 11.5325 78.9355 11.5321C78.7236 11.5317 77.97 11.748 77.4762 11.951C77.3635 11.9972 77.0178 12.1091 76.7081 12.1994C76.398 12.2902 76.0648 12.4067 75.967 12.4587C75.8689 12.5108 75.6962 12.5534 75.5828 12.5534C75.4693 12.5534 75.3767 12.5949 75.3767 12.6457C75.3767 12.6966 75.1463 12.7701 74.8645 12.8084C74.5831 12.8472 74.3523 12.9203 74.3523 12.9711C74.3523 13.022 74.2373 13.0638 74.0964 13.0638C73.9555 13.0638 73.8405 13.1034 73.8405 13.1515C73.8405 13.2 73.6018 13.2676 73.3106 13.3021C73.0194 13.3365 72.7336 13.4116 72.6755 13.4691C72.6178 13.527 72.4644 13.5739 72.3348 13.5739C72.2053 13.5739 72.0993 13.6146 72.0993 13.6643C72.0993 13.7143 71.8929 13.7859 71.6409 13.8234C71.3889 13.861 71.1558 13.9353 71.1228 13.9881C71.0898 14.0409 70.9505 14.0843 70.8131 14.0843C70.6757 14.0843 70.5631 14.1301 70.5631 14.1864C70.5631 14.2424 70.4481 14.2885 70.3072 14.2885C70.1663 14.2885 70.0513 14.3292 70.0513 14.3789C70.0513 14.4285 69.7977 14.5005 69.4876 14.5392C69.178 14.5776 68.9244 14.6519 68.9244 14.7039C68.9244 14.7559 68.8094 14.7986 68.6685 14.7986C68.5276 14.7986 68.4126 14.8392 68.4126 14.8889C68.4126 14.9386 68.1598 15.0106 67.8509 15.0493C67.542 15.0876 67.2626 15.1619 67.2304 15.214C67.1978 15.2664 67.0589 15.309 66.9215 15.309C66.7841 15.309 66.6715 15.3489 66.6715 15.3982C66.6715 15.4788 65.9076 15.6661 65.724 15.6301C65.682 15.6219 65.6474 15.661 65.6474 15.7174C65.6474 15.7733 65.5776 15.8195 65.4924 15.8195C65.4072 15.8195 65.2573 15.8625 65.1595 15.9153C65.0069 15.9974 64.5162 16.1418 64.2988 16.1684C64.2615 16.1727 64.196 16.211 64.154 16.2532C64.1116 16.2951 63.9695 16.3295 63.838 16.3295C63.7065 16.3295 63.599 16.3757 63.599 16.4316C63.599 16.4879 63.4636 16.5337 63.2979 16.5337C63.1323 16.5337 62.971 16.5751 62.9392 16.6264C62.9078 16.6772 62.6515 16.7504 62.37 16.7887C62.0882 16.8274 61.8578 16.9006 61.8578 16.9514C61.8578 17.0023 61.7428 17.0441 61.6019 17.0441C61.461 17.0441 61.346 17.0856 61.346 17.1364C61.346 17.1873 61.1156 17.2604 60.8338 17.2992C60.5524 17.3379 60.322 17.411 60.322 17.4619C60.322 17.5127 60.2066 17.5542 60.0657 17.5542C59.9248 17.5542 59.8098 17.5949 59.8098 17.6449C59.8098 17.6946 59.5955 17.7674 59.3337 17.8065C59.0723 17.8456 58.761 17.9269 58.6425 17.9872C58.1464 18.2391 58.0596 18.2688 57.8139 18.2688C57.6726 18.2688 57.5568 18.3095 57.5568 18.3592C57.5568 18.4088 57.3378 18.4824 57.0701 18.5223C56.448 18.615 56.2545 18.9486 56.5206 19.4692C56.7663 19.9507 57.147 21.1367 57.147 21.4206C57.147 21.5395 57.193 21.6366 57.2495 21.6366C57.3056 21.6366 57.3519 21.7488 57.3519 21.8857C57.3519 22.023 57.3935 22.1607 57.4446 22.192C57.4956 22.2237 57.569 22.4787 57.6078 22.7595C57.6467 23.04 57.7201 23.2696 57.7711 23.2696C57.8221 23.2696 57.8638 23.3846 57.8638 23.525C57.8638 23.665 57.9058 23.78 57.9568 23.78C58.0078 23.78 58.0812 24.0096 58.1201 24.2901C58.1585 24.5709 58.2319 24.8005 58.2833 24.8005C58.3344 24.8005 58.376 24.9155 58.376 25.0555C58.376 25.196 58.4176 25.311 58.4686 25.311C58.5196 25.311 58.5934 25.5406 58.6319 25.821C58.6707 26.1019 58.7441 26.3315 58.7952 26.3315C58.8462 26.3315 58.8882 26.4664 58.8882 26.6315C58.8882 26.7965 58.9286 26.9569 58.9785 26.9874C59.0283 27.0183 59.1001 27.2495 59.1382 27.5014C59.1763 27.7537 59.2505 27.9864 59.3034 28.0192C59.3568 28.0517 59.4 28.1683 59.4 28.2782C59.4 28.3877 59.4463 28.5688 59.5024 28.6803C59.559 28.7917 59.6453 28.965 59.6948 29.0655C59.7442 29.1657 59.8172 29.441 59.8573 29.6773C59.8973 29.9136 59.9719 30.1326 60.0237 30.1643C60.0751 30.196 60.1171 30.334 60.1171 30.4709C60.1171 30.6078 60.1599 30.7201 60.2121 30.7201C60.2643 30.7201 60.3389 30.9728 60.3773 31.2814C60.4162 31.59 60.4888 31.8427 60.5386 31.8427C60.5881 31.8427 60.6289 31.9804 60.6289 32.1489C60.6289 32.3171 60.6725 32.4552 60.7251 32.4552C60.7781 32.4552 60.8526 32.6621 60.8907 32.9156C60.9288 33.1687 61.0006 33.4014 61.0505 33.4319C61.1003 33.4624 61.1411 33.5997 61.1411 33.737C61.1411 33.8739 61.187 33.9858 61.2436 33.9858C61.2997 33.9858 61.346 34.098 61.346 34.2349C61.346 34.3722 61.3892 34.5111 61.4426 34.5435C61.4956 34.5764 61.5697 34.8087 61.6078 35.0598C61.6455 35.3113 61.7173 35.5167 61.7672 35.5167C61.817 35.5167 61.8578 35.6317 61.8578 35.7721C61.8578 35.9121 61.9006 36.0271 61.9532 36.0271C62.0054 36.0271 62.08 36.2802 62.1188 36.59C62.1573 36.8994 62.2299 37.1775 62.2798 37.208C62.3292 37.2389 62.37 37.3762 62.37 37.5131C62.37 37.65 62.4164 37.7622 62.4725 37.7622C62.529 37.7622 62.5749 37.8522 62.5749 37.9625C62.5749 38.1784 62.8332 39.0393 62.9753 39.2971C63.0228 39.3832 63.0946 39.6472 63.1346 39.8834C63.1743 40.1193 63.2492 40.3383 63.3007 40.37C63.3521 40.4017 63.3941 40.5398 63.3941 40.6771C63.3941 40.814 63.4404 40.9258 63.4965 40.9258C63.553 40.9258 63.599 41.0408 63.599 41.1812C63.599 41.3217 63.6417 41.4363 63.6939 41.4363C63.7465 41.4363 63.8207 41.6874 63.8592 41.9944C63.8977 42.3015 63.9938 42.6066 64.0731 42.6719C64.2407 42.8104 65.3707 42.7133 65.4253 42.5553C65.4441 42.5014 65.594 42.4568 65.7581 42.4568C65.9226 42.4568 66.0568 42.4153 66.0568 42.3644C66.0568 42.3136 66.2876 42.2405 66.569 42.2017C66.8508 42.163 67.0812 42.0899 67.0812 42.039C67.0812 41.9882 67.2194 41.9467 67.3882 41.9467C67.5573 41.9467 67.6955 41.9049 67.6955 41.854C67.6955 41.8032 67.9259 41.73 68.2077 41.6913C68.4891 41.653 68.7454 41.5798 68.7768 41.529C68.8082 41.4777 68.9468 41.4363 69.0841 41.4363C69.2215 41.4363 69.3342 41.3956 69.3342 41.3459C69.3342 41.2962 69.5406 41.2247 69.7926 41.1867C70.045 41.1492 70.2781 41.0752 70.3107 41.022C70.3437 40.9692 70.483 40.9258 70.6204 40.9258C70.7578 40.9258 70.8704 40.8801 70.8704 40.8241C70.8704 40.7678 70.9858 40.722 71.1263 40.722C71.2672 40.722 71.3826 40.6802 71.3826 40.6293C71.3826 40.5785 71.6225 40.5042 71.916 40.4639C72.2096 40.4236 72.5323 40.3504 72.6331 40.3012C72.7336 40.2519 72.9016 40.1693 73.006 40.1181C73.1104 40.0665 73.4099 39.9925 73.6717 39.9534C73.9335 39.9143 74.1478 39.8416 74.1478 39.7919C74.1478 39.7418 74.2628 39.7011 74.4037 39.7011C74.5446 39.7011 74.6596 39.6597 74.6596 39.6088C74.6596 39.558 74.89 39.4848 75.1718 39.4461C75.4533 39.4074 75.684 39.3343 75.684 39.2834C75.684 39.2326 75.799 39.1911 75.94 39.1911C76.0809 39.1911 76.1959 39.1492 76.1959 39.0984C76.1959 39.0475 76.4263 38.9744 76.7077 38.9357C76.9895 38.8974 77.2458 38.8242 77.2772 38.7734C77.3086 38.7221 77.4444 38.6807 77.5786 38.6807C77.7125 38.6807 77.851 38.6349 77.8856 38.5786C77.9205 38.5226 78.0614 38.4765 78.1992 38.4765C78.3366 38.4765 78.4492 38.4358 78.4492 38.3861C78.4492 38.3364 78.6631 38.2637 78.9249 38.2246C79.1867 38.1855 79.4862 38.1111 79.5906 38.0599C79.695 38.0083 79.8657 37.9242 79.9701 37.8725C80.0745 37.8213 80.374 37.747 80.6358 37.7079C80.8976 37.6688 81.1119 37.596 81.1119 37.5463C81.1119 37.4967 81.2269 37.456 81.3678 37.456C81.5087 37.456 81.6237 37.4153 81.6237 37.3656C81.6237 37.3156 81.8302 37.2444 82.0822 37.2064C82.3346 37.1689 82.5677 37.0946 82.6003 37.0418C82.6333 36.989 82.8185 36.9455 83.0124 36.9455C83.2063 36.9455 83.3649 36.8998 83.3649 36.8435C83.3649 36.7875 83.4544 36.7414 83.5635 36.7414C83.673 36.7414 83.7884 36.6999 83.8198 36.6491C83.8512 36.5982 84.1075 36.5251 84.3893 36.4863C84.6707 36.4476 84.9011 36.3745 84.9011 36.3236C84.9011 36.2728 85.0161 36.2313 85.157 36.2313C85.2979 36.2313 85.4133 36.1895 85.4133 36.1386C85.4133 36.0878 85.6437 36.0146 85.9252 35.9763C86.207 35.9376 86.4374 35.8644 86.4374 35.8136C86.4374 35.7627 86.5755 35.7209 86.7447 35.7209C86.9135 35.7209 87.0516 35.6841 87.0516 35.6391C87.0516 35.5664 87.5481 35.4224 88.4089 35.2456C88.5635 35.2136 88.6903 35.1521 88.6903 35.1087C88.6903 35.0653 88.9046 34.9976 89.1664 34.9585C89.6311 34.8889 89.7297 34.8564 90.1995 34.6143C90.3255 34.5494 90.5213 34.4962 90.6348 34.4962C90.7482 34.4962 90.8412 34.4547 90.8412 34.4039C90.8412 34.353 91.0716 34.2795 91.353 34.2412C91.6348 34.2024 91.8652 34.1293 91.8652 34.0785C91.8652 34.0276 91.9803 33.9858 92.1212 33.9858C92.2621 33.9858 92.3775 33.9431 92.3775 33.8911C92.3775 33.8391 92.6314 33.7648 92.9419 33.726C93.2523 33.6877 93.5318 33.6153 93.5624 33.5657C93.593 33.5164 93.7308 33.4757 93.8682 33.4757C94.0059 33.4757 94.1182 33.4401 94.1182 33.3967C94.1182 33.3235 94.7085 33.137 95.373 33.0001C95.5277 32.9684 95.6544 32.9015 95.6544 32.8518C95.6544 32.8018 95.7698 32.7611 95.9104 32.7611C96.0513 32.7611 96.1667 32.7196 96.1667 32.6688C96.1667 32.6179 96.397 32.5448 96.6785 32.5061C96.9603 32.4673 97.1907 32.3942 97.1907 32.3433C97.1907 32.2925 97.3288 32.251 97.498 32.251C97.6668 32.251 97.8053 32.2084 97.8053 32.1564C97.8053 32.104 98.0585 32.03 98.3686 31.9913C98.6783 31.9526 98.9318 31.8806 98.9318 31.8309C98.9318 31.7813 99.0468 31.7406 99.1877 31.7406C99.3286 31.7406 99.4436 31.6991 99.4436 31.6483C99.4436 31.5974 99.674 31.5239 99.9558 31.4856C100.237 31.4468 100.494 31.3737 100.525 31.3228C100.557 31.272 100.695 31.2301 100.832 31.2301C100.97 31.2301 101.082 31.1844 101.082 31.1284C101.082 31.0721 101.163 31.0264 101.262 31.0267C101.669 31.0279 102.414 30.6802 102.414 30.4889C102.414 30.2887 102.017 29.7035 101.622 29.3217C101.494 29.1978 101.39 29.0229 101.39 28.933C101.39 28.8426 101.344 28.7972 101.287 28.832C101.231 28.8665 101.185 28.8485 101.185 28.7914C101.185 28.7346 101.078 28.5809 100.946 28.4503C100.815 28.3196 100.664 28.135 100.611 28.04C100.507 27.8553 99.9421 27.1904 99.3157 26.5161C99.1045 26.2888 98.9318 26.0643 98.9318 26.0178C98.9318 25.9708 98.8243 25.8253 98.6932 25.6947C98.5621 25.564 98.4121 25.3821 98.3603 25.2906C98.3085 25.1991 98.0703 24.9163 97.8309 24.662C97.5914 24.4082 97.3956 24.1676 97.3956 24.1281C97.3956 24.0882 97.2343 23.8997 97.0372 23.7088C96.8398 23.518 96.6785 23.32 96.6785 23.2688C96.6785 23.2176 96.4944 22.9883 96.2691 22.7595C96.0438 22.5303 95.8593 22.2929 95.8593 22.2315C95.8593 22.1701 95.698 21.9686 95.501 21.7832C95.3035 21.5978 95.1426 21.4132 95.1426 21.3733C95.1426 21.333 94.9813 21.1441 94.7839 20.9532C94.5868 20.7623 94.4247 20.5742 94.424 20.5347C94.4232 20.4952 94.2395 20.2562 94.0158 20.0039C93.6178 19.5541 93.4623 18.9819 93.6982 18.8364C93.7489 18.8051 93.8242 17.9528 93.865 16.9424C93.9062 15.9317 93.9796 15.1048 94.0291 15.1048C94.0782 15.1048 94.1182 14.6941 94.1182 14.1923C94.1182 13.6905 94.1594 13.2547 94.2096 13.2234C94.2599 13.1925 94.3345 12.3175 94.3757 11.2783C94.4169 10.2394 94.4911 9.38944 94.5405 9.38944C94.59 9.38944 94.6304 8.99908 94.6304 8.52188C94.6304 8.01183 94.6724 7.65432 94.7328 7.65432C94.789 7.65432 94.8353 7.40203 94.8353 7.09303V6.53174L94.5025 6.54699C94.3192 6.5556 94.0428 6.58141 93.8878 6.60488ZM90.0217 63.8871C89.8643 63.9865 89.7171 87.1113 89.8686 87.9499C89.9122 88.1909 89.9836 88.2816 90.1288 88.2816C90.2387 88.2816 90.329 88.3278 90.329 88.3837C90.329 88.4487 91.1654 88.4858 92.6334 88.4858C94.1013 88.4858 94.9377 88.4487 94.9377 88.3837C94.9377 88.3278 95.0225 88.2816 95.1265 88.2816C95.6823 88.2816 95.6544 88.9251 95.6544 76.1276V64.3467L95.3942 64.0671L95.134 63.7874L92.6546 63.789C91.2718 63.7898 90.1076 63.8332 90.0217 63.8871ZM68.9452 66.2571C68.7391 66.4624 68.7698 88.2816 68.9758 88.2816C69.0602 88.2816 69.1293 88.3278 69.1293 88.3837C69.1293 88.4494 70.1023 88.4858 71.8434 88.4858C73.5846 88.4858 74.5572 88.4494 74.5572 88.3837C74.5572 88.3278 74.6262 88.2816 74.711 88.2816C74.8445 88.2816 74.8645 87.8111 74.8645 84.6585V81.0353H78.3538C82.0818 81.0353 82.136 81.0283 82.136 80.5323C82.136 80.4161 82.1819 80.3211 82.2384 80.3211C82.3032 80.3211 82.3408 79.5896 82.3408 78.3309C82.3408 77.0722 82.3032 76.3408 82.2384 76.3408C82.1819 76.3408 82.136 76.2915 82.136 76.2313C82.136 75.8515 81.9389 75.8303 78.3538 75.8303H74.8645V73.6873V71.5438H79.4779H84.091L84.3426 71.2935L84.5938 71.0427V68.7346C84.5938 66.87 84.5655 66.3983 84.4474 66.2806C84.2484 66.0823 69.1434 66.0596 68.9452 66.2571ZM109.583 68.9924C109.583 69.0487 109.332 69.0945 109.025 69.0945C108.719 69.0945 108.44 69.1406 108.405 69.1965C108.37 69.2529 108.209 69.2986 108.046 69.2986C107.884 69.2986 107.727 69.3385 107.696 69.3874C107.666 69.4359 107.456 69.5055 107.23 69.5415C107.003 69.5775 106.818 69.6526 106.818 69.7082C106.818 69.7637 106.703 69.8091 106.562 69.8091C106.421 69.8091 106.305 69.8435 106.305 69.8853C106.304 69.9276 106.097 70.0528 105.844 70.1635C105.591 70.2741 105.384 70.3954 105.384 70.4322C105.384 70.4693 105.303 70.5264 105.205 70.5597C105.106 70.5925 104.934 70.6782 104.821 70.7502C104.427 71.0013 102.823 72.5788 102.823 72.7145C102.823 72.7493 102.708 72.8929 102.568 73.0329C102.427 73.1733 102.311 73.3552 102.311 73.4365C102.311 73.5183 102.265 73.5852 102.209 73.5852C102.153 73.5852 102.107 73.6732 102.107 73.7808C102.107 73.8883 102.072 73.9916 102.03 74.0104C101.909 74.0639 101.595 74.671 101.595 74.8509C101.595 74.9405 101.548 75.014 101.492 75.014C101.436 75.014 101.39 75.1196 101.39 75.2487C101.39 75.3778 101.342 75.5307 101.284 75.5882C101.227 75.6457 101.151 75.9305 101.116 76.2211C101.082 76.5113 101.014 76.7491 100.966 76.7491C100.917 76.7491 100.877 77.0703 100.877 77.4634C100.877 77.8717 100.834 78.178 100.775 78.178C100.717 78.178 100.673 78.4839 100.673 78.8922C100.673 79.3006 100.717 79.6068 100.775 79.6068C100.834 79.6068 100.877 79.9127 100.877 80.3211C100.877 80.7142 100.918 81.0353 100.967 81.0353C101.016 81.0353 101.087 81.3111 101.126 81.6478C101.164 81.9846 101.239 82.2604 101.292 82.2604C101.346 82.2604 101.39 82.375 101.39 82.5154C101.39 82.6558 101.436 82.7704 101.492 82.7704C101.548 82.7704 101.595 82.8393 101.595 82.9237C101.595 83.0078 101.643 83.0767 101.703 83.0767C101.763 83.0767 101.784 83.1209 101.751 83.1745C101.697 83.2621 101.863 83.6587 102.009 83.7909C102.04 83.8191 102.147 84.0158 102.246 84.2278C102.345 84.4402 102.516 84.6694 102.625 84.7371C102.734 84.8051 102.823 84.9264 102.823 85.0066C102.823 85.1896 104.593 86.9177 104.871 87.0057C104.984 87.0413 105.076 87.1137 105.076 87.1661C105.076 87.2181 105.145 87.2611 105.23 87.2611C105.315 87.2611 105.384 87.3061 105.384 87.3613C105.384 87.4164 105.499 87.4903 105.64 87.5256C105.781 87.5608 105.896 87.6304 105.896 87.6805C105.896 87.7305 105.988 87.7716 106.101 87.7716C106.213 87.7716 106.305 87.8083 106.305 87.8533C106.305 87.9503 107.199 88.2828 107.458 88.2824C107.556 88.282 107.637 88.3278 107.637 88.3837C107.637 88.44 107.794 88.4858 107.987 88.4858C108.179 88.4858 108.356 88.5433 108.379 88.6133C108.411 88.7095 108.909 88.7408 110.402 88.7408C111.895 88.7408 112.393 88.7095 112.425 88.6133C112.448 88.5433 112.598 88.4858 112.758 88.4858C112.917 88.4858 113.063 88.4514 113.082 88.4091C113.131 88.2985 113.773 87.9754 113.944 87.9754C114.023 87.9754 114.089 87.9296 114.089 87.8737C114.089 87.8174 114.158 87.7716 114.242 87.7716C114.327 87.7716 114.396 87.7286 114.396 87.6761C114.396 87.6237 114.496 87.5494 114.618 87.5111C114.74 87.4724 114.959 87.3218 115.104 87.1763C115.369 86.9118 115.369 86.9118 115.402 87.1375C115.42 87.2615 115.477 87.3632 115.53 87.3632C115.582 87.3632 115.625 87.4551 115.625 87.5674C115.625 87.6797 115.671 87.7716 115.728 87.7716C115.784 87.7716 115.83 87.8529 115.83 87.9527C115.83 88.4271 116.106 88.4858 118.34 88.4858C119.671 88.4858 120.438 88.4487 120.438 88.3837C120.438 88.3278 120.52 88.2816 120.619 88.2816C120.732 88.2816 120.867 88.1287 120.978 87.8729C121.199 87.3644 121.257 70.2964 121.039 69.8787C120.743 69.3104 120.695 69.2986 118.649 69.2986H116.749L116.52 69.7833C116.394 70.05 116.256 70.2835 116.214 70.3023C116.172 70.3211 116.137 70.4189 116.137 70.5202C116.137 70.6211 116.077 70.846 116.004 71.0193L115.871 71.3345L115.62 71.0811C114.81 70.2624 114.512 70.0129 114.346 70.0129C114.261 70.0129 114.191 69.9671 114.191 69.9112C114.191 69.8548 114.122 69.8091 114.038 69.8091C113.953 69.8091 113.884 69.7649 113.884 69.7113C113.884 69.6577 113.723 69.5838 113.526 69.547C113.329 69.5102 113.167 69.439 113.167 69.3894C113.167 69.3393 113.032 69.2986 112.866 69.2986C112.7 69.2986 112.536 69.2529 112.502 69.1965C112.467 69.1406 112.257 69.0945 112.035 69.0945C111.812 69.0945 111.631 69.0487 111.631 68.9924C111.631 68.9313 111.221 68.8903 110.607 68.8903C109.992 68.8903 109.583 68.9313 109.583 68.9924ZM134.725 68.9924C134.691 69.0487 134.46 69.0945 134.213 69.0945C133.966 69.0945 133.736 69.1406 133.701 69.1965C133.667 69.2529 133.525 69.2986 133.388 69.2986C133.25 69.2986 133.138 69.3401 133.138 69.3909C133.138 69.4418 132.907 69.5153 132.626 69.5537C132.344 69.5924 132.114 69.6655 132.114 69.7164C132.114 69.7672 132.045 69.8091 131.96 69.8091C131.876 69.8091 131.806 69.8548 131.806 69.9112C131.806 69.9671 131.717 70.0129 131.608 70.0129C131.498 70.0129 131.38 70.0598 131.344 70.1169C131.309 70.1736 131.246 70.199 131.204 70.1732C131.162 70.1474 131.062 70.2155 130.983 70.3246C130.904 70.4341 130.792 70.5233 130.733 70.5233C130.674 70.5233 130.503 70.6383 130.351 70.7783C130.199 70.9187 130.05 71.0337 130.021 71.0337C129.951 71.0337 128.836 72.1446 128.836 72.2138C128.836 72.2432 128.721 72.391 128.58 72.5424C128.44 72.6938 128.325 72.8655 128.325 72.9238C128.325 72.982 128.234 73.0947 128.123 73.1741C128.013 73.2535 127.892 73.4588 127.854 73.6306C127.817 73.8019 127.758 73.9654 127.723 73.9935C127.576 74.1101 127.3 74.7038 127.3 74.9022C127.3 75.0199 127.254 75.1161 127.198 75.1161C127.142 75.1161 127.096 75.2538 127.096 75.4224C127.096 75.5906 127.049 75.7283 126.993 75.7283C126.937 75.7283 126.891 75.8569 126.891 76.0142C126.891 76.1714 126.833 76.3572 126.763 76.4276C126.668 76.5219 126.634 77.1379 126.634 78.7901C126.634 80.4419 126.668 81.0584 126.763 81.1526C126.833 81.2231 126.891 81.4088 126.891 81.5661C126.891 81.7233 126.937 81.852 126.993 81.852C127.049 81.852 127.096 81.9639 127.096 82.1012C127.096 82.2381 127.136 82.375 127.184 82.4051C127.233 82.4352 127.303 82.6445 127.339 82.8702C127.376 83.0962 127.45 83.2809 127.506 83.2809C127.562 83.2809 127.607 83.3497 127.607 83.4338C127.607 83.5183 127.654 83.5871 127.71 83.5871C127.766 83.5871 127.812 83.6755 127.812 83.7839C127.812 83.8922 127.881 84.0495 127.966 84.1336C128.051 84.218 128.12 84.315 128.12 84.3495C128.12 84.4285 128.289 84.642 128.698 85.0793C128.876 85.269 129.002 85.4239 128.98 85.4239C128.957 85.4239 129.129 85.6078 129.361 85.8323C129.593 86.0568 129.826 86.2406 129.878 86.2406C129.93 86.2406 130.079 86.3552 130.21 86.4957C130.34 86.6361 130.494 86.7507 130.551 86.7507C130.608 86.7507 130.712 86.8195 130.782 86.904C130.853 86.9881 130.996 87.057 131.102 87.057C131.208 87.057 131.295 87.0918 131.295 87.134C131.295 87.2232 131.73 87.4231 132.139 87.5216C132.294 87.5588 132.421 87.6304 132.421 87.6805C132.421 87.7305 132.559 87.7716 132.728 87.7716C132.897 87.7716 133.035 87.8174 133.035 87.8737C133.035 87.9296 133.171 87.9754 133.337 87.9754C133.502 87.9754 133.661 88.0121 133.688 88.0571C133.82 88.2695 137.754 88.3094 137.825 88.0994C137.847 88.0313 137.977 87.9754 138.114 87.9754C138.25 87.9754 138.361 87.9296 138.361 87.8737C138.361 87.8174 138.43 87.7716 138.515 87.7716C138.599 87.7716 138.668 87.7254 138.668 87.6695C138.668 87.6132 138.762 87.5674 138.876 87.5674C138.991 87.5674 139.111 87.4986 139.143 87.4141C139.176 87.33 139.258 87.2611 139.326 87.2611C139.394 87.2611 139.693 87.0315 139.99 86.7507C140.286 86.4702 140.548 86.2406 140.572 86.2406C140.659 86.2406 140.61 87.2514 140.521 87.3065C140.469 87.3382 140.397 87.5396 140.361 87.7536C140.325 87.9679 140.206 88.2073 140.096 88.2859C139.987 88.3646 139.897 88.4647 139.897 88.5085C139.897 88.5957 139.566 88.9474 139.424 89.0103C139.129 89.1418 138.566 89.5407 138.566 89.6186C138.566 89.669 138.451 89.7105 138.31 89.7105C138.169 89.7105 138.054 89.7543 138.054 89.8075C138.054 89.8611 137.777 89.9358 137.439 89.9737C137.101 90.0121 136.825 90.0832 136.825 90.1321C136.825 90.2526 135.228 90.2456 135.006 90.1239C134.908 90.0703 134.563 89.9984 134.239 89.9636C133.915 89.9284 133.65 89.8666 133.65 89.8259C133.65 89.7848 133.489 89.6933 133.292 89.6225C133.094 89.5513 132.933 89.4504 132.933 89.398C132.933 89.3452 132.866 89.3025 132.783 89.3025C132.701 89.3025 132.522 89.1813 132.384 89.033C131.822 88.4299 130.065 89.0491 130.065 89.8505C130.065 89.917 129.973 90.0379 129.861 90.1188C129.748 90.1998 129.656 90.3175 129.656 90.3809C129.656 90.4443 129.575 90.591 129.477 90.7071C129.378 90.8229 129.217 91.0138 129.119 91.1303C128.525 91.8399 129.15 93.4201 130.15 93.7361C130.273 93.7749 130.373 93.841 130.373 93.8828C130.373 93.9247 130.534 94.0221 130.731 94.0991C130.928 94.1762 131.09 94.2747 131.09 94.3178C131.09 94.3608 131.251 94.4261 131.448 94.4629C131.645 94.5 131.806 94.5708 131.806 94.6209C131.806 94.6706 131.922 94.7117 132.062 94.7117C132.203 94.7117 132.319 94.7543 132.319 94.8063C132.319 94.8583 132.573 94.9326 132.883 94.9714C133.194 95.0097 133.473 95.0821 133.504 95.1317C133.535 95.1814 133.738 95.2217 133.955 95.2217C134.172 95.2217 134.368 95.2745 134.389 95.3387C134.443 95.501 138.593 95.4971 138.647 95.3351C138.668 95.2726 138.863 95.2217 139.08 95.2217C139.298 95.2217 139.501 95.1802 139.533 95.1294C139.564 95.0785 139.821 95.0054 140.102 94.9667C140.384 94.928 140.614 94.8548 140.614 94.804C140.614 94.7531 140.683 94.7117 140.768 94.7117C140.852 94.7117 140.921 94.6655 140.921 94.6096C140.921 94.5532 141.033 94.5075 141.17 94.5075C141.307 94.5075 141.488 94.4386 141.572 94.3541C141.657 94.2701 141.776 94.2012 141.836 94.2012C141.896 94.2012 141.946 94.1554 141.946 94.0991C141.946 94.0432 142.038 93.997 142.15 93.997C142.263 93.997 142.355 93.9544 142.355 93.902C142.355 93.8496 142.448 93.7776 142.561 93.7416C142.821 93.6595 144.608 91.8786 144.608 91.7018C144.608 91.6291 144.677 91.543 144.762 91.5109C144.846 91.4785 144.916 91.3697 144.916 91.2692C144.916 91.1687 145.007 91.0294 145.119 90.9598C145.241 90.8835 145.349 90.67 145.388 90.4247C145.424 90.2006 145.494 90.0167 145.543 90.0167C145.592 90.0167 145.632 89.9479 145.632 89.8638C145.632 89.7793 145.674 89.7105 145.725 89.7105C145.776 89.7105 145.85 89.4809 145.888 89.2004C145.927 88.9196 146 88.69 146.051 88.69C146.102 88.69 146.144 88.4835 146.144 88.2308C146.144 87.9781 146.19 87.7716 146.247 87.7716C146.314 87.7716 146.349 84.7097 146.349 78.7901C146.349 72.8706 146.314 69.8091 146.247 69.8091C146.19 69.8091 146.144 69.7398 146.144 69.6557C146.144 69.5716 146.075 69.5028 145.991 69.5028C145.906 69.5028 145.837 69.4566 145.837 69.4007C145.837 69.3366 145.152 69.2986 143.987 69.2986C142.117 69.2986 141.843 69.3499 141.843 69.6996C141.843 69.7598 141.802 69.8091 141.752 69.8091C141.671 69.8091 141.61 69.9421 141.47 70.4212C141.445 70.5053 141.398 70.7466 141.365 70.9571C141.288 71.4421 141.331 71.457 140.551 70.6762C140.187 70.3117 139.839 70.0129 139.777 70.0129C139.716 70.0129 139.59 69.9272 139.499 69.8228C139.408 69.7179 139.174 69.5971 138.979 69.5544C138.784 69.5118 138.53 69.4297 138.415 69.3718C137.922 69.1226 137.839 69.0945 137.6 69.0945C137.462 69.0945 137.32 69.0487 137.286 68.9924C137.249 68.9337 136.706 68.8903 136.005 68.8903C135.305 68.8903 134.762 68.9337 134.725 68.9924ZM111.162 74.3886C111.192 74.4375 111.458 74.5005 111.752 74.5286C112.047 74.5568 112.305 74.6315 112.327 74.6949C112.348 74.7582 112.43 74.8099 112.51 74.8099C112.59 74.8099 112.655 74.8556 112.655 74.9119C112.655 74.9679 112.729 75.014 112.82 75.014C113.132 75.014 114.396 76.2892 114.396 76.6044C114.396 76.6838 114.442 76.7491 114.499 76.7491C114.555 76.7491 114.601 76.818 114.601 76.9021C114.601 76.9862 114.645 77.055 114.699 77.055C114.753 77.055 114.824 77.2275 114.858 77.4379C114.892 77.6484 114.963 77.9003 115.016 77.9977C115.138 78.2202 115.144 79.7793 115.024 79.8537C114.975 79.8838 114.905 80.093 114.869 80.3187C114.833 80.5444 114.758 80.7294 114.702 80.7294C114.647 80.7294 114.601 80.7983 114.601 80.8824C114.601 80.9665 114.552 81.0353 114.492 81.0353C114.433 81.0353 114.409 81.0752 114.439 81.1241C114.469 81.1726 114.403 81.2946 114.292 81.3948C114.18 81.4953 114.089 81.651 114.089 81.7409C114.089 81.8309 113.778 82.1109 113.398 82.3632C113.017 82.6151 112.691 82.8545 112.673 82.8948C112.655 82.9351 112.482 82.9977 112.288 83.034C112.094 83.07 111.911 83.1404 111.88 83.1905C111.805 83.3102 109.611 83.3074 109.537 83.1878C109.505 83.1365 109.303 83.0649 109.089 83.0286C108.873 82.9926 108.633 82.8737 108.554 82.7645C108.475 82.6554 108.357 82.5662 108.292 82.5662C108.125 82.5662 107.33 81.7554 107.33 81.5849C107.33 81.507 107.283 81.4436 107.227 81.4436C107.171 81.4436 107.125 81.3517 107.125 81.2395C107.125 81.1272 107.081 81.0353 107.027 81.0353C106.973 81.0353 106.899 80.8741 106.862 80.677C106.825 80.4799 106.754 80.2937 106.704 80.2628C106.653 80.2323 106.613 80.0285 106.613 79.8106C106.613 79.5928 106.567 79.3862 106.51 79.3514C106.454 79.3166 106.408 79.1074 106.408 78.8864C106.408 78.665 106.454 78.4839 106.51 78.4839C106.567 78.4839 106.613 78.2773 106.613 78.0247C106.613 77.772 106.653 77.5655 106.704 77.5655C106.754 77.5655 106.825 77.3589 106.863 77.1063C106.902 76.8536 106.965 76.647 107.004 76.647C107.043 76.647 107.137 76.5062 107.214 76.3341C107.383 75.9528 108.307 75.014 108.512 75.014C108.594 75.014 108.661 74.9788 108.661 74.9358C108.661 74.82 109.444 74.5036 109.731 74.5036C109.868 74.5036 110.009 74.4578 110.043 74.4015C110.121 74.2763 111.086 74.265 111.162 74.3886ZM137.183 74.4015C137.218 74.4578 137.359 74.5036 137.496 74.5036C137.783 74.5036 138.566 74.82 138.566 74.9358C138.566 74.9788 138.632 75.014 138.712 75.014C138.96 75.014 140.273 76.4476 140.372 76.8254C140.405 76.9518 140.472 77.055 140.523 77.055C140.573 77.055 140.614 77.1661 140.614 77.3018C140.614 77.4376 140.671 77.5674 140.741 77.5905C140.833 77.6214 140.868 77.9805 140.868 78.8922C140.868 79.804 140.833 80.1634 140.741 80.1939C140.671 80.217 140.614 80.3469 140.614 80.4826C140.614 80.6183 140.573 80.7294 140.523 80.7294C140.472 80.7294 140.403 80.844 140.367 80.9845C140.332 81.1249 140.258 81.2395 140.202 81.2395C140.147 81.2395 140.102 81.2856 140.102 81.342C140.102 81.5086 139.149 82.434 138.899 82.5099C138.772 82.5486 138.668 82.623 138.668 82.6754C138.668 82.7278 138.599 82.7704 138.515 82.7704C138.43 82.7704 138.361 82.8123 138.361 82.8631C138.361 82.914 138.13 82.9871 137.849 83.0258C137.567 83.0642 137.337 83.1373 137.337 83.1882C137.337 83.3114 135.625 83.3078 135.548 83.1846C135.516 83.1318 135.282 83.0575 135.03 83.02C134.778 82.9824 134.572 82.9206 134.572 82.8831C134.572 82.8455 134.422 82.7266 134.24 82.6194C133.896 82.4168 133.138 81.7139 133.138 81.5974C133.138 81.561 133.069 81.4624 132.984 81.3779C132.9 81.2938 132.83 81.1366 132.83 81.0283C132.83 80.9199 132.785 80.8315 132.728 80.8315C132.672 80.8315 132.626 80.7204 132.626 80.5847C132.626 80.449 132.568 80.3191 132.498 80.2956C132.403 80.2644 132.37 79.8799 132.37 78.841C132.37 77.8025 132.403 77.418 132.498 77.3867C132.568 77.3636 132.626 77.2334 132.626 77.0976C132.626 76.9619 132.668 76.8508 132.72 76.8508C132.772 76.8508 132.845 76.7132 132.882 76.545C132.919 76.3764 132.982 76.2387 133.022 76.2387C133.061 76.2387 133.182 76.0893 133.29 75.907C133.548 75.4728 133.87 75.1576 134.145 75.0704C134.267 75.0316 134.367 74.9573 134.367 74.9049C134.367 74.8525 134.436 74.8099 134.521 74.8099C134.605 74.8099 134.674 74.7657 134.674 74.7113C134.674 74.6569 134.904 74.5822 135.186 74.545C135.468 74.5079 135.698 74.4375 135.698 74.3886C135.698 74.2642 137.106 74.2767 137.183 74.4015Z" fill="#33CCCC"/>
<path fill-rule="evenodd" clip-rule="evenodd" d="M77.9912 40.6146C77.9547 40.6736 77.8118 40.7221 77.6745 40.7221C77.5371 40.7221 77.4244 40.7679 77.4244 40.8242C77.4244 40.8801 77.2863 40.9259 77.1171 40.9259C76.9483 40.9259 76.8102 40.9678 76.8102 41.0186C76.8102 41.0695 76.5798 41.1426 76.298 41.1813C76.0165 41.2197 75.7602 41.2932 75.7288 41.344C75.697 41.3949 75.5589 41.4363 75.4215 41.4363C75.2841 41.4363 75.1715 41.4778 75.1715 41.529C75.1715 41.5799 74.9411 41.653 74.6593 41.6914C74.3778 41.7301 74.1474 41.8032 74.1474 41.8541C74.1474 41.9049 74.0321 41.9468 73.8911 41.9468C73.7506 41.9468 73.6352 41.9882 73.6352 42.0391C73.6352 42.0899 73.4048 42.1631 73.123 42.2018C72.8416 42.2405 72.6112 42.3137 72.6112 42.3645C72.6112 42.4154 72.4958 42.4568 72.3549 42.4568C72.2144 42.4568 72.099 42.503 72.099 42.5589C72.099 42.6153 71.9404 42.661 71.7465 42.661C71.5526 42.661 71.3674 42.7044 71.3344 42.7572C71.3018 42.81 71.0687 42.8844 70.8163 42.9219C70.5643 42.9595 70.3579 43.031 70.3579 43.0811C70.3579 43.1308 70.2429 43.1715 70.102 43.1715C69.961 43.1715 69.846 43.2129 69.846 43.2638C69.846 43.3146 69.6156 43.3878 69.3338 43.4265C69.0524 43.4652 68.8216 43.5384 68.8216 43.5892C68.8216 43.6401 68.7066 43.6815 68.5657 43.6815C68.4248 43.6815 68.3098 43.7234 68.3098 43.7742C68.3098 43.8251 68.0794 43.8982 67.7976 43.9369C67.5162 43.9753 67.2599 44.0488 67.2285 44.0996C67.1971 44.1505 67.0585 44.192 66.9211 44.192C66.7838 44.192 66.6711 44.2319 66.6711 44.2807C66.6711 44.3296 66.4427 44.4 66.1632 44.4368C65.8838 44.474 65.6278 44.5487 65.5941 44.603C65.5599 44.6578 65.4257 44.7024 65.295 44.7024C65.1643 44.7024 65.0073 44.7626 64.9461 44.8362C64.8213 44.986 64.9045 45.7229 65.0458 45.7229C65.0948 45.7229 65.1349 45.8379 65.1349 45.9779C65.1349 46.1183 65.1733 46.2333 65.22 46.2333C65.295 46.2333 65.357 46.4633 65.6118 47.6876C65.6439 47.8417 65.7111 47.9681 65.7609 47.9681C65.8111 47.9681 65.852 48.0831 65.852 48.2235C65.852 48.3635 65.892 48.4785 65.9411 48.4785C65.9901 48.4785 66.0604 48.7062 66.0977 48.9846C66.1346 49.2631 66.2099 49.5182 66.2645 49.5518C66.319 49.5858 66.3638 49.7255 66.3638 49.8624C66.3638 49.9993 66.4058 50.1115 66.4568 50.1115C66.5078 50.1115 66.5812 50.3411 66.6201 50.6216C66.6586 50.9024 66.7319 51.132 66.783 51.132C66.834 51.132 66.876 51.247 66.876 51.3871C66.876 51.5275 66.9156 51.6425 66.9639 51.6425C67.0126 51.6425 67.0805 51.8799 67.115 52.1705C67.1496 52.4607 67.2249 52.7455 67.283 52.803C67.3407 52.8609 67.3878 53.0134 67.3878 53.1425C67.3878 53.2716 67.4235 53.3772 67.4671 53.3772C67.5405 53.3772 67.7277 53.9655 67.8651 54.6277C67.8973 54.7818 67.964 54.9081 68.0142 54.9081C68.0641 54.9081 68.1049 55.0231 68.1049 55.1636C68.1049 55.3036 68.1465 55.4186 68.1975 55.4186C68.2486 55.4186 68.3224 55.6482 68.3608 55.929C68.3997 56.2095 68.4731 56.4391 68.5241 56.4391C68.5751 56.4391 68.6171 56.5998 68.6171 56.7962C68.6171 56.9929 68.6587 57.1537 68.7098 57.1537C68.7608 57.1537 68.8342 57.3833 68.873 57.6637C68.9119 57.9446 68.9853 58.1742 69.0363 58.1742C69.0873 58.1742 69.1289 58.2892 69.1289 58.4292C69.1289 58.5696 69.1709 58.6846 69.222 58.6846C69.273 58.6846 69.3464 58.9142 69.3852 59.1947C69.4237 59.4751 69.4971 59.7305 69.5481 59.7618C69.5992 59.7935 69.6412 59.9312 69.6412 60.0685C69.6412 60.2054 69.6871 60.3173 69.7436 60.3173C69.7997 60.3173 69.846 60.4323 69.846 60.5727C69.846 60.7131 69.892 60.8277 69.9485 60.8277C70.0046 60.8277 70.0509 60.9427 70.0509 61.0827C70.0509 61.5994 70.5388 61.2587 70.6338 60.6756C70.666 60.4788 70.7319 60.3173 70.781 60.3173C70.83 60.3173 70.8701 60.2257 70.8701 60.1135C70.8701 60.0012 70.9101 59.9093 70.9596 59.9093C71.0086 59.9093 71.0781 59.7255 71.1142 59.5009C71.1503 59.2764 71.2253 59.0926 71.281 59.0926C71.3368 59.0926 71.3823 58.978 71.3823 58.8376C71.3823 58.6971 71.4255 58.5825 71.4784 58.5825C71.531 58.5825 71.6056 58.3756 71.6437 58.1233C71.6814 57.8707 71.7536 57.6637 71.8034 57.6637C71.8533 57.6637 71.8941 57.5949 71.8941 57.5108C71.8941 57.4267 71.9404 57.3579 71.9965 57.3579C72.0531 57.3579 72.099 57.2456 72.099 57.1087C72.099 56.9714 72.141 56.8333 72.1924 56.8021C72.2438 56.7704 72.3172 56.5607 72.3553 56.3366C72.3934 56.1125 72.4664 55.929 72.5178 55.929C72.5692 55.929 72.6112 55.814 72.6112 55.6736C72.6112 55.5336 72.6567 55.4186 72.7125 55.4186C72.7678 55.4186 72.8432 55.2347 72.8789 55.0102C72.915 54.7857 72.9849 54.6023 73.0339 54.6023C73.083 54.6023 73.123 54.5103 73.123 54.3981C73.123 54.2858 73.1635 54.1939 73.2125 54.1939C73.2616 54.1939 73.3314 54.0101 73.3672 53.7855C73.4033 53.561 73.4782 53.3772 73.534 53.3772C73.5897 53.3772 73.6352 53.2626 73.6352 53.1222C73.6352 52.9817 73.6761 52.8671 73.7259 52.8671C73.7761 52.8671 73.848 52.6602 73.886 52.4079C73.9241 52.1553 73.9983 51.9483 74.0513 51.9483C74.1039 51.9483 74.1474 51.8337 74.1474 51.6933C74.1474 51.5529 74.182 51.4383 74.2248 51.4383C74.3256 51.4383 74.5344 50.9646 74.6184 50.5445C74.6549 50.3623 74.7252 50.2136 74.7747 50.2136C74.8237 50.2136 74.8642 50.0986 74.8642 49.9582C74.8642 49.8182 74.9097 49.7032 74.9654 49.7032C75.0211 49.7032 75.0961 49.5193 75.1322 49.2948C75.1679 49.0703 75.2378 48.8869 75.2869 48.8869C75.3359 48.8869 75.3764 48.7949 75.3764 48.6827C75.3764 48.5704 75.418 48.4785 75.469 48.4785C75.52 48.4785 75.5934 48.2489 75.6323 47.9681C75.6711 47.6876 75.7445 47.458 75.7956 47.458C75.8466 47.458 75.8882 47.3892 75.8882 47.3047C75.8882 47.2206 75.929 47.1517 75.9792 47.1517C76.0291 47.1517 76.1009 46.9452 76.139 46.6925C76.1771 46.4399 76.2513 46.2333 76.3042 46.2333C76.3572 46.2333 76.4004 46.1183 76.4004 45.9779C76.4004 45.8379 76.4412 45.7229 76.4907 45.7229C76.5405 45.7229 76.6673 45.4475 76.7725 45.1115C76.8777 44.7752 76.9982 44.4994 77.0406 44.499C77.0826 44.4986 77.1171 44.3832 77.1171 44.2432C77.1171 44.1028 77.1575 43.9878 77.2066 43.9878C77.2557 43.9878 77.3255 43.8043 77.3616 43.5798C77.3974 43.3549 77.4723 43.1715 77.5281 43.1715C77.5838 43.1715 77.6293 43.0565 77.6293 42.9164C77.6293 42.776 77.6725 42.661 77.7255 42.661C77.7785 42.661 77.8526 42.4545 77.8907 42.2018C77.9288 41.9491 78.0006 41.7426 78.0505 41.7426C78.1007 41.7426 78.1415 41.6738 78.1415 41.5893C78.1415 41.5052 78.1902 41.4363 78.2499 41.4363C78.3974 41.4363 78.328 40.5954 78.1765 40.5457C78.1113 40.5246 78.0277 40.5555 77.9912 40.6146ZM32.7466 62.0414C32.5868 62.203 32.5676 62.465 32.5687 64.4595C32.5703 66.9116 32.599 67.1552 32.8867 67.1552C32.9926 67.1552 33.0794 67.2014 33.0794 67.2573C33.0794 67.3227 33.9158 67.3594 35.3838 67.3594C36.8517 67.3594 37.6881 67.3227 37.6881 67.2573C37.6881 67.2014 37.7745 67.1552 37.8805 67.1552C38.1156 67.1552 38.2635 66.9886 38.3566 66.619C38.3954 66.4649 38.4684 66.3389 38.5187 66.3389C38.5689 66.3389 38.6097 65.4894 38.6097 64.4509C38.6097 63.2602 38.572 62.5628 38.5073 62.5628C38.4511 62.5628 38.4048 62.4811 38.4048 62.3813C38.4048 61.8908 38.1654 61.8478 35.4595 61.8545C33.1736 61.8599 32.9083 61.8783 32.7466 62.0414ZM10.5731 66.3378C10.3799 66.646 10.3949 88.0529 10.5888 88.3071C10.8231 88.615 15.9739 88.5755 16.3342 88.2633L16.5909 88.0408V84.3851V80.7295H19.5095C21.3872 80.7295 22.4285 80.6931 22.4285 80.6274C22.4285 80.5711 22.5898 80.5253 22.7869 80.5253C22.9839 80.5253 23.1452 80.4843 23.1452 80.4346C23.1452 80.3845 23.3065 80.3137 23.504 80.277C23.701 80.2402 23.8623 80.1659 23.8623 80.1123C23.8623 80.0587 23.9314 80.0149 24.0158 80.0149C24.1002 80.0149 24.1696 79.9691 24.1696 79.9128C24.1696 79.8569 24.2631 79.8107 24.3777 79.8107C24.4919 79.8107 24.612 79.7419 24.6446 79.6578C24.6768 79.5737 24.7874 79.5048 24.8903 79.5048C24.9931 79.5048 25.1065 79.4129 25.1423 79.3007C25.1784 79.1884 25.2482 79.0965 25.2981 79.0965C25.437 79.0965 26.4226 78.083 26.4226 77.9403C26.4226 77.8714 26.5144 77.7486 26.6271 77.668C26.7393 77.5871 26.8598 77.3704 26.8944 77.1861C26.9289 77.0019 26.9984 76.8509 27.0486 76.8509C27.0985 76.8509 27.1393 76.7821 27.1393 76.698C27.1393 76.6139 27.1813 76.5451 27.2323 76.5451C27.2833 76.5451 27.3567 76.3154 27.3956 76.0346C27.4341 75.7542 27.5079 75.5242 27.5589 75.5242C27.6099 75.5242 27.6515 75.3176 27.6515 75.065C27.6515 74.8123 27.6978 74.6058 27.754 74.6058C27.8164 74.6058 27.8564 74.1465 27.8564 73.4319C27.8564 72.7177 27.8164 72.2585 27.754 72.2585C27.6978 72.2585 27.6515 72.0516 27.6515 71.7993C27.6515 71.5466 27.6099 71.3397 27.5589 71.3397C27.5079 71.3397 27.4341 71.1101 27.3956 70.8296C27.3567 70.5488 27.2833 70.3192 27.2323 70.3192C27.1813 70.3192 27.1393 70.2504 27.1393 70.1663C27.1393 70.0822 27.0934 70.0129 27.0372 70.0129C26.9807 70.0129 26.9348 69.9198 26.9348 69.8056C26.9348 69.6918 26.8653 69.5721 26.7809 69.5397C26.6966 69.5076 26.6275 69.3942 26.6275 69.2878C26.6275 69.1814 26.5843 69.0945 26.5317 69.0945C26.4795 69.0945 26.4089 69.0077 26.3751 68.9021C26.3217 68.7351 26.003 68.3889 25.1387 67.5597C25.0241 67.4494 24.8793 67.3594 24.8169 67.3594C24.7545 67.3594 24.6768 67.2906 24.6446 67.2065C24.612 67.1224 24.4919 67.0535 24.3777 67.0535C24.2631 67.0535 24.1696 67.0074 24.1696 66.9515C24.1696 66.8951 24.1002 66.8494 24.0158 66.8494C23.9314 66.8494 23.8623 66.8056 23.8623 66.752C23.8623 66.6984 23.701 66.6241 23.504 66.5873C23.3065 66.5505 23.1452 66.4797 23.1452 66.4297C23.1452 66.3796 22.9839 66.3389 22.7869 66.3389C22.5898 66.3389 22.4285 66.2932 22.4285 66.2368C22.4285 66.008 10.7175 66.1074 10.5731 66.3378ZM54.1256 68.9924C54.0907 69.0488 53.8344 69.0945 53.5561 69.0945C53.2778 69.0945 53.0502 69.1407 53.0502 69.1966C53.0502 69.253 52.8889 69.2987 52.6918 69.2987C52.4944 69.2987 52.3331 69.3394 52.3331 69.3891C52.3331 69.4387 52.1258 69.5107 51.8723 69.5487C51.6187 69.5862 51.4115 69.6605 51.4115 69.7133C51.4115 69.7657 51.3424 69.8092 51.258 69.8092C51.1732 69.8092 51.1042 69.8498 51.1042 69.8999C51.1042 69.95 50.9892 70.02 50.8483 70.0552C50.7074 70.0904 50.5923 70.1639 50.5923 70.2191C50.5923 70.2742 50.5209 70.3192 50.4338 70.3192C50.3466 70.3192 50.0743 70.5312 49.8285 70.7905C49.3018 71.346 49.2021 71.3198 49.1334 70.6063C49.1052 70.3129 49.0302 70.0556 48.9666 70.0345C48.903 70.0133 48.8512 69.9089 48.8512 69.8025C48.8512 69.6809 48.7558 69.585 48.5953 69.5447C48.4544 69.5095 48.339 69.4399 48.339 69.3898C48.339 69.3398 47.5556 69.2987 46.5979 69.2987C45.5056 69.2987 44.8571 69.3367 44.8571 69.4008C44.8571 69.4567 44.7955 69.5029 44.7206 69.5029C44.6456 69.5029 44.5227 69.6175 44.4474 69.7579C44.372 69.8983 44.2719 70.0129 44.2252 70.0129C44.1785 70.0129 44.14 74.0089 44.14 78.8923C44.14 84.7438 44.175 87.7717 44.2425 87.7717C44.299 87.7717 44.3449 87.8624 44.3449 87.9735C44.3449 88.1041 44.4356 88.1984 44.6008 88.2399C44.7417 88.2751 44.8571 88.3451 44.8571 88.3948C44.8571 88.4456 45.9016 88.4859 47.2125 88.4859C48.7146 88.4859 49.5679 88.4491 49.5679 88.3838C49.5679 88.3279 49.6174 88.2817 49.6778 88.2817C50.1261 88.2817 50.1296 88.2375 50.1594 82.5272C50.1751 79.5506 50.2238 77.0899 50.2674 77.0598C50.3474 77.0039 50.6948 76.3072 50.6948 76.2028C50.6948 76.1359 51.7078 75.1162 51.7742 75.1162C51.9072 75.1162 52.6404 74.7501 52.6404 74.6836C52.6404 74.641 52.963 74.6058 53.3575 74.6058C53.7669 74.6058 54.0742 74.6496 54.0742 74.7078C54.0742 74.7642 54.1896 74.8099 54.3301 74.8099C54.471 74.8099 54.5864 74.8557 54.5864 74.912C54.5864 74.968 54.6532 75.0141 54.7352 75.0141C54.9381 75.0141 56.1227 76.2227 56.1227 76.43C56.1227 76.484 56.18 76.547 56.2506 76.5705C56.3499 76.6033 56.3908 77.8632 56.4324 82.2178C56.4893 88.1343 56.4912 88.1585 56.9163 88.3584C57.2578 88.5191 61.8575 88.5426 61.8575 88.3838C61.8575 88.3279 61.9069 88.2817 61.9674 88.2817C62.367 88.2817 62.3697 88.2363 62.3697 81.6553C62.3697 78.1264 62.3301 75.3204 62.2806 75.3204C62.2315 75.3204 62.1601 75.0462 62.122 74.711C62.0844 74.3758 62.009 74.0746 61.9552 74.0417C61.9015 74.0085 61.8575 73.8692 61.8575 73.7323C61.8575 73.5954 61.8116 73.4832 61.7554 73.4832C61.6989 73.4832 61.653 73.3913 61.653 73.279C61.653 73.1667 61.609 73.0748 61.5553 73.0748C61.5015 73.0748 61.4273 72.9156 61.3908 72.7212C61.3496 72.5018 61.2503 72.3442 61.1302 72.3062C61.0234 72.2722 60.9359 72.1545 60.9359 72.0442C60.9359 71.9339 60.8668 71.8173 60.7824 71.7852C60.6977 71.7528 60.6286 71.662 60.6286 71.5834C60.6286 71.4101 59.7447 70.5234 59.5716 70.5234C59.5037 70.5234 59.362 70.4088 59.256 70.2684C59.1504 70.1279 58.9781 70.0129 58.8733 70.0129C58.7685 70.0129 58.683 69.9672 58.683 69.9112C58.683 69.8549 58.6139 69.8092 58.5291 69.8092C58.4447 69.8092 58.3756 69.765 58.3756 69.7114C58.3756 69.6578 58.2143 69.5839 58.0173 69.5471C57.8198 69.5103 57.6589 69.4391 57.6589 69.3895C57.6589 69.3394 57.4976 69.2987 57.3002 69.2987C57.1031 69.2987 56.9418 69.253 56.9418 69.1966C56.9418 69.1407 56.7114 69.0945 56.4296 69.0945C56.1482 69.0945 55.9178 69.0488 55.9178 68.9924C55.9178 68.9326 55.5614 68.8904 55.0531 68.8904C54.5778 68.8904 54.1602 68.9365 54.1256 68.9924ZM33.0076 69.4301C32.9397 69.4982 32.8133 69.6132 32.7257 69.6856C32.5636 69.8201 32.4734 87.4623 32.6319 88.0521C32.6684 88.1871 32.7732 88.2817 32.8867 88.2817C32.9926 88.2817 33.0794 88.3279 33.0794 88.3838C33.0794 88.4491 33.95 88.4859 35.4862 88.4859C36.8097 88.4859 37.893 88.4511 37.893 88.4081C37.893 88.3654 37.9966 88.2848 38.1234 88.2293C38.2659 88.1671 38.366 88.0216 38.386 87.8479C38.404 87.6938 38.4617 87.5675 38.5143 87.5675C38.6717 87.5675 38.6399 70.3704 38.4818 70.0884C38.2529 69.6801 38.0696 69.5029 37.8769 69.5029C37.7733 69.5029 37.6881 69.4567 37.6881 69.4008C37.6881 69.2436 33.165 69.2717 33.0076 69.4301ZM20.1752 71.238C20.1752 71.2939 20.2388 71.3397 20.3165 71.3397C20.5535 71.3397 21.3044 72.1427 21.3692 72.4654C21.4025 72.6324 21.4704 72.7685 21.5195 72.7685C21.5689 72.7685 21.609 73.0674 21.609 73.4319C21.609 73.7969 21.5689 74.0953 21.5195 74.0953C21.4704 74.0953 21.4025 74.2318 21.3692 74.3988C21.3044 74.7215 20.5535 75.5242 20.3165 75.5242C20.2388 75.5242 20.1752 75.5703 20.1752 75.6262C20.1752 75.6904 19.5095 75.7283 18.383 75.7283H16.5909V73.4319V71.1359H18.383C19.5095 71.1359 20.1752 71.1739 20.1752 71.238Z" fill="white"/>
</svg>
