<svg width="690" height="651" viewBox="0 0 690 651" fill="none" xmlns="http://www.w3.org/2000/svg">
<path d="M689.315 536.536L638.853 363.085L638.148 362.555L628.248 362.456L614.272 275.335L648.049 282.277L648.94 277.925L599.608 267.789L602.333 187.557L601.902 186.859L579.72 176.63L580.92 133.06L628.673 155.881L629.314 154.548L580.978 131.437L584.565 0.962135L580.122 0.845764L578.084 77.2781L551.039 63.0576L558.843 44.1997L558.26 43.1815L469.002 33.2376L464.413 2.45168L460.016 3.10336L482.501 153.914L392.235 215.637L363.822 205.594L408.18 165.359L441.957 156.05L442.499 155.27L438.073 103.607L474.412 106.103L474.517 104.625L437.945 102.117L429.518 3.85977L428.045 3.98778L433.758 70.7206L401.425 86.1921L394.14 6.065L392.66 6.19882L399.969 86.5878L337.173 84.9586L337.22 63.814L336.87 63.5522L337.202 63.5056L333.755 38.4859L333.667 38.4277H333.737L328.135 5.57624L323.756 6.32101L328.997 37.1593L146.019 83.0443L145.181 83.4574L78.6111 136.365L77.8365 137.605L63.6386 199.223L0.673828 203.959L0.784476 205.437L28.6388 203.343L71.6868 303.317L39.6104 312.161L40.0064 313.587L58.0887 308.6L83.1302 357.388L59.8358 368.647L60.4822 369.98L83.7766 358.709L97.9629 386.307L72.7118 398.898L73.3698 400.225L126.365 373.867L132.689 449.426L87.3931 449.164L87.3639 453.604L135.543 453.883L153.275 500.827C149.199 517.381 142.875 542.401 141.902 544.105L143.195 544.839C144.179 543.093 149.065 523.892 152.198 511.353L176.017 504.79L226.6 510.428L266.364 524.52L210.219 570.527L110.99 551.908L110.722 553.363L210.306 572.034V571.912L210.347 572.04L250.617 576.189L251.129 623.616H252.614L252.102 576.352L292.506 580.512L278.087 643.713L282.42 644.702L293.484 596.211L323.691 589.775L316.761 649.98L318.235 650.148L328.577 560.31L328.682 560.659L389.603 542.139L389.399 541.464L425.238 575.927L420.48 633.461L421.959 633.583L424.288 605.287L454.909 596.845L465.351 634.665L466.783 634.275L456.149 595.71L455.241 595.198L424.428 603.693L426.723 575.974L475.146 533.847L481.552 540.248L486.863 617.821L488.342 617.716L482.979 539.852L482.769 539.381L476.27 532.87L506.78 506.326L535.991 612.095L537.423 611.699L528.857 580.681L564.69 562.94L563.397 609.948L567.84 610.07L569.18 561.299L688.738 537.443L689.315 536.536ZM572.19 452.621L573.454 406.701L653.925 420.165L665.746 460.801L572.19 452.621ZM387.704 488.835L361.062 470.03L478.698 424.244L487.038 454.32L387.704 488.835ZM166.879 334.708L177.216 307.791L227.835 370.05L213.526 381.035L200.883 367.472L199.911 367.373L188.205 375.769L166.879 334.708ZM165.633 333.823L122.538 319.329L126.132 279.379L183.139 288.27L165.633 333.823ZM90.3689 198.886L114.176 168.629L163.676 205.56L128.007 243.77L128.187 243.939L127.809 244.206L123.785 288.98L94.0087 297.184L90.3689 198.886ZM530.68 109.018L532.194 138.768L482.472 123.582L476.433 83.0967L530.68 109.018ZM532.275 140.339L533.539 165.138L489.425 170.223L482.717 125.2L532.275 140.339ZM533.615 166.628L538.745 267.411L501.981 254.418L489.647 171.69L533.615 166.628ZM488.441 453.831L480.113 423.668L569.5 388.884L568.108 439.506L515.468 444.533L514.95 444.649L488.441 453.831ZM229.291 369.491L202.537 336.599L226.28 318.864V317.7L204.115 301.443L223.916 274.719L260.272 292.174L244.45 300.943L243.448 303.619L270.819 379.842L229.291 369.491ZM205.816 162.543L257.838 149.789L279.426 180.132L280.183 180.429L332.532 169.729L332.468 197.658L332.596 198.403L336.672 209.918L287.253 218.18L252.253 209.475H251.921L210.318 218.378L209.782 218.837L194.343 259.044L129.934 243.828L205.816 162.543ZM460.639 332.311L418.907 391.078L370.024 429.067L336.952 406.148L385.259 336.436L385.334 335.854L460.639 332.311ZM457.308 397.187L456.889 397.88L420.718 391.084L462.514 332.223L510.431 329.989C502.959 350.47 487.661 374.454 457.308 397.187ZM275.128 378.679L248.532 304.609L294.474 319.527C293.67 324.396 294.298 329.393 296.283 333.911C298.268 338.43 301.524 342.274 305.656 344.978L275.128 378.679ZM185.037 287.421L195.211 260.911L222.582 274.044L202.933 300.541L185.037 287.421ZM195.747 259.492L203.865 238.347L280.783 280.77L261.874 291.243L195.747 259.492ZM344.295 316.071C342.597 310.56 339.092 305.781 334.345 302.501C329.598 299.222 323.884 297.634 318.124 297.993L308.667 270.75L355.913 264.199L371.637 308.536L344.295 316.071ZM268.303 214.991L287.044 219.646H287.346L305.4 216.621L326.423 263.786L306.85 266.503L306.075 266.759L282.292 279.932L239.779 256.495L238.335 255.698L204.36 236.962L210.982 219.728L252.02 210.936L266.777 214.602M307.286 271.21L316.604 298.167C315.366 298.31 314.139 298.543 312.935 298.866C308.438 300.111 304.365 302.556 301.154 305.939C297.943 309.321 295.714 313.514 294.707 318.067L249.312 303.311L307.286 271.21ZM299.302 329.221C298.185 325.175 298.294 320.889 299.615 316.905C300.936 312.921 303.41 309.417 306.724 306.838C310.038 304.259 314.043 302.719 318.232 302.414C322.422 302.109 326.608 303.052 330.261 305.124C333.914 307.196 336.87 310.304 338.756 314.054C340.641 317.805 341.371 322.03 340.853 326.195C340.335 330.36 338.592 334.278 335.845 337.454C333.098 340.629 329.471 342.919 325.421 344.035C319.992 345.524 314.192 344.801 309.296 342.024C304.399 339.247 300.805 334.642 299.302 329.221ZM344.691 317.479L372.126 309.915L380.955 334.818L360.281 364.65L337.913 341.719C341.028 338.603 343.288 334.739 344.475 330.497C345.663 326.256 345.737 321.781 344.691 317.502V317.479ZM327.972 263.57L320.157 246.057L347.469 240.285L354.428 259.928L327.972 263.57ZM319.516 244.678L306.908 216.388L337.156 211.331L346.916 238.876L319.516 244.678ZM129.16 245.172L193.802 260.423L183.651 286.856L126.231 277.901L129.16 245.172ZM184.484 288.852L224.591 318.276L201.617 335.447L177.828 306.197L184.484 288.852ZM306.896 345.781C311.568 348.509 316.986 349.684 322.369 349.136C327.753 348.588 332.822 346.345 336.847 342.732L359.443 365.878L333.883 402.767L276.049 379.871L306.896 345.781ZM336.492 407.632L398.56 450.642L345.029 471.478L327.622 446.505L336.492 407.632ZM400.225 449.996L371.305 429.952L419.641 392.387L456.33 399.282L446.954 430.05L400.225 449.996ZM460.692 400.207C492.232 376.351 507.81 351.151 515.236 329.774L571.194 327.161L565.12 384.078L451.758 428.183L460.692 400.207ZM571.235 325.677L515.771 328.255C518.147 321.149 519.817 313.827 520.756 306.395C523.173 286.967 520.011 271.868 517.984 264.775L572.412 284.011L571.235 325.677ZM497.235 252.742L463.394 240.779L457.955 212.012L489.85 203.22L497.235 252.742ZM512.714 262.924C514.088 266.91 519.12 283.51 516.319 305.848C515.346 313.558 513.556 321.144 510.978 328.476L416.735 332.881L416.7 228.991L512.714 262.924ZM415.221 228.467L415.256 332.945L385.491 334.335L359.501 261.022L338.338 201.3L415.221 228.467ZM280.358 178.881L259.393 149.411L332.619 131.449L332.532 168.216L280.358 178.881ZM332.619 129.924L205.251 161.158L204.884 161.374L164.672 204.431L115.108 167.465L152.047 120.545L332.765 66.8047L332.619 129.924ZM229.058 370.957L271.43 381.535L271.634 382.117L272.31 382.816L264.04 402.412L214.918 381.861L229.058 370.957ZM265.129 403.623L273.55 383.665L332.112 406.852L316.86 473.695L248.148 457.811L265.129 403.623ZM327.18 448.425L343.608 472.002L319.673 481.312L327.18 448.425ZM567.986 443.922L564.829 558.634L538.623 541.179L516.936 448.827L567.986 443.922ZM653.47 418.559L573.495 405.176L574.66 363.376L637.607 363.998L653.47 418.559ZM626.769 362.41L574.689 361.892L577.274 267.696L612.798 274.986L626.769 362.41ZM600.895 187.97L598.193 267.457L577.402 263.186L579.732 178.236L600.895 187.97ZM572.511 279.321L540.23 267.946L532.205 109.746L576.587 130.96L572.511 279.321ZM578.02 78.8957L576.634 129.319L532.374 108.151L550.48 64.3959L578.02 78.8957ZM557.055 44.5081L531.012 107.535L476.171 81.3511L469.229 34.8028L557.055 44.5081ZM489.629 201.748L457.681 210.558L451.345 177.014L482.74 155.543L489.629 201.748ZM450.029 177.927L461.792 240.186L393.971 216.248L450.029 177.927ZM433.891 72.2974L440.961 154.793L408.477 163.747L401.57 87.7515L433.891 72.2974ZM400.115 88.0424L407.062 164.393L362.255 205.036L336.929 196.087L337.179 86.4365L400.115 88.0424ZM81.9829 139.356L147.568 87.2336L329.684 41.5581L332.538 62.2256L150.09 116.472L148.978 117.228L86.3681 196.75L86.1119 197.53L68.2742 198.886L81.9829 139.356ZM30.1995 203.226L85.9255 199.031L89.5827 298.383L73.1252 302.921L30.1995 203.226ZM59.5446 308.199L89.641 299.901L90.4272 321.29L90.829 322.454L107.217 345.728L84.5046 356.719L59.5446 308.199ZM85.1684 358.063L108.084 346.979L125.98 372.395L99.3373 385.661L85.1684 358.063ZM130.249 370.73L94.8473 320.493L94.0436 298.714L123.622 290.568L120.995 319.812L121.496 320.58L165.552 335.394L186.977 376.625L133.935 411.35L130.633 371.859L130.249 370.73ZM134.075 413.008L188.345 377.48H188.392L200.272 368.991L212.944 382.542L213.2 382.717L263.557 403.786L246.721 457.444L214.353 449.956L213.87 449.897L137.127 449.449L134.075 413.008ZM226.991 509.014L176.017 503.312L152.582 509.712C153.666 505.371 154.481 502.061 154.749 500.984L154.72 500.542L137.109 453.918L213.596 454.36L315.87 478.048L308.061 512.266L284.848 509.666L284.266 509.828L267.686 523.426L226.991 509.014ZM297.019 560.653L252.271 537.961L284.994 511.149L307.741 513.651L297.019 560.653ZM212.245 570.766L250.215 539.66L250.594 574.717L212.245 570.766ZM252.061 574.839L251.677 539.294L296.682 562.102L292.815 579.034L252.061 574.839ZM323.849 588.222L293.822 594.622L311.992 514.995L331.105 525.178L327.518 556.365L327.366 556.406L327.471 556.755L323.849 588.222ZM332.637 524.84L332.246 524.107L312.335 513.494L318.479 486.566L356.1 471.921L386.068 493.112L386.65 493.193L388.1 537.932L329.061 555.9L332.637 524.84ZM426.03 574.6L389.667 539.689L388.165 493.379L422.803 481.341L474.098 532.794L426.03 574.6ZM424.341 480.8L465.106 466.626L506.04 504.976L475.175 531.823L424.341 480.8ZM528.438 579.226L507.88 504.801L507.671 504.458L466.707 466.056L515.468 449.112L537.231 541.819L537.54 542.267L564.765 560.386V561.241L528.438 579.226ZM572.115 454.128L609.52 457.398L613.014 551.076L569.22 559.804L572.115 454.128ZM614.475 550.785L610.981 457.526L666.137 462.349L687.62 536.198L614.475 550.785Z" fill="#F0F0F0"/>
<path d="M320.653 78.9355L283.065 90.6685L287.44 104.659L325.028 92.9256L320.653 78.9355Z" fill="#F0F0F0"/>
<path d="M326.877 146.775L324.92 138.704L286.595 147.723L288.546 155.799L326.877 146.775Z" fill="#F0F0F0"/>
<path d="M368.11 219.167L363.136 232.955L400.182 246.296L405.156 232.507L368.11 219.167Z" fill="#F0F0F0"/>
<path d="M230.246 150.539L227.055 136.232L202.729 141.922L205.921 156.23L230.246 150.539Z" fill="#F0F0F0"/>
<path d="M143.457 307.163L139.293 321.215L163.327 328.051L167.491 314L143.457 307.163Z" fill="#F0F0F0"/>
<path d="M290.594 160.49L278.575 163.804L281.894 175.818L293.913 172.504L290.594 160.49Z" fill="#F0F0F0"/>
<path d="M373.637 402.131L364.058 410.105L372.039 419.676L381.618 411.702L373.637 402.131Z" fill="#F0F0F0"/>
<path d="M406.635 375.094L397.056 383.068L405.037 392.639L414.616 384.665L406.635 375.094Z" fill="#F0F0F0"/>
<path d="M435.158 335.778L433.586 348.142L445.955 349.712L447.527 337.348L435.158 335.778Z" fill="#F0F0F0"/>
<path d="M494.556 500.747L488.855 505.492L493.605 511.187L499.305 506.442L494.556 500.747Z" fill="#F0F0F0"/>
<path d="M535.511 562.937L528.686 565.842L531.594 572.662L538.419 569.756L535.511 562.937Z" fill="#F0F0F0"/>
<path d="M474.805 483.971L469.797 489.44L483.485 501.954L488.494 496.485L474.805 483.971Z" fill="#F0F0F0"/>
<path d="M443.231 371.623L436.239 381.938L440.854 385.06L447.846 374.746L443.231 371.623Z" fill="#F0F0F0"/>
<path d="M426.054 492.487L417.3 501.366L439.425 523.142L448.179 514.263L426.054 492.487Z" fill="#F0F0F0"/>
<path d="M420.095 452.584L408.567 457.331L413.319 468.849L424.846 464.101L420.095 452.584Z" fill="#F0F0F0"/>
<path d="M255.388 470.117L252.764 482.296L264.953 484.918L267.577 472.739L255.388 470.117Z" fill="#F0F0F0"/>
<path d="M217.298 459.143L215.985 465.235L228.174 467.857L229.487 461.765L217.298 459.143Z" fill="#F0F0F0"/>
<path d="M199.501 373.658L194.869 377.832L203.22 387.082L207.852 382.908L199.501 373.658Z" fill="#F0F0F0"/>
<path d="M132.095 456.955L119.882 459.462L122.391 471.665L134.604 469.158L132.095 456.955Z" fill="#F0F0F0"/>
<path d="M285.82 476.662L283.195 488.84L295.384 491.462L298.009 479.284L285.82 476.662Z" fill="#F0F0F0"/>
<path d="M333.533 565.771L330.909 577.949L343.098 580.571L345.722 568.393L333.533 565.771Z" fill="#F0F0F0"/>
<path d="M388.714 550.962L380.998 560.748L390.792 568.457L398.508 558.671L388.714 550.962Z" fill="#F0F0F0"/>
<path d="M182.406 491.951L181.093 498.043L193.282 500.665L194.595 494.573L182.406 491.951Z" fill="#F0F0F0"/>
<path d="M201.967 495.02L201.096 501.191L223.712 504.379L224.583 498.208L201.967 495.02Z" fill="#F0F0F0"/>
<path d="M157.462 519.476L151.716 541.562L167.481 545.656L173.226 523.57L157.462 519.476Z" fill="#F0F0F0"/>
<path d="M398.959 253.794L398.541 266.25L411.002 266.668L411.42 254.212L398.959 253.794Z" fill="#F0F0F0"/>
<path d="M333.938 218.223L327.252 220.067L329.097 226.747L335.783 224.903L333.938 218.223Z" fill="#F0F0F0"/>
<path d="M302.649 237.698L287.346 240.703L288.683 247.503L303.986 244.498L302.649 237.698Z" fill="#F0F0F0"/>
<path d="M273.013 393.811L270.046 400.075L276.315 403.039L279.282 396.776L273.013 393.811Z" fill="#F0F0F0"/>
<path d="M215.034 360.974L209.884 365.615L214.529 370.761L219.68 366.119L215.034 360.974Z" fill="#F0F0F0"/>
<path d="M205.236 349.726L200.086 354.367L204.731 359.513L209.882 354.871L205.236 349.726Z" fill="#F0F0F0"/>
<path d="M115.327 364.377L109.432 368.05L113.108 373.94L119.003 370.268L115.327 364.377Z" fill="#F0F0F0"/>
<path d="M107.712 350.392L101.835 354.072L105.519 359.944L111.396 356.264L107.712 350.392Z" fill="#F0F0F0"/>
<path d="M211.076 312.511L206.209 317.447L211.15 322.311L216.018 317.374L211.076 312.511Z" fill="#F0F0F0"/>
<path d="M218.439 287.018L209.441 299.752L215.108 303.749L224.105 291.015L218.439 287.018Z" fill="#F0F0F0"/>
<path d="M135.5 255.371L134.785 266.421L142.375 266.911L143.09 255.861L135.5 255.371Z" fill="#F0F0F0"/>
<path d="M153.974 267.97L153.259 279.02L160.849 279.51L161.564 268.461L153.974 267.97Z" fill="#F0F0F0"/>
<path d="M97.6097 279.471L96.8945 290.52L104.484 291.011L105.199 279.961L97.6097 279.471Z" fill="#F0F0F0"/>
<path d="M578.667 386.207L578.247 398.657L590.708 399.077L591.128 386.626L578.667 386.207Z" fill="#F0F0F0"/>
<path d="M579.891 283.821L579.471 296.271L591.932 296.691L592.352 284.24L579.891 283.821Z" fill="#F0F0F0"/>
<path d="M590.576 326.215L590.329 333.571L597.692 333.818L597.939 326.461L590.576 326.215Z" fill="#F0F0F0"/>
<path d="M579.787 333.409L579.023 356.158L586.386 356.405L587.149 333.655L579.787 333.409Z" fill="#F0F0F0"/>
<path d="M604.345 308.463L604.097 315.819L611.459 316.067L611.707 308.711L604.345 308.463Z" fill="#F0F0F0"/>
<path d="M591.271 457.934L590.896 470.392L603.365 470.765L603.739 458.308L591.271 457.934Z" fill="#F0F0F0"/>
<path d="M608.016 370.034L607.222 393.591L630.8 394.385L631.594 370.828L608.016 370.034Z" fill="#F0F0F0"/>
<path d="M547.895 295.646L547.475 308.097L559.936 308.516L560.356 296.066L547.895 295.646Z" fill="#F0F0F0"/>
<path d="M498.399 315.687L498.151 323.043L505.514 323.291L505.762 315.934L498.399 315.687Z" fill="#F0F0F0"/>
<path d="M451.294 318.67L451.046 326.026L458.409 326.274L458.657 318.918L451.294 318.67Z" fill="#F0F0F0"/>
<path d="M423.257 238.275L423.009 245.631L430.371 245.879L430.62 238.523L423.257 238.275Z" fill="#F0F0F0"/>
<path d="M391.156 275.793L384.259 278.379L386.847 285.27L393.744 282.684L391.156 275.793Z" fill="#F0F0F0"/>
<path d="M397.553 352.279L397.305 359.636L404.667 359.884L404.915 352.527L397.553 352.279Z" fill="#F0F0F0"/>
<path d="M463.395 177.802L456.293 179.759L458.252 186.854L465.353 184.897L463.395 177.802Z" fill="#F0F0F0"/>
<path d="M390.628 63.1088L383.328 64.1001L385.745 81.8695L393.045 80.8782L390.628 63.1088Z" fill="#F0F0F0"/>
<path d="M468.368 212.985L461.115 214.273L462.405 221.52L469.658 220.232L468.368 212.985Z" fill="#F0F0F0"/>
<path d="M450.884 219.91L443.631 221.199L444.92 228.445L452.173 227.157L450.884 219.91Z" fill="#F0F0F0"/>
<path d="M446.007 71.4244L438.754 72.7127L440.043 79.9595L447.296 78.6713L446.007 71.4244Z" fill="#F0F0F0"/>
<path d="M511.673 417.954L489.559 426.162L493.282 436.176L515.397 427.968L511.673 417.954Z" fill="#F0F0F0"/>
<path d="M391.805 300.441L391.22 317.898L408.692 318.483L409.278 301.026L391.805 300.441Z" fill="#F0F0F0"/>
<path d="M240.26 346.975L228.241 350.289L231.559 362.298L243.577 358.983L240.26 346.975Z" fill="#F0F0F0"/>
<path d="M539.957 126.296L539.299 145.801L551.76 146.22L552.418 126.716L539.957 126.296Z" fill="#F0F0F0"/>
<path d="M548.532 362.62L547.874 382.124L560.335 382.544L560.993 363.039L548.532 362.62Z" fill="#F0F0F0"/>
<path d="M563.84 160.801L563.494 171.047L570.042 171.268L570.388 161.021L563.84 160.801Z" fill="#F0F0F0"/>
<path d="M532.008 235.024L514.367 236.51L515.855 254.136L533.496 252.649L532.008 235.024Z" fill="#F0F0F0"/>
<path d="M512.339 194.879L499.984 196.556L504.26 227.984L516.614 226.306L512.339 194.879Z" fill="#F0F0F0"/>
<path d="M412.382 23.9033L400.027 25.5811L404.303 57.009L416.657 55.3312L412.382 23.9033Z" fill="#F0F0F0"/>
<path d="M481.774 65.1569L477.918 73.3694L486.138 77.2217L489.993 69.0092L481.774 65.1569Z" fill="#F0F0F0"/>
<path d="M370.24 143.693L361.163 143.897L361.367 152.966L370.444 152.762L370.24 143.693Z" fill="#F0F0F0"/>
<path d="M497.722 72.9128L494.408 81.3579L502.861 84.6692L506.175 76.2241L497.722 72.9128Z" fill="#F0F0F0"/>
<path d="M536.858 60.474L533.544 68.9191L541.996 72.2304L545.311 63.7853L536.858 60.474Z" fill="#F0F0F0"/>
<path d="M586.522 149.553L585.419 158.557L594.431 159.659L595.534 150.655L586.522 149.553Z" fill="#F0F0F0"/>
<path d="M541.312 97.9257L537.998 106.371L546.451 109.682L549.765 101.237L541.312 97.9257Z" fill="#F0F0F0"/>
<path d="M588.995 120.536L585.225 128.788L610.457 140.298L614.228 132.046L588.995 120.536Z" fill="#F0F0F0"/>
<path d="M433.835 137.291L421.411 138.338L422.459 150.752L434.883 149.705L433.835 137.291Z" fill="#F0F0F0"/>
<path d="M441.187 274.206L422.496 274.51L423.351 327.155L442.043 326.851L441.187 274.206Z" fill="#F0F0F0"/>
<path d="M489.251 558.501L492.6 611.397L511.287 611.094L507.945 558.198L489.251 558.501Z" fill="#F0F0F0"/>
<path d="M578.222 495.47L576.456 548.092L595.139 548.718L596.905 496.096L578.222 495.47Z" fill="#F0F0F0"/>
<path d="M618.528 465.717L617.901 484.384L649.302 485.436L649.928 466.769L618.528 465.717Z" fill="#F0F0F0"/>
<path d="M174.227 155.338L154.438 177.136L169.819 191.077L189.609 169.278L174.227 155.338Z" fill="#F0F0F0"/>
<path d="M309.107 410.257L300.825 448.722L315.167 451.805L323.448 413.339L309.107 410.257Z" fill="#F0F0F0"/>
<path d="M158.525 368.366L141.588 378.523L151.753 395.445L168.69 385.289L158.525 368.366Z" fill="#F0F0F0"/>
<path d="M235.18 398.2L226.75 421.568L250.138 429.99L258.568 406.622L235.18 398.2Z" fill="#F0F0F0"/>
<path d="M219.147 392.799L215.812 402.051L225.071 405.383L228.406 396.132L219.147 392.799Z" fill="#F0F0F0"/>
<path d="M235.989 374.664L233.417 381.797L240.556 384.367L243.128 377.234L235.989 374.664Z" fill="#F0F0F0"/>
<path d="M153.14 432.281L143.347 433.253L144.319 443.038L154.113 442.066L153.14 432.281Z" fill="#F0F0F0"/>
<path d="M303.204 572.775L301.133 582.388L310.754 584.458L312.826 574.845L303.204 572.775Z" fill="#F0F0F0"/>
<path d="M85.0799 307.825L75.2861 308.796L76.2585 318.581L86.0522 317.61L85.0799 307.825Z" fill="#F0F0F0"/>
<path d="M131.122 155.464L124.081 165.745L134.371 172.78L141.412 162.499L131.122 155.464Z" fill="#F0F0F0"/>
<path d="M157.072 532.823C159.796 532.823 162.005 530.617 162.005 527.895C162.005 525.173 159.796 522.967 157.072 522.967C154.348 522.967 152.14 525.173 152.14 527.895C152.14 530.617 154.348 532.823 157.072 532.823Z" fill="#33CCCC"/>
<path d="M258.753 411.571C261.477 411.571 263.685 409.364 263.685 406.642C263.685 403.921 261.477 401.714 258.753 401.714C256.029 401.714 253.82 403.921 253.82 406.642C253.82 409.364 256.029 411.571 258.753 411.571Z" fill="#33CCCC"/>
<path d="M505.894 321.005C508.619 321.005 510.827 318.799 510.827 316.077C510.827 313.355 508.619 311.149 505.894 311.149C503.17 311.149 500.962 313.355 500.962 316.077C500.962 318.799 503.17 321.005 505.894 321.005Z" fill="#33CCCC"/>
<path d="M437.223 295.119C439.947 295.119 442.155 292.912 442.155 290.19C442.155 287.468 439.947 285.262 437.223 285.262C434.498 285.262 432.29 287.468 432.29 290.19C432.29 292.912 434.498 295.119 437.223 295.119Z" fill="#33CCCC"/>
<path d="M107.834 355.375C110.558 355.375 112.767 353.169 112.767 350.447C112.767 347.725 110.558 345.519 107.834 345.519C105.11 345.519 102.901 347.725 102.901 350.447C102.901 353.169 105.11 355.375 107.834 355.375Z" fill="#33CCCC"/>
<path d="M448.824 78.3604C451.133 78.3604 453.005 76.49 453.005 74.1827C453.005 71.8754 451.133 70.005 448.824 70.005C446.515 70.005 444.643 71.8754 444.643 74.1827C444.643 76.49 446.515 78.3604 448.824 78.3604Z" fill="#33CCCC"/>
<path d="M229.442 509.055C232.167 509.055 234.375 506.848 234.375 504.126C234.375 501.404 232.167 499.198 229.442 499.198C226.718 499.198 224.51 501.404 224.51 504.126C224.51 506.848 226.718 509.055 229.442 509.055Z" fill="#33CCCC"/>
<path d="M80.498 431.936C83.2222 431.936 85.4306 429.729 85.4306 427.007C85.4306 424.286 83.2222 422.079 80.498 422.079C77.7738 422.079 75.5654 424.286 75.5654 427.007C75.5654 429.729 77.7738 431.936 80.498 431.936Z" fill="#33CCCC"/>
<path d="M107.887 94.9548C110.611 94.9548 112.819 92.7484 112.819 90.0265C112.819 87.3047 110.611 85.0982 107.887 85.0982C105.162 85.0982 102.954 87.3047 102.954 90.0265C102.954 92.7484 105.162 94.9548 107.887 94.9548Z" fill="#33CCCC"/>
<path d="M496.426 430.045C499.15 430.045 501.358 427.838 501.358 425.116C501.358 422.395 499.15 420.188 496.426 420.188C493.702 420.188 491.493 422.395 491.493 425.116C491.493 427.838 493.702 430.045 496.426 430.045Z" fill="#33CCCC"/>
<path d="M171.404 141.55C174.128 141.55 176.337 139.343 176.337 136.621C176.337 133.9 174.128 131.693 171.404 131.693C168.68 131.693 166.472 133.9 166.472 136.621C166.472 139.343 168.68 141.55 171.404 141.55Z" fill="#33CCCC"/>
<path d="M161.574 327.673C164.298 327.673 166.507 325.467 166.507 322.745C166.507 320.023 164.298 317.817 161.574 317.817C158.85 317.817 156.642 320.023 156.642 322.745C156.642 325.467 158.85 327.673 161.574 327.673Z" fill="#33CCCC"/>
<path d="M337.313 573.082C339.87 573.082 341.943 571.011 341.943 568.456C341.943 565.901 339.87 563.83 337.313 563.83C334.756 563.83 332.684 565.901 332.684 568.456C332.684 571.011 334.756 573.082 337.313 573.082Z" fill="#33CCCC"/>
<path d="M547.26 138.478C549.817 138.478 551.889 136.407 551.889 133.852C551.889 131.297 549.817 129.226 547.26 129.226C544.703 129.226 542.63 131.297 542.63 133.852C542.63 136.407 544.703 138.478 547.26 138.478Z" fill="#5ACCCA"/>
<path d="M299.075 239.365C301.799 239.365 304.008 237.159 304.008 234.437C304.008 231.715 301.799 229.509 299.075 229.509C296.351 229.509 294.143 231.715 294.143 234.437C294.143 237.159 296.351 239.365 299.075 239.365Z" fill="#33CCCC"/>
<path d="M402.927 93.6398C405.237 93.6398 407.109 91.7694 407.109 89.4621C407.109 87.1549 405.237 85.2844 402.927 85.2844C400.618 85.2844 398.746 87.1549 398.746 89.4621C398.746 91.7694 400.618 93.6398 402.927 93.6398Z" fill="#33CCCC"/>
<path d="M376.913 410.669C379.637 410.669 381.846 408.462 381.846 405.741C381.846 403.019 379.637 400.812 376.913 400.812C374.189 400.812 371.98 403.019 371.98 405.741C371.98 408.462 374.189 410.669 376.913 410.669Z" fill="#33CCCC"/>
<path d="M216.671 130.861C223.216 130.861 228.522 125.56 228.522 119.02C228.522 112.481 223.216 107.18 216.671 107.18C210.126 107.18 204.82 112.481 204.82 119.02C204.82 125.56 210.126 130.861 216.671 130.861Z" fill="white"/>
<path d="M234.352 117.339C233.123 105.626 220.614 97.8234 208.728 103.578C206.516 104.657 204.574 106.216 203.041 108.141C201.509 110.065 200.426 112.307 199.87 114.703C199.095 117.771 199.155 120.99 200.045 124.027C200.935 127.064 202.622 129.807 204.931 131.972L217.796 144.575C218.04 144.809 218.333 144.986 218.653 145.096C218.973 145.205 219.313 145.243 219.649 145.208C219.986 145.172 220.31 145.064 220.601 144.89C220.891 144.717 221.14 144.482 221.33 144.203L231.289 129.203C233.711 125.748 234.799 121.533 234.352 117.339ZM218.122 130.721C215.798 130.96 213.456 130.505 211.391 129.415C209.325 128.324 207.63 126.647 206.518 124.595C205.406 122.543 204.927 120.207 205.142 117.883C205.357 115.559 206.257 113.351 207.727 111.538C209.197 109.724 211.172 108.386 213.403 107.693C215.633 107 218.019 106.982 220.259 107.643C222.5 108.303 224.494 109.612 225.991 111.404C227.487 113.196 228.419 115.391 228.668 117.711C228.83 119.256 228.686 120.817 228.243 122.306C227.801 123.794 227.069 125.181 226.089 126.387C225.11 127.593 223.902 128.594 222.535 129.332C221.167 130.071 219.668 130.533 218.122 130.692V130.721Z" fill="#33CCCC"/>
<path d="M223.45 117.304L212.746 122.029L209.771 115.308L220.474 110.583L220.527 114.406L223.45 117.304Z" fill="#33CCCC"/>
<path d="M215.041 127.224L216.748 121.039L213.032 122.68L215.041 127.224Z" fill="#242A48"/>
<path d="M371.451 135.272C377.996 135.272 383.302 129.97 383.302 123.431C383.302 116.891 377.996 111.59 371.451 111.59C364.905 111.59 359.6 116.891 359.6 123.431C359.6 129.97 364.905 135.272 371.451 135.272Z" fill="white"/>
<path d="M388.607 128.022C391.548 116.623 382.557 104.945 369.424 106.19C366.974 106.43 364.608 107.212 362.498 108.48C360.389 109.748 358.589 111.471 357.23 113.522C355.431 116.124 354.362 119.16 354.133 122.314C353.903 125.468 354.522 128.626 355.925 131.46L363.572 147.752C363.719 148.056 363.931 148.325 364.193 148.539C364.455 148.752 364.76 148.907 365.087 148.991C365.415 149.075 365.757 149.087 366.089 149.026C366.422 148.965 366.737 148.832 367.013 148.637L381.572 138.059C385.054 135.672 387.553 132.107 388.607 128.022ZM368.731 134.882C366.467 134.299 364.426 133.059 362.867 131.318C361.309 129.577 360.301 127.413 359.973 125.1C359.645 122.787 360.011 120.429 361.024 118.324C362.038 116.218 363.653 114.461 365.666 113.273C367.68 112.085 370 111.52 372.335 111.65C374.669 111.779 376.913 112.598 378.782 114.001C380.651 115.405 382.061 117.331 382.835 119.535C383.608 121.74 383.71 124.124 383.127 126.387C382.74 127.889 382.061 129.3 381.128 130.54C380.195 131.78 379.027 132.824 377.69 133.613C376.353 134.402 374.874 134.92 373.337 135.138C371.8 135.355 370.235 135.268 368.731 134.882Z" fill="#33CCCC"/>
<path d="M378.404 124.187L366.722 124.88L366.285 117.548L377.967 116.85L376.674 120.452L378.404 124.187Z" fill="#33CCCC"/>
<path d="M367.054 130.547L370.816 125.351L366.763 125.589L367.054 130.547Z" fill="#242A48"/>
<path d="M430.513 484.838C437.058 484.838 442.364 479.537 442.364 472.997C442.364 466.458 437.058 461.156 430.513 461.156C423.968 461.156 418.662 466.458 418.662 472.997C418.662 479.537 423.968 484.838 430.513 484.838Z" fill="white"/>
<path d="M448.113 475.389C449.592 463.711 439.197 453.278 426.326 456.152C423.926 456.697 421.677 457.771 419.745 459.295C417.812 460.819 416.245 462.755 415.157 464.962C413.701 467.769 413.024 470.914 413.194 474.071C413.364 477.228 414.375 480.283 416.124 482.918L425.767 498.127C425.953 498.405 426.195 498.64 426.479 498.816C426.763 498.991 427.082 499.104 427.413 499.146C427.745 499.188 428.081 499.158 428.4 499.059C428.719 498.959 429.013 498.793 429.262 498.57L442.394 486.24C445.551 483.433 447.583 479.578 448.113 475.389ZM429.262 484.698C426.942 484.406 424.761 483.433 422.994 481.902C421.228 480.372 419.956 478.352 419.338 476.099C418.721 473.845 418.786 471.46 419.525 469.244C420.265 467.027 421.646 465.08 423.493 463.648C425.34 462.216 427.571 461.363 429.903 461.197C432.236 461.032 434.565 461.561 436.596 462.718C438.627 463.875 440.269 465.608 441.315 467.698C442.36 469.787 442.762 472.14 442.47 474.458C442.074 477.564 440.461 480.386 437.985 482.305C435.509 484.224 432.371 485.083 429.262 484.692V484.698Z" fill="#33CCCC"/>
<path d="M437.508 472.869L426.006 475.034L424.644 467.807L436.145 465.648L435.324 469.378L437.508 472.869Z" fill="#33CCCC"/>
<path d="M427.049 480.608L430.13 474.981L426.135 475.732L427.049 480.608Z" fill="#242A48"/>
<path d="M557.002 293.059C563.548 293.059 568.853 287.757 568.853 281.218C568.853 274.679 563.548 269.377 557.002 269.377C550.457 269.377 545.151 274.679 545.151 281.218C545.151 287.757 550.457 293.059 557.002 293.059Z" fill="white"/>
<path d="M574.101 286.03C577.187 274.66 568.341 262.878 555.192 263.954C552.738 264.162 550.363 264.914 548.238 266.156C546.113 267.398 544.292 269.099 542.91 271.134C541.076 273.717 539.969 276.742 539.702 279.897C539.436 283.052 540.021 286.221 541.396 289.073L548.832 305.47C548.976 305.776 549.184 306.047 549.443 306.264C549.702 306.482 550.005 306.641 550.331 306.729C550.658 306.818 551 306.834 551.333 306.778C551.667 306.721 551.984 306.592 552.262 306.401L566.973 296.009C570.478 293.653 573.011 290.108 574.101 286.03ZM554.138 292.628C551.881 292.016 549.857 290.75 548.321 288.989C546.785 287.227 545.806 285.051 545.508 282.734C545.211 280.417 545.607 278.064 546.648 275.972C547.688 273.88 549.326 272.143 551.355 270.982C553.383 269.82 555.711 269.285 558.043 269.445C560.376 269.605 562.608 270.452 564.459 271.88C566.309 273.307 567.695 275.251 568.44 277.465C569.185 279.679 569.256 282.065 568.644 284.319C567.822 287.343 565.833 289.916 563.112 291.474C560.392 293.032 557.164 293.447 554.138 292.628Z" fill="#33CCCC"/>
<path d="M563.944 282.062L552.256 282.609L551.912 275.266L563.6 274.719L562.266 278.303L563.944 282.062Z" fill="#33CCCC"/>
<path d="M552.518 288.282L556.344 283.126L552.285 283.318L552.518 288.282Z" fill="#242A48"/>
<path d="M451.269 210.616C457.814 210.616 463.12 205.315 463.12 198.775C463.12 192.236 457.814 186.934 451.269 186.934C444.724 186.934 439.418 192.236 439.418 198.775C439.418 205.315 444.724 210.616 451.269 210.616Z" fill="white"/>
<path d="M468.868 201.172C470.347 189.489 459.952 179.062 447.082 181.93C444.681 182.475 442.433 183.549 440.5 185.073C438.568 186.597 437 188.533 435.912 190.74C434.455 193.548 433.777 196.694 433.947 199.852C434.116 203.011 435.129 206.066 436.879 208.702L446.523 223.905C446.708 224.184 446.95 224.419 447.234 224.595C447.518 224.771 447.836 224.885 448.168 224.927C448.499 224.97 448.836 224.94 449.155 224.841C449.474 224.742 449.768 224.576 450.017 224.353L463.149 212.024C466.309 209.219 468.341 205.363 468.868 201.172ZM450.011 210.482C447.692 210.188 445.511 209.214 443.746 207.683C441.98 206.151 440.709 204.131 440.093 201.877C439.477 199.624 439.543 197.238 440.284 195.023C441.024 192.807 442.406 190.86 444.254 189.429C446.102 187.998 448.333 187.146 450.665 186.982C452.997 186.817 455.326 187.348 457.357 188.506C459.387 189.663 461.029 191.397 462.073 193.487C463.118 195.577 463.519 197.93 463.225 200.247C463.029 201.785 462.532 203.27 461.763 204.616C460.993 205.963 459.965 207.144 458.738 208.093C457.511 209.043 456.108 209.741 454.611 210.149C453.114 210.557 451.551 210.666 450.011 210.47V210.482Z" fill="#33CCCC"/>
<path d="M458.258 198.653L446.762 200.812L445.399 193.591L456.901 191.432L456.074 195.162L458.258 198.653Z" fill="#33CCCC"/>
<path d="M447.804 206.392L450.885 200.759L446.89 201.51L447.804 206.392Z" fill="#242A48"/>
<path d="M228.184 385.079C234.729 385.079 240.035 379.778 240.035 373.238C240.035 366.699 234.729 361.397 228.184 361.397C221.639 361.397 216.333 366.699 216.333 373.238C216.333 379.778 221.639 385.079 228.184 385.079Z" fill="white"/>
<path d="M245.789 375.635C247.263 363.952 236.867 353.525 223.997 356.394C221.597 356.939 219.348 358.013 217.416 359.537C215.484 361.061 213.916 362.997 212.828 365.203C211.372 368.011 210.695 371.157 210.864 374.315C211.034 377.473 212.046 380.528 213.794 383.165L223.427 398.369C223.611 398.652 223.855 398.893 224.142 399.073C224.428 399.253 224.751 399.368 225.087 399.411C225.423 399.453 225.764 399.422 226.087 399.32C226.41 399.217 226.706 399.045 226.956 398.817L240.082 386.487C243.235 383.678 245.262 379.823 245.789 375.635ZM226.932 384.945C224.612 384.653 222.431 383.679 220.665 382.148C218.899 380.617 217.626 378.597 217.009 376.344C216.392 374.09 216.458 371.704 217.198 369.488C217.938 367.272 219.319 365.325 221.167 363.893C223.015 362.461 225.246 361.609 227.579 361.444C229.911 361.279 232.24 361.81 234.271 362.967C236.302 364.125 237.944 365.859 238.989 367.949C240.033 370.04 240.434 372.392 240.14 374.71C239.742 377.817 238.126 380.638 235.648 382.555C233.169 384.472 230.03 385.327 226.921 384.933L226.932 384.945Z" fill="#33CCCC"/>
<path d="M235.178 373.116L223.676 375.275L222.313 368.054L233.815 365.889L232.994 369.625L235.178 373.116Z" fill="#33CCCC"/>
<path d="M224.725 380.855L227.8 375.222L223.805 375.973L224.725 380.855Z" fill="#242A48"/>
<path d="M162.337 259.876C168.883 259.876 174.188 254.574 174.188 248.035C174.188 241.495 168.883 236.194 162.337 236.194C155.792 236.194 150.486 241.495 150.486 248.035C150.486 254.574 155.792 259.876 162.337 259.876Z" fill="white"/>
<path d="M180.099 248.204C180.099 236.427 168.452 227.367 156.065 231.848C153.752 232.688 151.655 234.035 149.929 235.788C148.204 237.542 146.891 239.658 146.089 241.984C144.998 244.952 144.72 248.159 145.285 251.271C145.851 254.383 147.238 257.287 149.304 259.684L160.782 273.561C161.001 273.818 161.273 274.025 161.58 274.167C161.886 274.309 162.22 274.382 162.558 274.382C162.896 274.382 163.23 274.309 163.537 274.167C163.844 274.025 164.116 273.818 164.334 273.561L175.813 259.684C178.583 256.5 180.105 252.422 180.099 248.204ZM162.558 259.794C160.22 259.794 157.934 259.101 155.99 257.804C154.046 256.506 152.531 254.661 151.636 252.503C150.741 250.344 150.507 247.969 150.963 245.678C151.42 243.387 152.546 241.282 154.199 239.63C155.852 237.979 157.959 236.854 160.252 236.398C162.545 235.942 164.922 236.176 167.082 237.07C169.242 237.964 171.089 239.478 172.388 241.42C173.687 243.363 174.38 245.646 174.38 247.982C174.38 249.534 174.074 251.07 173.48 252.503C172.886 253.936 172.015 255.238 170.918 256.335C169.82 257.431 168.517 258.301 167.082 258.895C165.648 259.489 164.111 259.794 162.558 259.794Z" fill="#33CCCC"/>
<path d="M169.256 247.034L158.115 250.618L155.861 243.624L167.002 240.04L166.652 243.846L169.256 247.034Z" fill="#33CCCC"/>
<path d="M159.856 256.024L162.203 250.048L158.336 251.293L159.856 256.024Z" fill="#242A48"/>
<path d="M410.242 369.631C416.787 369.631 422.093 364.329 422.093 357.79C422.093 351.251 416.787 345.949 410.242 345.949C403.696 345.949 398.391 351.251 398.391 357.79C398.391 364.329 403.696 369.631 410.242 369.631Z" fill="white"/>
<path d="M427.835 360.181C429.314 348.504 418.919 338.071 406.043 340.945C403.643 341.491 401.396 342.565 399.464 344.089C397.533 345.613 395.966 347.549 394.879 349.755C393.421 352.561 392.741 355.707 392.911 358.864C393.081 362.022 394.095 365.077 395.846 367.711L405.484 382.92C405.669 383.204 405.913 383.443 406.2 383.623C406.487 383.802 406.81 383.917 407.146 383.959C407.482 384.001 407.823 383.97 408.145 383.867C408.468 383.764 408.764 383.592 409.013 383.362L422.139 371.033C425.288 368.222 427.311 364.367 427.835 360.181ZM408.978 369.491C406.659 369.198 404.479 368.224 402.713 366.693C400.948 365.161 399.676 363.141 399.06 360.888C398.443 358.635 398.509 356.25 399.249 354.034C399.989 351.818 401.37 349.872 403.217 348.44C405.064 347.008 407.295 346.156 409.627 345.991C411.959 345.826 414.288 346.355 416.319 347.512C418.35 348.669 419.992 350.402 421.037 352.491C422.082 354.581 422.484 356.933 422.192 359.25C421.798 362.357 420.186 365.181 417.709 367.1C415.232 369.019 412.094 369.877 408.984 369.485L408.978 369.491Z" fill="#33CCCC"/>
<path d="M417.231 357.662L405.729 359.826L404.372 352.6L415.874 350.441L415.047 354.171L417.231 357.662Z" fill="#33CCCC"/>
<path d="M406.778 365.401L409.852 359.774L405.863 360.525L406.778 365.401Z" fill="#242A48"/>
<path d="M324.716 305.185C333.359 305.185 340.364 298.185 340.364 289.55C340.364 280.916 333.359 273.916 324.716 273.916C316.074 273.916 309.068 280.916 309.068 289.55C309.068 298.185 316.074 305.185 324.716 305.185Z" fill="white"/>
<path d="M348.162 289.777C348.162 274.23 332.817 262.273 316.441 268.184C313.388 269.295 310.621 271.073 308.343 273.388C306.065 275.704 304.333 278.498 303.274 281.567C300.199 290.458 302.377 299.023 307.519 304.929L322.661 323.245C322.946 323.59 323.304 323.868 323.709 324.059C324.114 324.25 324.557 324.349 325.005 324.349C325.453 324.349 325.895 324.25 326.3 324.059C326.706 323.868 327.064 323.59 327.349 323.245L342.49 304.929C346.152 300.729 348.168 295.347 348.162 289.777Z" fill="#33CCCC"/>
<path d="M325.014 305.074C333.63 305.074 340.615 298.095 340.615 289.486C340.615 280.877 333.63 273.898 325.014 273.898C316.397 273.898 309.412 280.877 309.412 289.486C309.412 298.095 316.397 305.074 325.014 305.074Z" fill="white"/>
<path d="M333.853 288.229L319.149 292.966L316.173 283.732L330.872 279.001L330.412 284.023L333.853 288.229Z" fill="#33CCCC"/>
<path d="M321.444 300.099L324.542 292.215L319.435 293.856L321.444 300.099Z" fill="#242A48"/>
</svg>
