<?xml version="1.0" encoding="utf-8"?>
<!-- Generator: Adobe Illustrator 16.0.3, SVG Export Plug-In . SVG Version: 6.00 Build 0)  -->
<!DOCTYPE svg PUBLIC "-//W3C//DTD SVG 1.1//EN" "http://www.w3.org/Graphics/SVG/1.1/DTD/svg11.dtd">
<svg version="1.1" id="Capa_1" xmlns="http://www.w3.org/2000/svg" xmlns:xlink="http://www.w3.org/1999/xlink" x="0px" y="0px"
	 width="1453.02px" height="1354.05px" viewBox="0 0 1453.02 1354.05" enable-background="new 0 0 1453.02 1354.05"
	 xml:space="preserve">
<g>
	<defs>
		<rect id="SVGID_1_" width="1453.02" height="1354.05"/>
	</defs>
	<clipPath id="SVGID_2_">
		<use xlink:href="#SVGID_1_"  overflow="visible"/>
	</clipPath>
	<g clip-path="url(#SVGID_2_)">
		<defs>
			<rect id="SVGID_3_" y="-0.001" width="1434.846" height="1354.051"/>
		</defs>
		<clipPath id="SVGID_4_">
			<use xlink:href="#SVGID_3_"  overflow="visible"/>
		</clipPath>
		<path clip-path="url(#SVGID_4_)" fill="#F2F2F2" d="M1190.79,942.115l2.631-95.752l167.667,28.074l24.632,84.737L1190.79,942.115z
			 M806.4,1017.642l-55.511-39.274l245.152-95.491l17.324,62.781L806.4,1017.642z M346.3,696.224l21.527-56.122L473.3,769.89
			l-29.788,22.953l-26.348-28.289l-2.026-0.2l-24.411,17.455L346.3,696.224z M343.7,694.384l-89.824-30.226l7.479-83.314
			l118.786,18.551L343.7,694.384z M186.881,412.926l49.612-63.066l103.088,77l-74.326,79.685l0.374,0.35l-0.782,0.564l-8.382,93.363
			l-62.042,17.12L186.881,412.926z M1104.3,225.586l3.156,62.035l-103.601-31.662l-12.58-84.442L1104.3,225.586z M1107.622,290.897
			l2.632,51.728l-91.91,10.6l-13.986-93.888L1107.622,290.897z M1110.411,345.717l10.688,210.178l-76.6-27.1l-25.7-172.519
			L1110.411,345.717z M1016.291,944.642l-17.355-62.894l186.24-72.543l-2.9,105.5L1072.6,925.194l-1.083,0.238L1016.291,944.642z
			 M476.374,768.77l-55.747-68.6l49.442-36.975l-0.012-2.48l-46.17-33.9l41.279-55.726l75.751,36.4l-32.969,18.28l-2.113,5.613
			l57.049,159.012L476.374,768.77z M427.43,337.206l108.387-26.6l44.985,63.28l1.568,0.617l109.07-22.318l-0.134,58.227l0.267,1.555
			l8.5,24.017l-102.967,17.231l-72.927-18.143l-0.694-0.011l-86.685,18.58l-1.119,0.956l-32.161,83.841l-134.2-31.726
			L427.43,337.206z M958.356,691.229l-86.949,122.553l-101.841,79.219l-68.913-47.8L801.3,699.838l0.169-1.274L958.356,691.229z
			 M951.417,826.517l-0.872,1.449l-75.359-14.178l87.087-122.741l99.837-4.666C1046.537,729.093,1014.659,779.11,951.417,826.517
			 M571.846,787.942L516.424,633.46l95.66,31.114c-3.424,20.742,5.712,41.551,23.3,53.067L571.846,787.942z M384.128,597.616
			l21.206-55.281l57,27.388l-40.934,55.26L384.128,597.616z M406.444,539.441l16.917-44.1l160.264,88.466l-39.4,21.842
			L406.444,539.441z M634.957,450.013l43.8,98.352l-40.783,5.662l-1.609,0.537l-49.552,27.474l-88.547-48.878l58.849-41.674
			l0.652-1.266l-0.156-43.648l39.057,9.717l0.626,0.027L634.957,450.013z M715.957,657.37c-7.286-23.658-29.833-39.244-54.54-37.7
			l-19.7-56.81l98.449-13.665l32.741,92.463L715.957,657.37z M554.525,445.804l0.156,43.625l-59.414,42.073l-70.79-39.075
			l13.789-35.943l85.515-18.33L554.525,445.804z M638.784,563.814l19.491,56.213c-22.541,2.594-40.909,19.292-45.633,41.485
			l-94.584-30.765L638.784,563.814z M622.2,684.84c-6.501-23.558,7.327-47.926,30.886-54.426
			c23.558-6.501,47.925,7.327,54.426,30.885c6.5,23.558-7.327,47.925-30.884,54.426C653.073,722.197,628.724,708.38,622.2,684.84
			 M716.775,660.34l57.159-15.772l18.394,51.94l-43.03,62.15l-46.611-47.815c13.188-13.221,18.528-32.361,14.089-50.5
			 M681.942,547.924l-16.284-36.561l56.842-12.047l14.505,40.964L681.942,547.924z M664.374,508.48L638.1,449.487l63.023-10.548
			l20.34,57.443L664.374,508.48z M267.761,509.514l134.658,31.8l-21.148,55.13l-119.637-18.681L267.761,509.514z M382.981,600.605
			l83.568,61.364l-47.873,35.806l-49.57-61L382.981,600.605z M638.031,719.314c19.972,11.682,45.203,9.109,62.408-6.359
			l47.074,48.292l-53.259,76.925l-120.49-47.744L638.031,719.314z M699.7,848.295l129.317,89.7l-111.535,43.446l-36.266-52.076
			L699.7,848.295z M832.489,936.639l-60.264-41.8l100.707-78.337l76.468,14.393l-19.536,64.159L832.489,936.639z M958.477,832.795
			c65.717-49.687,98.169-102.3,113.644-146.883l116.592-5.449l-12.657,118.694l-236.2,92L958.477,832.795z M1188.8,677.37
			l-115.621,5.4c4.951-14.819,8.429-30.089,10.385-45.59c5.033-40.517-1.56-71.994-5.779-86.788l113.399,40.111L1188.8,677.37z
			 M1034.611,525.302L964.1,500.361l-11.321-59.988l66.452-18.337L1034.611,525.302z M1066.861,546.533
			c2.859,8.313,13.301,42.928,7.508,89.51c-2.027,16.081-5.756,31.901-11.125,47.194l-196.356,9.177l-0.071-216.639
			L1066.861,546.533z M863.728,474.682l0.071,217.875l-62.016,2.9l-54.149-152.916l-44.093-124.518L863.728,474.682z
			 M582.733,371.277l-43.693-61.465l152.584-37.45l-0.177,76.67L582.733,371.277z M691.633,269.177l-265.385,65.141l-0.761,0.447
			l-83.787,89.83l-103.3-77.16l76.971-97.847l376.563-112.069L691.633,269.177z M475.85,771.823l88.288,22.062l0.419,1.168
			l1.411,1.454l-17.235,40.869l-102.343-42.85L475.85,771.823z M551,839.938l17.549-41.615l122.018,48.35l-31.781,139.4
			l-143.16-33.19L551,839.938z M680.284,933.438l34.238,49.156l-49.87,19.426L680.284,933.438z M1182.016,924.039l-6.57,239.215
			l-54.605-36.373l-45.181-192.673L1182.016,924.039z M1360.125,871.145l-166.624-27.899l2.394-87.176l131.158,1.3L1360.125,871.145
			z M1304.5,754.062l-108.514-1.079l5.4-196.444l73.949,15.209L1304.5,754.062z M1250.59,390.283l-5.625,165.764l-43.325-8.909
			l4.868-177.2L1250.59,390.283z M1191.45,580.777l-67.2-23.769l-16.778-329.907l92.482,44.241L1191.45,580.777z M1202.932,162.812
			l-2.889,105.151l-92.263-44.136l37.719-91.25L1202.932,162.812z M1159.3,91.103l-54.31,131.392l-114.267-54.664l-14.467-97.118
			L1159.3,91.103z M1018.769,418.959l-66.568,18.37L939,367.38l65.417-44.773L1018.769,418.959z M936.217,369.282L960.73,499.17
			l-141.277-49.975L936.217,369.282z M902.637,149.002l14.723,172.033l-67.679,18.675l-14.399-158.445L902.637,149.002z
			 M832.237,181.84L846.7,341.064l-93.356,84.753l-52.771-18.666l0.527-228.656L832.237,181.84z M169.417,288.851l136.647-108.7
			l379.449-95.245l5.938,43.089l-380.13,113.13l-2.321,1.58l-130.449,165.83l-0.531,1.629l-37.169,2.8L169.417,288.851z
			 M61.52,422.038l116.105-8.743l7.622,207.187l-34.29,9.462L61.52,422.038z M122.66,640.951l62.7-17.3l1.64,44.6l0.841,2.495
			l34.141,48.526l-47.354,22.92L122.66,640.951z M176.041,744.934l47.744-23.109l37.285,53l-55.5,27.639L176.041,744.934z
			 M269.95,771.347l-73.74-104.814l-1.671-45.418l61.631-17.005l-5.47,60.985l1.046,1.6l91.788,30.887l44.639,85.982l-110.511,72.41
			l-6.881-82.348L269.95,771.347z M445.218,936.556l-127.31,106.101c-8.463,34.512-21.675,86.691-23.694,90.25l2.684,1.523
			c2.054-3.617,12.236-43.679,18.757-69.827l49.63-13.693l105.393,11.76l82.848,29.392l-116.977,95.946l-206.742-38.8l-0.57,3.035
			l207.45,38.935l0.047-0.25l0.081,0.268l83.91,8.646l1.067,98.912l3.087-0.033l-1.063-98.559l84.184,8.671l-30.05,131.8
			l9.032,2.057l23.055-101.119l62.941-13.422l-14.443,125.552l3.069,0.349l21.552-187.348l0.22,0.725l126.932-38.622l-0.428-1.406
			l74.724,71.806l-9.914,119.985l3.078,0.256l4.875-59.013l63.801-17.604l21.761,78.863l2.975-0.822l-22.171-80.353l-1.9-1.078
			l-64.199,17.716l4.776-57.8l100.9-87.85l13.281,13.332L1013,1286.595l3.08-0.211l-11.166-162.333l-0.446-0.984l-13.54-13.594
			l63.577-55.354l60.862,220.563l2.976-0.822l-17.849-64.685l74.712-37l-2.692,98.026l9.258,0.253l2.794-101.7l249.101-49.7
			l1.181-1.945l-105.146-361.7l-1.466-1.112l-20.605-0.2l-29.066-181.678l70.392,14.477l1.862-9.073l-102.783-21.138l5.676-167.316
			l-0.896-1.454l-46.214-21.339l2.5-90.858l99.488,47.594l1.333-2.786l-100.729-48.187l7.472-272.086l-9.263-0.257l-4.379,159.375
			l-56.342-29.661l16.256-39.327l-1.255-2.124L975.781,67.549l-9.564-64.2l-9.163,1.364l46.851,314.5L815.852,447.925l-59.199-20.94
			l92.425-83.906l70.341-19.409l1.126-1.62l-9.22-107.735l75.713,5.2l0.214-3.081l-76.194-5.234L893.52,6.295l-3.073,0.264
			l11.907,139.156l-67.366,32.273L819.806,10.895l-3.076,0.279l15.225,167.572l-130.843-3.341l0.1-44.09l-0.733-0.548l0.691-0.1
			l-7.183-52.142l-0.176-0.121l0.151-0.025L682.284,9.863l-9.129,1.556l10.958,64.291l-381.273,95.7l-1.756,0.867l-138.7,110.332
			l-1.629,2.583l-29.574,128.503L0,423.575l0.23,3.079l58.034-4.371l89.69,208.486l-66.826,18.44l0.821,2.976l37.673-10.4
			l52.231,101.744l-48.5,23.477l1.342,2.776l48.568-23.507l29.548,57.558L150.1,830.089l1.376,2.762l115.854-55.387l7.174,86.084
			l116.529-78.164l-0.037-0.057l0.086,0.021l24.756-17.7l26.382,28.325l0.534,0.37l104.916,43.931l-35.055,111.908l-67.4-15.626
			 M446.666,942.456l210.065,52.639l-16.27,71.363l-48.37-5.43l-1.147,0.34l-34.631,28.399l-84.771-30.073l-106.209-11.89
			l-48.823,13.362c2.252-9.05,3.722-15.587,3.722-15.587L446.666,942.456z M617.449,1167.382l-93.23-47.3l68.18-55.919l47.392,5.219
			L617.449,1167.382z M440.817,1188.495l79.086-64.866l0.789,73.1L440.817,1188.495z M523.782,1197.045l-0.8-74.124l93.762,47.566
			l-8.052,35.309L523.782,1197.045z M673.351,1224.913l-62.557,13.338l37.857-166.049l39.825,21.239l-7.481,65.026l-0.315,0.1
			l0.221,0.724L673.351,1224.913z M691.662,1092.748l-0.809-1.535l-41.491-22.132l12.8-56.157l78.383-30.53l62.444,44.182
			l1.259,0.178l3.022,93.289l-123.057,37.453L691.662,1092.748z M886.256,1196.508l-75.773-72.813l-3.13-96.579l72.176-25.101
			l106.882,107.3L886.256,1196.508z M882.766,1000.883l84.983-29.557l85.29,79.972l-64.294,55.977L882.766,1000.883z
			 M1099.657,1206.139l-42.828-155.208l-0.433-0.717l-85.355-80.029l101.6-35.336l45.337,193.329l0.648,0.933l56.723,37.785
			l-0.049,1.789L1099.657,1206.139z M1190.7,945.208l77.928,6.82l7.258,195.36l-91.24,18.2L1190.7,945.208z M1278.952,1146.776
			l-7.222-194.481l114.914,10.056l44.767,154L1278.952,1146.776z"/>
		
			<rect x="591.067" y="174.386" transform="matrix(-0.9545 0.2982 -0.2982 -0.9545 1291.9795 182.2213)" clip-path="url(#SVGID_4_)" fill="#F2F2F2" width="82.046" height="30.562"/>
		<polygon clip-path="url(#SVGID_4_)" fill="#F2F2F2" points="679.658,304.324 675.582,287.488 595.727,306.301 599.798,323.136 		
			"/>
		
			<rect x="783.684" y="442.523" transform="matrix(-0.3389 0.9408 -0.9408 -0.3389 1524.6975 -104.2316)" clip-path="url(#SVGID_4_)" fill="#F2F2F2" width="30.568" height="82.063"/>
		<polygon clip-path="url(#SVGID_4_)" fill="#F2F2F2" points="478.332,312.164 471.679,282.336 420.995,294.202 427.648,324.031 		
			"/>
		<polygon clip-path="url(#SVGID_4_)" fill="#F2F2F2" points="297.502,638.789 288.824,668.089 338.89,682.341 347.567,653.041 		
			"/>
		<polygon clip-path="url(#SVGID_4_)" fill="#F2F2F2" points="513.835,431.398 507.183,401.571 456.499,413.44 463.151,443.268 		
			"/>
		
			<rect x="582" y="335.963" transform="matrix(-0.964 0.266 -0.266 -0.964 1261.3713 527.0683)" clip-path="url(#SVGID_4_)" fill="#F2F2F2" width="25.985" height="25.985"/>
		
			<rect x="762.424" y="842.143" transform="matrix(-0.7683 0.6401 -0.6401 -0.7683 1918.5345 1015.7635)" clip-path="url(#SVGID_4_)" fill="#F2F2F2" width="25.983" height="25.983"/>
		
			<rect x="903.481" y="699.953" transform="matrix(-0.126 0.992 -0.992 -0.126 1739.1924 -106.4126)" clip-path="url(#SVGID_4_)" fill="#F2F2F2" width="25.984" height="25.983"/>
		
			<rect x="1020.309" y="1045.645" transform="matrix(-0.7682 0.6402 -0.6402 -0.7682 2492.1523 1204.4768)" clip-path="url(#SVGID_4_)" fill="#F2F2F2" width="15.459" height="15.459"/>
		
			<rect x="1102.555" y="1174.555" transform="matrix(-0.92 0.392 -0.392 -0.92 2595.1504 1834.7573)" clip-path="url(#SVGID_4_)" fill="#F2F2F2" width="15.464" height="15.464"/>
		
			<rect x="989.188" y="1006.852" transform="matrix(-0.675 0.7378 -0.7378 -0.675 2426.9739 983.2841)" clip-path="url(#SVGID_4_)" fill="#F2F2F2" width="15.462" height="38.66"/>
		
			<rect x="906.612" y="781.381" transform="matrix(-0.5608 0.828 -0.828 -0.5608 2087.063 467.2299)" clip-path="url(#SVGID_4_)" fill="#F2F2F2" width="25.984" height="11.611"/>
		
			<rect x="887.229" y="1024.947" transform="matrix(-0.7018 0.7123 -0.7123 -0.7018 2285.1899 1158.074)" clip-path="url(#SVGID_4_)" fill="#F2F2F2" width="25.986" height="64.712"/>
		
			<rect x="853.826" y="946.031" transform="matrix(-0.9246 0.3811 -0.3811 -0.9246 2033.6794 1515.3796)" clip-path="url(#SVGID_4_)" fill="#F2F2F2" width="25.984" height="25.983"/>
		
			<rect x="527.692" y="981.044" transform="matrix(-0.2105 0.9776 -0.9776 -0.2105 1626.2502 674.67)" clip-path="url(#SVGID_4_)" fill="#F2F2F2" width="25.984" height="25.984"/>
		
			<rect x="456.182" y="951.809" transform="matrix(-0.2105 0.9776 -0.9776 -0.2105 1503.2448 715.5374)" clip-path="url(#SVGID_4_)" fill="#F2F2F2" width="12.99" height="25.985"/>
		
			<rect x="411.655" y="778.45" transform="matrix(-0.7427 0.6697 -0.6697 -0.7427 1258.7107 1099.1963)" clip-path="url(#SVGID_4_)" fill="#F2F2F2" width="12.999" height="25.997"/>
		
			<rect x="591.092" y="994.693" transform="matrix(-0.2105 0.9776 -0.9776 -0.2105 1716.3455 629.2418)" clip-path="url(#SVGID_4_)" fill="#F2F2F2" width="25.983" height="25.984"/>
		
			<rect x="690.5" y="1180.509" transform="matrix(-0.2105 0.9776 -0.9776 -0.2105 2018.3209 756.9542)" clip-path="url(#SVGID_4_)" fill="#F2F2F2" width="25.984" height="25.984"/>
		
			<rect x="797.688" y="1152.33" transform="matrix(-0.6188 0.7856 -0.7856 -0.6188 2227.7461 1249.5803)" clip-path="url(#SVGID_4_)" fill="#F2F2F2" width="25.983" height="25.983"/>
		
			<rect x="383.48" y="1020.218" transform="matrix(-0.2105 0.9776 -0.9776 -0.2105 1482.1176 869.4167)" clip-path="url(#SVGID_4_)" fill="#F2F2F2" width="12.99" height="25.984"/>
		
			<rect x="435.531" y="1016.405" transform="matrix(-0.1396 0.9902 -0.9902 -0.1396 1533.7516 747.7283)" clip-path="url(#SVGID_4_)" fill="#F2F2F2" width="12.992" height="47.585"/>
		
			<rect x="313.336" y="1091.932" transform="matrix(-0.2519 0.9677 -0.9677 -0.2519 1495.2102 1062.0125)" clip-path="url(#SVGID_4_)" fill="#F2F2F2" width="47.598" height="33.952"/>
		
			<rect x="829.458" y="527.974" transform="matrix(-0.034 0.9994 -0.9994 -0.034 1411.7271 -282.6106)" clip-path="url(#SVGID_4_)" fill="#F2F2F2" width="25.973" height="25.973"/>
		
			<rect x="653.899" y="455.034" transform="matrix(-0.964 0.266 -0.266 -0.964 1421.3875 732.0358)" clip-path="url(#SVGID_4_)" fill="#F2F2F2" width="14.456" height="14.454"/>
		
			<rect x="598.397" y="496.895" transform="matrix(-0.9812 0.193 -0.193 -0.9812 1315.0461 880.1022)" clip-path="url(#SVGID_4_)" fill="#F2F2F2" width="32.494" height="14.452"/>
		
			<rect x="426.829" y="512.235" transform="matrix(-0.3265 0.9452 -0.9452 -0.3265 1066.7747 278.8083)" clip-path="url(#SVGID_4_)" fill="#F2F2F2" width="14.455" height="14.456"/>
		
			<rect x="563.627" y="821.806" transform="matrix(-0.428 0.9038 -0.9038 -0.428 1564.4376 667.883)" clip-path="url(#SVGID_4_)" fill="#F2F2F2" width="14.457" height="14.457"/>
		
			<rect x="438.888" y="753.931" transform="matrix(-0.7426 0.6697 -0.6697 -0.7426 1287.1646 1027.6793)" clip-path="url(#SVGID_4_)" fill="#F2F2F2" width="14.461" height="14.461"/>
		
			<rect x="418.471" y="730.476" transform="matrix(-0.7426 0.6697 -0.6697 -0.7426 1235.8773 1000.4755)" clip-path="url(#SVGID_4_)" fill="#F2F2F2" width="14.461" height="14.46"/>
		
			<rect x="229.531" y="758.331" transform="matrix(-0.8473 0.5312 -0.5312 -0.8473 843.9994 1288.4183)" clip-path="url(#SVGID_4_)" fill="#F2F2F2" width="14.45" height="14.45"/>
		
			<rect x="213.485" y="731.691" transform="matrix(-0.8473 0.5311 -0.5311 -0.8473 800.1398 1247.818)" clip-path="url(#SVGID_4_)" fill="#F2F2F2" width="14.454" height="14.455"/>
		
			<rect x="431.23" y="652.959" transform="matrix(-0.7021 0.7121 -0.7121 -0.7021 1216.406 811.4556)" clip-path="url(#SVGID_4_)" fill="#F2F2F2" width="14.453" height="14.453"/>
		
			<rect x="438.761" y="477.699" transform="matrix(-0.3693 0.9293 -0.9293 -0.3693 1061.3373 249.5432)" clip-path="url(#SVGID_4_)" fill="#F2F2F2" width="14.454" height="14.455"/>
		
			<rect x="494.883" y="494.399" transform="matrix(-0.805 0.5933 -0.5933 -0.805 1224.9282 600.5869)" clip-path="url(#SVGID_4_)" fill="#F2F2F2" width="37.733" height="14.455"/>
		
			<rect x="480.365" y="547.89" transform="matrix(-0.4279 0.9038 -0.9038 -0.4279 1206.113 364.8232)" clip-path="url(#SVGID_4_)" fill="#F2F2F2" width="14.455" height="32.5"/>
		
			<rect x="434.006" y="606.951" transform="matrix(-0.5767 0.817 -0.817 -0.5767 1211.6743 600.4977)" clip-path="url(#SVGID_4_)" fill="#F2F2F2" width="32.5" height="14.456"/>
		
			<rect x="276.533" y="534.88" transform="matrix(-0.065 0.9979 -0.9979 -0.065 848.4605 290.6052)" clip-path="url(#SVGID_4_)" fill="#F2F2F2" width="23.098" height="15.851"/>
		
			<rect x="315.019" y="561.151" transform="matrix(-0.065 0.9979 -0.9979 -0.065 915.6615 280.178)" clip-path="url(#SVGID_4_)" fill="#F2F2F2" width="23.098" height="15.849"/>
		
			<rect x="197.589" y="585.165" transform="matrix(-0.0646 0.9979 -0.9979 -0.0646 814.4916 422.6817)" clip-path="url(#SVGID_4_)" fill="#F2F2F2" width="23.096" height="15.848"/>
		
			<rect x="1203.757" y="804.006" transform="matrix(-0.034 0.9994 -0.9994 -0.034 2074.6208 -371.2787)" clip-path="url(#SVGID_4_)" fill="#F2F2F2" width="25.973" height="25.973"/>
		
			<rect x="1206.309" y="590.488" transform="matrix(-0.0336 0.9994 -0.9994 -0.0336 1863.4082 -594.8564)" clip-path="url(#SVGID_4_)" fill="#F2F2F2" width="25.984" height="25.984"/>
		
			<rect x="1228.87" y="678.798" transform="matrix(-0.0335 0.9994 -0.9994 -0.0335 1964.0881 -526.3625)" clip-path="url(#SVGID_4_)" fill="#F2F2F2" width="15.351" height="15.352"/>
		
			<rect x="1189.812" y="709.846" transform="matrix(-0.0335 0.9994 -0.9994 -0.0335 1971.3374 -471.2921)" clip-path="url(#SVGID_4_)" fill="#F2F2F2" width="47.465" height="15.353"/>
		
			<rect x="1257.471" y="641.725" transform="matrix(-0.0336 0.9994 -0.9994 -0.0336 1956.7517 -593.1779)" clip-path="url(#SVGID_4_)" fill="#F2F2F2" width="15.353" height="15.353"/>
		
			<rect x="1234.208" y="957.877" transform="matrix(-0.0336 0.9994 -0.9994 -0.0336 2259.3811 -243.042)" clip-path="url(#SVGID_4_)" fill="#F2F2F2" width="25.983" height="25.984"/>
		
			<rect x="1264.526" y="770.675" transform="matrix(-0.0337 0.9994 -0.9994 -0.0337 2127.2891 -466.3552)" clip-path="url(#SVGID_4_)" fill="#F2F2F2" width="49.153" height="49.154"/>
		
			<rect x="1139.635" y="615.15" transform="matrix(-0.0336 0.9994 -0.9994 -0.0336 1819.1423 -502.7295)" clip-path="url(#SVGID_4_)" fill="#F2F2F2" width="25.984" height="25.984"/>
		
			<rect x="1036.734" y="656.785" transform="matrix(-0.0336 0.9994 -0.9994 -0.0336 1743.5741 -357.0436)" clip-path="url(#SVGID_4_)" fill="#F2F2F2" width="15.353" height="15.353"/>
		
			<rect x="938.593" y="663.003" transform="matrix(-0.0336 0.9994 -0.9994 -0.0336 1648.4099 -252.4868)" clip-path="url(#SVGID_4_)" fill="#F2F2F2" width="15.353" height="15.353"/>
		
			<rect x="880.174" y="495.361" transform="matrix(-0.0336 0.9994 -0.9994 -0.0336 1420.4792 -367.383)" clip-path="url(#SVGID_4_)" fill="#F2F2F2" width="15.352" height="15.353"/>
		
			<rect x="771.174" y="561.137" transform="matrix(-0.9362 0.3513 -0.3513 -0.9362 1707.894 827.7245)" clip-path="url(#SVGID_4_)" fill="#F2F2F2" width="15.353" height="15.354"/>
		
			<rect x="826.613" y="733.095" transform="matrix(-0.0336 0.9994 -0.9994 -0.0336 1602.7148 -68.1191)" clip-path="url(#SVGID_4_)" fill="#F2F2F2" width="15.352" height="15.352"/>
		
			<rect x="951.078" y="370.703" transform="matrix(-0.964 0.266 -0.266 -0.964 1983.6167 488.1095)" clip-path="url(#SVGID_4_)" fill="#F2F2F2" width="15.354" height="15.353"/>
		
			<rect x="799.742" y="130.67" transform="matrix(-0.9909 0.1347 -0.1347 -0.9909 1627.5984 188.6004)" clip-path="url(#SVGID_4_)" fill="#F2F2F2" width="15.353" height="37.398"/>
		
			<rect x="960.599" y="443.583" transform="matrix(-0.9846 0.175 -0.175 -0.9846 2000.5829 726.0926)" clip-path="url(#SVGID_4_)" fill="#F2F2F2" width="15.353" height="15.353"/>
		
			<rect x="913.99" y="148.372" transform="matrix(-0.9846 0.175 -0.175 -0.9846 1856.4186 148.3842)" clip-path="url(#SVGID_4_)" fill="#F2F2F2" width="15.353" height="15.353"/>
		
			<rect x="1020.924" y="877.788" transform="matrix(-0.9374 0.3482 -0.3482 -0.9374 2335.0859 1358.2061)" clip-path="url(#SVGID_4_)" fill="#F2F2F2" width="49.154" height="22.272"/>
		
			<rect x="814.381" y="625.415" transform="matrix(-0.0336 0.9994 -0.9994 -0.0336 1503.8047 -166.892)" clip-path="url(#SVGID_4_)" fill="#F2F2F2" width="36.424" height="36.425"/>
		
			<rect x="477.091" y="724.853" transform="matrix(-0.964 0.266 -0.266 -0.964 1158.7578 1318.7666)" clip-path="url(#SVGID_4_)" fill="#F2F2F2" width="25.985" height="25.984"/>
		
			<rect x="376.736" y="498.192" transform="matrix(-0.3265 0.9452 -0.9452 -0.3265 1000.1449 309.7182)" clip-path="url(#SVGID_4_)" fill="#F2F2F2" width="25.984" height="25.985"/>
		
			<rect x="1115.485" y="269.372" transform="matrix(-0.0336 0.9994 -0.9994 -0.0336 1456.2229 -843.3341)" clip-path="url(#SVGID_4_)" fill="#F2F2F2" width="40.695" height="25.983"/>
		
			<rect x="1133.359" y="762.164" transform="matrix(-0.034 0.9994 -0.9994 -0.034 1967.6484 -351.5068)" clip-path="url(#SVGID_4_)" fill="#F2F2F2" width="40.675" height="25.974"/>
		
			<rect x="1169.11" y="337.636" transform="matrix(-0.0336 0.9994 -0.9994 -0.0336 1563.7268 -823.0928)" clip-path="url(#SVGID_4_)" fill="#F2F2F2" width="21.382" height="13.652"/>
		
			<rect x="1071.784" y="489.847" transform="matrix(-0.9965 0.084 -0.084 -0.9965 2219.3057 923.1731)" clip-path="url(#SVGID_4_)" fill="#F2F2F2" width="36.883" height="36.882"/>
		
			<rect x="1044.694" y="406.031" transform="matrix(-0.9908 0.135 -0.135 -0.9908 2164.9663 731.4247)" clip-path="url(#SVGID_4_)" fill="#F2F2F2" width="25.988" height="66.146"/>
		
			<rect x="836.405" y="49.515" transform="matrix(-0.9909 0.1347 -0.1347 -0.9909 1702.1768 49.9991)" clip-path="url(#SVGID_4_)" fill="#F2F2F2" width="25.984" height="66.135"/>
		
			<rect x="997.457" y="137.221" transform="matrix(-0.4247 0.9054 -0.9054 -0.4247 1567.3053 -702.6443)" clip-path="url(#SVGID_4_)" fill="#F2F2F2" width="18.912" height="18.912"/>
		
			<rect x="1031.452" y="153.061" transform="matrix(-0.3649 0.931 -0.931 -0.3649 1572.0645 -747.304)" clip-path="url(#SVGID_4_)" fill="#F2F2F2" width="18.912" height="18.913"/>
		
			<rect x="1112.98" y="127.115" transform="matrix(-0.365 0.931 -0.931 -0.365 1659.2345 -858.598)" clip-path="url(#SVGID_4_)" fill="#F2F2F2" width="18.912" height="18.913"/>
		
			<rect x="1219.348" y="311.153" transform="matrix(-0.1209 0.9927 -0.9927 -0.1209 1695.6215 -860.4226)" clip-path="url(#SVGID_4_)" fill="#F2F2F2" width="18.919" height="18.919"/>
		
			<rect x="1122.321" y="205.249" transform="matrix(-0.365 0.931 -0.931 -0.365 1744.7943 -760.603)" clip-path="url(#SVGID_4_)" fill="#F2F2F2" width="18.912" height="18.912"/>
		
			<rect x="1238.629" y="241.257" transform="matrix(-0.4152 0.9097 -0.9097 -0.4152 2012.1116 -753.0604)" clip-path="url(#SVGID_4_)" fill="#F2F2F2" width="18.913" height="57.79"/>
		
			<rect x="877.668" y="285.585" transform="matrix(-0.9965 0.084 -0.084 -0.9965 1803.2521 521.2833)" clip-path="url(#SVGID_4_)" fill="#F2F2F2" width="25.983" height="25.984"/>
		
			<rect x="879.794" y="570.329" transform="matrix(-0.9999 0.016 -0.016 -0.9999 1808.4258 1236.0111)" clip-path="url(#SVGID_4_)" fill="#F2F2F2" width="38.952" height="109.816"/>
		<polygon clip-path="url(#SVGID_4_)" fill="#F2F2F2" points="1017.979,1162.918 1024.945,1273.218 1063.886,1272.586 
			1056.916,1162.28 		"/>
		
			<rect x="1166.148" y="1067.586" transform="matrix(-0.0336 0.9994 -0.9994 -0.0336 2348.4805 -96.813)" clip-path="url(#SVGID_4_)" fill="#F2F2F2" width="109.8" height="38.947"/>
		
			<rect x="1300.016" y="957.339" transform="matrix(-0.0336 0.9994 -0.9994 -0.0336 2353.3015 -295.4358)" clip-path="url(#SVGID_4_)" fill="#F2F2F2" width="38.948" height="65.461"/>
		
			<rect x="326.333" y="337.809" transform="matrix(-0.6718 0.7408 -0.7408 -0.6718 863.1374 336.4501)" clip-path="url(#SVGID_4_)" fill="#F2F2F2" width="61.393" height="43.283"/>
		
			<rect x="607.937" y="881.883" transform="matrix(-0.2099 0.9777 -0.9777 -0.2099 1662.3916 451.0089)" clip-path="url(#SVGID_4_)" fill="#F2F2F2" width="82.071" height="30.57"/>
		
			<rect x="301.235" y="774.086" transform="matrix(-0.8571 0.5151 -0.5151 -0.8571 1006.9598 1310.0356)" clip-path="url(#SVGID_4_)" fill="#F2F2F2" width="41.147" height="41.148"/>
		
			<rect x="478.282" y="835.839" transform="matrix(-0.3389 0.9408 -0.9408 -0.3389 1485.8105 679.4736)" clip-path="url(#SVGID_4_)" fill="#F2F2F2" width="51.81" height="51.81"/>
		
			<rect x="380.294" y="878.602" transform="matrix(-0.339 0.9408 -0.9408 -0.339 1359.1636 822.7205)" clip-path="url(#SVGID_4_)" fill="#F2F2F2" width="20.507" height="20.508"/>
		
			<rect x="627.948" y="1194.6" transform="matrix(-0.2105 0.9776 -0.9776 -0.2105 1950.3781 834.5095)" clip-path="url(#SVGID_4_)" fill="#F2F2F2" width="20.503" height="20.503"/>
		
			<rect x="156.451" y="641.113" transform="matrix(-0.9951 0.0988 -0.0988 -0.9951 396.9455 1283.0701)" clip-path="url(#SVGID_4_)" fill="#F2F2F2" width="20.505" height="20.502"/>
		
			<rect x="262.194" y="327.522" transform="matrix(-0.5647 0.8253 -0.8253 -0.5647 711.6078 305.6847)" clip-path="url(#SVGID_4_)" fill="#F2F2F2" width="25.984" height="25.984"/>
		<path clip-path="url(#SVGID_4_)" fill="#33CCCC" d="M625.159,976.888c0.28-10.103-7.682-18.52-17.785-18.801
			c-9.968-0.276-18.322,7.478-18.788,17.438c-0.218,3.607,0.641,7.198,2.469,10.316l9.8,19.56c1.227,2.447,4.205,3.437,6.652,2.209
			c0.777-0.389,1.438-0.976,1.916-1.701l12.038-18.271c2.348-3.097,3.644-6.864,3.7-10.75"/>
		<path clip-path="url(#SVGID_4_)" fill="#FFFFFF" d="M606.141,987.362c-5.768-0.342-10.168-5.295-9.828-11.063
			c0.341-5.769,5.294-10.168,11.063-9.828c5.768,0.341,10.168,5.294,9.827,11.063v0.001c-0.341,5.768-5.293,10.168-11.06,9.827
			C606.142,987.362,606.141,987.362,606.141,987.362"/>
		<path clip-path="url(#SVGID_4_)" fill="#33CCCC" d="M410.249,854.232c-0.529-10.093-9.139-17.846-19.232-17.317
			c-9.943,0.521-17.645,8.896-17.334,18.847c0.066,3.614,1.206,7.126,3.275,10.089l11.315,18.725
			c1.415,2.342,4.461,3.094,6.803,1.679c0.745-0.45,1.358-1.088,1.778-1.85l10.559-19.163
			C409.507,861.967,410.5,858.109,410.249,854.232"/>
		<path clip-path="url(#SVGID_4_)" fill="#FFFFFF" d="M392.117,866.174c-5.777,0.116-10.555-4.474-10.671-10.251
			c-0.116-5.777,4.474-10.555,10.251-10.671c5.778-0.116,10.555,4.474,10.671,10.251v0.001
			C402.483,861.281,397.894,866.058,392.117,866.174"/>
		<path clip-path="url(#SVGID_4_)" fill="#33CCCC" d="M945.119,680.622c1.979-9.911-4.452-19.55-14.363-21.529
			c-9.783-1.953-19.328,4.289-21.46,14.035c-0.822,3.519-0.578,7.203,0.7,10.584l6.374,20.93c0.797,2.618,3.565,4.094,6.183,3.298
			c0.833-0.254,1.584-0.722,2.179-1.357l14.938-15.985c2.833-2.66,4.743-6.155,5.451-9.976"/>
		<path clip-path="url(#SVGID_4_)" fill="#FFFFFF" d="M924.608,687.748c-5.63-1.307-9.134-6.929-7.827-12.557
			c1.306-5.629,6.928-9.134,12.557-7.827c5.629,1.306,9.133,6.928,7.827,12.557v0.001
			C935.859,685.55,930.237,689.054,924.608,687.748C924.608,687.748,924.608,687.748,924.608,687.748"/>
		<path clip-path="url(#SVGID_4_)" fill="#33CCCC" d="M515.162,383.452c-0.519-10.094-9.122-17.855-19.215-17.336
			c-9.962,0.512-17.679,8.907-17.351,18.877c0.068,3.613,1.209,7.125,3.278,10.088l11.321,18.72
			c1.415,2.342,4.461,3.093,6.803,1.678c0.746-0.45,1.359-1.089,1.779-1.852l10.552-19.165
			C514.422,391.188,515.415,387.33,515.162,383.452"/>
		<path clip-path="url(#SVGID_4_)" fill="#FFFFFF" d="M497.033,395.4c-5.777,0.119-10.557-4.469-10.676-10.246
			c-0.118-5.777,4.469-10.557,10.246-10.676c5.778-0.118,10.557,4.469,10.676,10.246c0,0.001,0,0.002,0,0.003
			C507.397,390.504,502.809,395.282,497.033,395.4c-0.002,0-0.002,0-0.003,0"/>
		<path clip-path="url(#SVGID_4_)" fill="#33CCCC" d="M654.194,276.908c0.981-10.059-6.379-19.009-16.438-19.99
			c-9.93-0.968-18.806,6.197-19.954,16.108c-0.466,3.584,0.145,7.225,1.755,10.46l8.43,20.19c1.053,2.526,3.954,3.721,6.48,2.668
			c0.803-0.335,1.505-0.876,2.033-1.568l13.27-17.4c2.554-2.929,4.106-6.597,4.429-10.47"/>
		<path clip-path="url(#SVGID_4_)" fill="#FFFFFF" d="M634.498,286.048c-5.731-0.738-9.779-5.983-9.041-11.714
			c0.739-5.731,5.983-9.779,11.714-9.041c5.731,0.739,9.779,5.983,9.041,11.714c-0.737,5.731-5.981,9.779-11.712,9.041
			C634.5,286.048,634.499,286.048,634.498,286.048"/>
		<path clip-path="url(#SVGID_4_)" fill="#33CCCC" d="M294.57,305.438c-0.518-10.094-9.12-17.855-19.214-17.338
			c-9.963,0.511-17.681,8.908-17.352,18.879c0.068,3.613,1.209,7.125,3.278,10.088l11.321,18.72
			c1.415,2.342,4.461,3.093,6.804,1.678c0.745-0.45,1.358-1.089,1.778-1.852l10.553-19.165
			C293.832,313.174,294.824,309.316,294.57,305.438"/>
		<path clip-path="url(#SVGID_4_)" fill="#FFFFFF" d="M276.442,317.386c-5.777,0.119-10.557-4.469-10.676-10.246
			c-0.118-5.777,4.469-10.557,10.246-10.676c5.778-0.118,10.557,4.469,10.676,10.246c0,0.001,0,0.002,0,0.003
			C286.806,312.49,282.218,317.268,276.442,317.386h-0.003"/>
		<path clip-path="url(#SVGID_4_)" fill="#33CCCC" d="M896.897,935.059c3.205-9.585-1.967-19.954-11.552-23.159
			c-9.509-3.18-19.807,1.886-23.093,11.359c-1.247,3.393-1.455,7.079-0.601,10.591l3.781,21.549c0.473,2.695,3.04,4.498,5.736,4.025
			c0.857-0.15,1.66-0.523,2.327-1.082l16.771-14.048c3.137-2.295,5.457-5.532,6.625-9.239"/>
		<path clip-path="url(#SVGID_4_)" fill="#FFFFFF" d="M875.674,939.637c-5.428-1.98-8.223-7.988-6.241-13.416
			s7.987-8.223,13.416-6.242c5.429,1.982,8.223,7.988,6.241,13.417l0,0C887.109,938.824,881.102,941.618,875.674,939.637"/>
	</g>
	<g clip-path="url(#SVGID_2_)">
		<defs>
			<rect id="SVGID_5_" y="-0.001" width="1453.02" height="1354.051"/>
		</defs>
		<clipPath id="SVGID_6_">
			<use xlink:href="#SVGID_5_"  overflow="visible"/>
		</clipPath>
		<path clip-path="url(#SVGID_6_)" fill="#173554" d="M174,375.353h628c6.627,0,12,5.373,12,12v388c0,6.627-5.373,12-12,12H174
			c-6.627,0-12-5.373-12-12v-388C162,380.726,167.373,375.353,174,375.353"/>
		<path clip-path="url(#SVGID_6_)" fill="#FFFFFF" d="M156,359.353h628c6.627,0,12,5.373,12,12v387c0,6.627-5.373,12-12,12H156
			c-6.627,0-12-5.373-12-12v-387C144,364.726,149.373,359.353,156,359.353"/>
		<path clip-path="url(#SVGID_6_)" fill="none" stroke="#173554" stroke-width="1.5" d="M156,360.103h628
			c6.213,0,11.25,5.037,11.25,11.25v387c0,6.213-5.037,11.25-11.25,11.25H156c-6.213,0-11.25-5.037-11.25-11.25v-387
			C144.75,365.14,149.787,360.103,156,360.103z"/>
		<path clip-path="url(#SVGID_6_)" fill="#33CCCC" d="M470.199,510.687c38.985,0,70.588,31.603,70.588,70.588
			s-31.603,70.588-70.588,70.588c-38.985,0-70.588-31.603-70.588-70.588S431.214,510.687,470.199,510.687"/>
		<path clip-path="url(#SVGID_6_)" fill="#FFFFFF" d="M489.001,579.178c1.438,0.822,1.938,2.655,1.116,4.093
			c-0.266,0.465-0.651,0.85-1.116,1.116l-26.5,15.144c-1.439,0.822-3.271,0.322-4.093-1.117c-0.258-0.452-0.394-0.963-0.395-1.483
			V566.64c0.003-1.657,1.348-2.998,3.005-2.995c0.52,0.001,1.031,0.137,1.483,0.395L489.001,579.178z"/>
		<path clip-path="url(#SVGID_6_)" fill="#173554" d="M168.5,375.353c4.142,0,7.5,3.358,7.5,7.5c0,4.142-3.358,7.5-7.5,7.5
			s-7.5-3.358-7.5-7.5C161,378.711,164.358,375.353,168.5,375.353"/>
		<path clip-path="url(#SVGID_6_)" fill="#685CEB" d="M194,375.353c4.418,0,8,3.358,8,7.5c0,4.142-3.582,7.5-8,7.5s-8-3.358-8-7.5
			C186,378.711,189.582,375.353,194,375.353"/>
		<path clip-path="url(#SVGID_6_)" fill="#33CCCC" d="M219.5,375.353c4.142,0,7.5,3.358,7.5,7.5c0,4.142-3.358,7.5-7.5,7.5
			s-7.5-3.358-7.5-7.5C212,378.711,215.358,375.353,219.5,375.353"/>
		<line clip-path="url(#SVGID_6_)" fill="none" stroke="#173554" x1="143.665" y1="404.331" x2="793.728" y2="404.331"/>
		<g clip-path="url(#SVGID_6_)">
			<defs>
				<path id="SVGID_7_" d="M1657.188,97.15h0.201c80.256,0,145.314,65.059,145.314,145.314v0.002
					c0,80.255-65.059,145.314-145.314,145.314h-0.201c-80.256,0-145.314-65.059-145.314-145.314v-0.002
					C1511.873,162.209,1576.932,97.15,1657.188,97.15"/>
			</defs>
			<clipPath id="SVGID_8_">
				<use xlink:href="#SVGID_7_"  overflow="visible"/>
			</clipPath>
			<polygon clip-path="url(#SVGID_8_)" fill="#DDDDDD" points="1949.335,-62.636 2083.62,750.909 1632.385,802.557 
				1372.305,802.848 1144.106,173.21 1303.642,-63.813 1551.873,-54.844 			"/>
			<polygon clip-path="url(#SVGID_8_)" fill="#BAE57A" points="1323.834,424.874 1250.939,461.027 1269.78,529.029 
				1332.458,527.646 			"/>
			<polygon clip-path="url(#SVGID_8_)" fill="#CCCCCC" points="1591.229,-12.358 1347.715,48.52 1260.089,117.943 1241.377,198.913 
				1270.778,196.706 1353.197,92.358 1595.768,20.455 			"/>
			<polygon clip-path="url(#SVGID_8_)" fill="#FFFFFF" points="1372.533,376.433 1372.489,375.639 1430.937,223.886 
				1431.645,223.284 1486.411,211.591 1486.849,211.591 1532.923,223.007 1601.08,211.648 1601.398,213.564 1533.041,224.957 
				1532.644,224.941 1486.593,213.531 1432.563,225.065 1374.457,375.919 1402.527,429.768 1417.949,418.785 1419.228,418.912 
				1436.348,437.219 1503.257,465.121 1503.811,466.307 1480.546,540.291 1478.685,539.71 1501.684,466.577 1435.4,438.933 
				1435.062,438.7 1418.392,420.876 1402.752,432.014 1401.323,431.672 			"/>
			<polygon clip-path="url(#SVGID_8_)" fill="#FFFFFF" points="1269.763,531.945 1269.795,526.117 1436.316,527.069 
				1436.959,527.146 1574.752,558.962 1573.432,564.639 1435.955,532.898 			"/>
			<polygon clip-path="url(#SVGID_8_)" fill="#FFFFFF" points="1431.126,685.661 1529.022,605.69 1529.748,605.476 1563.49,609.248 
				1592.147,624.471 1592.658,625.437 1573.67,789.858 1571.731,789.637 1590.648,625.874 1562.741,611.05 1529.946,607.453 
				1434.177,685.685 1543.054,696.862 1542.854,698.794 1431.648,687.379 			"/>
			<polygon clip-path="url(#SVGID_8_)" fill="#FFFFFF" points="1354.677,607.84 1354.158,605.968 1386.488,597.154 
				1453.591,604.638 1507.667,623.746 1507.016,625.577 1453.053,606.505 1386.466,599.107 			"/>
			<path clip-path="url(#SVGID_8_)" fill="#FFFFFF" d="M1341.557,650.701c1.27-2.24,9.623-35.076,14.97-56.791l-24.979-65.922
				l1.826-0.686l25.084,66.205l0.034,0.574c-1.366,5.557-13.409,54.369-15.24,57.579L1341.557,650.701z"/>
			<polygon clip-path="url(#SVGID_8_)" fill="#FFFFFF" points="1422.172,248.983 1423.115,247.281 1528.903,305.442 
				1527.961,307.144 			"/>
			<polygon clip-path="url(#SVGID_8_)" fill="#FFFFFF" points="1314.063,356.335 1323.004,257.148 1324.197,256.291 
				1411.654,276.882 1502.117,320.182 1501.271,321.929 1410.903,278.682 1324.844,258.438 1316.072,355.745 1373.703,375.062 
				1373.082,376.903 1314.716,357.342 			"/>
			<polygon clip-path="url(#SVGID_8_)" fill="#FFFFFF" points="1323.261,256.575 1424.492,148.481 1424.969,148.2 1593.53,106.993 
				1593.995,108.881 1425.716,150.018 1324.68,257.899 			"/>
			<polygon clip-path="url(#SVGID_8_)" fill="#FFFFFF" points="1273.822,358.326 1267.862,196.809 1268.488,194.903 
				1350.895,90.553 1352.359,89.562 1594.933,17.663 1598.694,20.462 1598.289,195.594 1662.279,375.568 1661.926,378.2 
				1598.104,470.003 1526.525,782.708 1520.819,781.412 1592.533,468.158 1592.98,467.147 1656.263,376.107 1592.599,197.06 
				1592.431,196.08 1592.828,24.363 1354.923,94.884 1273.744,197.658 1279.639,357.238 1326.226,423.192 1326.752,424.621 
				1335.374,527.409 1329.541,527.894 1320.984,425.907 1274.354,359.896 			"/>
			<polygon clip-path="url(#SVGID_8_)" fill="#FFFFFF" points="1327.871,478.561 1401.653,430.413 1402.724,432.037 
				1328.941,480.187 			"/>
			<polygon clip-path="url(#SVGID_8_)" fill="#FFFFFF" points="1207.451,348.215 1206.932,346.343 1318.358,315.721 
				1318.877,317.593 			"/>
			<polygon clip-path="url(#SVGID_8_)" fill="#FFFFFF" points="1302.765,156.25 1303.93,154.693 1372.258,205.526 1371.092,207.083 
							"/>
			
				<rect x="1155.585" y="200.034" transform="matrix(-0.9972 0.075 -0.075 -0.9972 2438.1648 310.4328)" clip-path="url(#SVGID_8_)" fill="#FFFFFF" width="115.336" height="1.943"/>
			<polygon clip-path="url(#SVGID_8_)" fill="#FFFFFF" points="1250.504,460.159 1323.405,424.001 1324.275,425.749 
				1251.373,461.896 			"/>
			<polygon clip-path="url(#SVGID_8_)" fill="#FFFFFF" points="1387.003,339.303 1388.518,338.079 1456.849,421.823 
				1456.69,423.205 1436.368,438.797 1435.181,437.258 1454.709,422.276 			"/>
			<polygon clip-path="url(#SVGID_8_)" fill="#FFFFFF" points="1319.77,303.163 1320.071,301.243 1397.337,313.267 
				1397.764,313.443 1452.652,353.585 1452.652,355.146 1420.604,379.021 1419.433,377.465 1450.43,354.376 1396.794,315.15 			"/>
			<polygon clip-path="url(#SVGID_8_)" fill="#FFFFFF" points="1421.33,331.876 1448.479,295.381 1450.047,296.535 1422.899,333.03 
							"/>
			<g opacity="0.2" clip-path="url(#SVGID_8_)">
				<g>
					<defs>
						<rect id="SVGID_9_" x="1421.66" y="115.49" width="36.22" height="26.24"/>
					</defs>
					<clipPath id="SVGID_10_">
						<use xlink:href="#SVGID_9_"  overflow="visible"/>
					</clipPath>
					<g clip-path="url(#SVGID_10_)">
						<defs>
							<rect id="SVGID_11_" x="1421.656" y="115.49" width="36.225" height="26.236"/>
						</defs>
						<clipPath id="SVGID_12_">
							<use xlink:href="#SVGID_11_"  overflow="visible"/>
						</clipPath>
						<polygon clip-path="url(#SVGID_12_)" fill="#606060" points="1457.881,134.259 1425.857,141.721 1421.656,122.95 
							1453.677,115.488 						"/>
					</g>
				</g>
			</g>
			<polygon clip-path="url(#SVGID_8_)" fill="#D5D2CC" points="1369.783,367.19 1338.153,358.223 1343.635,339.784 
				1375.266,348.751 			"/>
			<g opacity="0.2" clip-path="url(#SVGID_8_)">
				<g>
					<defs>
						<rect id="SVGID_13_" x="1444.09" y="190.52" width="36.221" height="26.23"/>
					</defs>
					<clipPath id="SVGID_14_">
						<use xlink:href="#SVGID_13_"  overflow="visible"/>
					</clipPath>
					<g clip-path="url(#SVGID_14_)">
						<defs>
							<rect id="SVGID_15_" x="1444.086" y="190.519" width="36.225" height="26.236"/>
						</defs>
						<clipPath id="SVGID_16_">
							<use xlink:href="#SVGID_15_"  overflow="visible"/>
						</clipPath>
						<polygon clip-path="url(#SVGID_16_)" fill="#606060" points="1480.311,209.288 1448.288,216.75 1444.086,197.979 
							1476.106,190.517 						"/>
					</g>
				</g>
			</g>
			<polygon clip-path="url(#SVGID_8_)" fill="#FFFFFF" points="1238.527,198.255 1257.237,117.286 1258.269,115.66 1345.896,46.236 
				1347.008,45.69 1590.518,-15.183 1594.128,-12.755 1598.667,20.058 1592.869,20.851 1588.782,-8.739 1349.051,51.194 
				1262.71,119.591 1244.23,199.562 			"/>
			<polygon clip-path="url(#SVGID_8_)" fill="#D5D2CC" points="1439.104,547.2 1440.831,539.208 1456.881,542.65 1455.152,550.641 
							"/>
			<polygon clip-path="url(#SVGID_8_)" fill="#D5D2CC" points="1411.313,432.51 1417.407,427.034 1428.403,439.175 
				1422.307,444.651 			"/>
			<polygon clip-path="url(#SVGID_8_)" fill="#D5D2CC" points="1315.875,555.653 1312.571,539.637 1328.652,536.347 
				1331.956,552.363 			"/>
			<polygon clip-path="url(#SVGID_8_)" fill="#D5D2CC" points="1393.169,590.246 1394.897,582.254 1410.947,585.696 
				1409.218,593.688 			"/>
			<polygon clip-path="url(#SVGID_8_)" fill="#D5D2CC" points="1419.485,594.325 1420.632,586.228 1450.401,590.408 
				1449.254,598.504 			"/>
			<polygon clip-path="url(#SVGID_8_)" fill="#D5D2CC" points="1362.072,618.426 1382.827,623.8 1375.262,652.779 1354.507,647.405 
							"/>
			<polygon clip-path="url(#SVGID_8_)" fill="#D5D2CC" points="1424.101,267.514 1427.084,258.917 1435.716,261.886 
				1432.732,270.483 			"/>
			<g opacity="0.2" clip-path="url(#SVGID_8_)">
				<g>
					<defs>
						<rect id="SVGID_17_" x="1431.08" y="410.364" width="12.89" height="12.846"/>
					</defs>
					<clipPath id="SVGID_18_">
						<use xlink:href="#SVGID_17_"  overflow="visible"/>
					</clipPath>
					<g clip-path="url(#SVGID_18_)">
						<defs>
							<rect id="SVGID_19_" x="1431.077" y="410.364" width="12.897" height="12.846"/>
						</defs>
						<clipPath id="SVGID_20_">
							<use xlink:href="#SVGID_19_"  overflow="visible"/>
						</clipPath>
						<polygon clip-path="url(#SVGID_20_)" fill="#606060" points="1437.194,423.209 1431.077,416.456 1437.857,410.364 
							1443.975,417.118 						"/>
					</g>
				</g>
			</g>
			<polygon clip-path="url(#SVGID_8_)" fill="#D5D2CC" points="1424.295,408.449 1418.178,401.695 1424.958,395.604 
				1431.075,402.357 			"/>
			<polygon clip-path="url(#SVGID_8_)" fill="#D5D2CC" points="1303.814,425.821 1298.964,418.115 1306.702,413.283 
				1311.552,420.99 			"/>
			<polygon clip-path="url(#SVGID_8_)" fill="#D5D2CC" points="1293.671,409.061 1288.82,401.354 1296.559,396.523 
				1301.408,404.229 			"/>
			<polygon clip-path="url(#SVGID_8_)" fill="#D5D2CC" points="1432.736,359.679 1426.227,353.295 1432.636,346.816 
				1439.145,353.198 			"/>
			<g opacity="0.2" clip-path="url(#SVGID_8_)">
				<g>
					<defs>
						<rect id="SVGID_21_" x="1431.52" y="237.06" width="11.86" height="11.82"/>
					</defs>
					<clipPath id="SVGID_22_">
						<use xlink:href="#SVGID_21_"  overflow="visible"/>
					</clipPath>
					<g clip-path="url(#SVGID_22_)">
						<defs>
							<rect id="SVGID_23_" x="1431.517" y="237.063" width="11.86" height="11.813"/>
						</defs>
						<clipPath id="SVGID_24_">
							<use xlink:href="#SVGID_23_"  overflow="visible"/>
						</clipPath>
						<polygon clip-path="url(#SVGID_24_)" fill="#606060" points="1431.517,245.516 1434.889,237.063 1443.377,240.42 
							1440.004,248.874 						"/>
					</g>
				</g>
			</g>
			<g opacity="0.2" clip-path="url(#SVGID_8_)">
				<g>
					<defs>
						<rect id="SVGID_25_" x="1452.5" y="284.33" width="22.47" height="16.97"/>
					</defs>
					<clipPath id="SVGID_26_">
						<use xlink:href="#SVGID_25_"  overflow="visible"/>
					</clipPath>
					<g clip-path="url(#SVGID_26_)">
						<defs>
							<rect id="SVGID_27_" x="1452.499" y="284.327" width="22.467" height="16.972"/>
						</defs>
						<clipPath id="SVGID_28_">
							<use xlink:href="#SVGID_27_"  overflow="visible"/>
						</clipPath>
						<polygon clip-path="url(#SVGID_28_)" fill="#606060" points="1452.499,292.549 1456.406,284.327 1474.966,293.076 
							1471.058,301.298 						"/>
					</g>
				</g>
			</g>
			<g opacity="0.2" clip-path="url(#SVGID_8_)">
				<g>
					<defs>
						<rect id="SVGID_29_" x="1430.49" y="313.32" width="19.31" height="21.96"/>
					</defs>
					<clipPath id="SVGID_30_">
						<use xlink:href="#SVGID_29_"  overflow="visible"/>
					</clipPath>
					<g clip-path="url(#SVGID_30_)">
						<defs>
							<rect id="SVGID_31_" x="1430.491" y="313.322" width="19.302" height="21.954"/>
						</defs>
						<clipPath id="SVGID_32_">
							<use xlink:href="#SVGID_31_"  overflow="visible"/>
						</clipPath>
						<polygon clip-path="url(#SVGID_32_)" fill="#606060" points="1437.951,335.275 1430.489,330.037 1442.333,313.315 
							1449.795,318.555 						"/>
					</g>
				</g>
			</g>
			
				<rect x="1330.412" y="274.38" transform="matrix(-0.0648 0.9979 -0.9979 -0.0648 1703.2146 -1037.3617)" clip-path="url(#SVGID_8_)" fill="#D5D2CC" width="14.534" height="10.012"/>
			
				<rect x="1354.727" y="290.91" transform="matrix(-0.0648 0.9979 -0.9979 -0.0648 1745.6016 -1044.0233)" clip-path="url(#SVGID_8_)" fill="#D5D2CC" width="14.534" height="10.013"/>
			
				<rect x="1280.54" y="306.022" transform="matrix(-0.0648 0.9979 -0.9979 -0.0648 1681.6005 -953.926)" clip-path="url(#SVGID_8_)" fill="#D5D2CC" width="14.533" height="10.013"/>
			<polygon clip-path="url(#SVGID_8_)" fill="#D5D2CC" points="1391.462,264.548 1396.822,249.094 1412.339,254.433 
				1406.979,269.887 			"/>
			<polygon clip-path="url(#SVGID_8_)" fill="#D5D2CC" points="1378.334,187.467 1358.085,169.174 1384.137,140.571 
				1404.386,158.864 			"/>
			<polygon clip-path="url(#SVGID_8_)" fill="#D5D2CC" points="1354.534,455.642 1341.155,433.439 1363.447,420.114 
				1376.828,442.317 			"/>
			<g opacity="0.2" clip-path="url(#SVGID_8_)">
				<g>
					<defs>
						<rect id="SVGID_33_" x="1438.88" y="452.206" width="16.58" height="16.512"/>
					</defs>
					<clipPath id="SVGID_34_">
						<use xlink:href="#SVGID_33_"  overflow="visible"/>
					</clipPath>
					<g clip-path="url(#SVGID_34_)">
						<defs>
							<rect id="SVGID_35_" x="1438.885" y="452.206" width="16.58" height="16.511"/>
						</defs>
						<clipPath id="SVGID_36_">
							<use xlink:href="#SVGID_35_"  overflow="visible"/>
						</clipPath>
						<polygon clip-path="url(#SVGID_36_)" fill="#606060" points="1438.885,464.344 1443.275,452.207 1455.463,456.581 
							1451.071,468.718 						"/>
					</g>
				</g>
			</g>
			
				<rect x="1344.12" y="504.56" transform="matrix(-0.9951 0.099 -0.099 -0.9951 2745.1311 885.8604)" clip-path="url(#SVGID_8_)" fill="#D5D2CC" width="12.952" height="12.901"/>
			
				<rect x="1254.519" y="341.246" transform="matrix(-0.9951 0.0993 -0.0993 -0.9951 2550.2827 568.4868)" clip-path="url(#SVGID_8_)" fill="#D5D2CC" width="12.955" height="12.903"/>
			<polygon clip-path="url(#SVGID_8_)" fill="#D5D2CC" points="1318.126,154.229 1327.396,140.733 1340.945,149.965 
				1331.676,163.46 			"/>
			<polygon clip-path="url(#SVGID_8_)" fill="#FFFFFF" points="1192.211,202.915 1194.002,202.147 1251.386,334.996 
				1249.595,335.763 			"/>
			<polygon clip-path="url(#SVGID_8_)" fill="#FFFFFF" points="1230.891,340.969 1232.626,340.083 1285.771,443.188 
				1284.035,444.075 			"/>
			<polygon clip-path="url(#SVGID_8_)" fill="#FFFFFF" points="1233.609,420.465 1298.734,389.07 1299.585,390.815 
				1234.457,422.213 			"/>
			<polygon clip-path="url(#SVGID_8_)" fill="#FFFFFF" points="1300.505,662.866 1300.865,660.961 1431.93,685.46 1431.57,687.364 
							"/>
		</g>
		<g clip-path="url(#SVGID_6_)">
			<defs>
				<path id="SVGID_37_" d="M1533.579,1363.771h369.087c8.093,0,14.653,6.561,14.653,14.653V1756.3
					c0,8.092-6.561,14.653-14.653,14.653h-369.087c-8.093,0-14.653-6.562-14.653-14.653v-377.875
					C1518.926,1370.332,1525.486,1363.771,1533.579,1363.771"/>
			</defs>
			<clipPath id="SVGID_38_">
				<use xlink:href="#SVGID_37_"  overflow="visible"/>
			</clipPath>
			<polygon clip-path="url(#SVGID_38_)" fill="#DDDDDD" points="1969.855,1349.423 2087.412,1954.011 1692.393,1992.396 
				1464.714,1992.612 1264.945,1524.691 1404.605,1348.551 1621.912,1355.215 			"/>
		</g>
	</g>
</g>
</svg>
